{"glyphs":{"0":{"ha":771,"x_min":57,"x_max":714,"o":"m 477 358 l 477 861 q 386 1036 477 1036 q 343 1023 361 1036 q 316 993 326 1010 q 302 948 307 975 q 296 903 297 922 q 295 861 295 885 l 295 358 q 297 317 295 337 q 304 272 298 297 q 319 228 309 246 q 346 196 328 209 q 386 183 363 183 q 434 201 414 183 q 463 249 454 219 q 474 304 471 279 q 477 358 477 330 m 57 358 l 57 861 q 76 1010 57 942 q 134 1131 96 1078 q 237 1214 173 1184 q 386 1244 301 1244 q 534 1214 470 1244 q 637 1131 598 1184 q 695 1010 675 1078 q 714 861 714 942 l 714 358 q 694 212 714 280 q 634 91 673 144 q 530 7 594 38 q 386 -24 467 -24 q 240 7 304 -24 q 136 90 176 37 q 77 211 97 143 q 57 358 57 279 z "},"1":{"ha":458,"x_min":29,"x_max":386,"o":"m 153 0 l 153 907 l 29 907 l 29 1086 q 80 1113 48 1098 q 130 1138 112 1128 q 169 1169 147 1147 q 205 1221 191 1191 l 386 1221 l 386 0 l 153 0 z "},"2":{"ha":724,"x_min":41,"x_max":690,"o":"m 690 908 q 665 748 690 827 q 593 596 640 669 q 503 468 546 524 q 399 342 459 412 q 311 235 338 272 l 690 235 l 690 0 l 41 0 l 41 210 l 338 635 q 380 699 363 672 q 417 762 397 725 q 446 836 436 800 q 456 908 456 873 q 451 951 456 929 q 435 993 446 972 q 407 1026 425 1013 q 366 1038 389 1038 q 332 1029 347 1038 q 307 1005 317 1021 q 291 970 298 990 q 281 929 284 951 q 277 884 279 907 q 275 842 275 862 q 275 805 275 822 q 275 789 275 793 l 41 789 l 41 865 q 52 988 41 932 q 87 1093 63 1044 q 149 1174 112 1141 q 241 1226 186 1207 q 366 1244 296 1244 q 606 1154 521 1244 q 690 908 690 1063 z "},"3":{"ha":742,"x_min":48,"x_max":705,"o":"m 49 395 l 285 395 q 285 381 285 391 q 285 347 285 359 q 287 311 285 335 q 291 273 288 288 q 301 239 294 258 q 317 210 308 220 q 342 192 327 199 q 376 184 357 184 q 410 191 395 184 q 435 207 425 197 q 451 233 444 216 q 461 262 458 250 q 466 297 464 275 q 467 329 467 319 q 467 359 467 338 q 426 491 467 444 q 300 535 384 537 l 300 772 q 370 776 341 771 q 421 795 398 781 q 456 837 445 809 q 467 907 467 865 q 464 955 467 934 q 452 996 460 975 q 424 1027 443 1016 q 376 1038 405 1038 q 342 1030 357 1038 q 317 1012 327 1023 q 301 983 308 1002 q 291 949 294 964 q 287 911 288 935 q 285 876 285 888 q 285 842 285 863 q 285 829 285 833 l 48 829 l 48 907 q 134 1155 48 1065 q 376 1245 220 1245 q 618 1154 532 1245 q 705 907 705 1063 q 673 760 705 830 q 581 652 642 690 q 675 527 646 604 q 705 359 705 449 q 687 207 705 275 q 631 86 669 139 q 529 5 593 33 q 376 -24 465 -24 q 245 -5 302 -24 q 152 47 188 14 q 92 128 115 79 q 60 231 69 177 q 49 353 50 286 l 49 395 z "},"4":{"ha":751,"x_min":42,"x_max":732,"o":"m 251 486 l 384 486 l 384 852 l 251 486 m 42 296 l 42 488 l 340 1221 l 618 1221 l 618 486 l 732 486 l 732 296 l 618 296 l 618 0 l 384 0 l 384 296 l 42 296 z "},"5":{"ha":756,"x_min":64,"x_max":711,"o":"m 64 387 l 299 387 q 299 331 298 354 q 302 282 300 309 q 309 238 304 255 q 322 206 314 221 q 344 183 331 191 q 375 176 357 176 q 415 185 397 176 q 444 209 433 194 q 462 244 454 224 q 473 287 470 264 q 479 333 477 310 q 481 378 481 357 q 481 419 480 400 q 481 437 481 432 q 480 473 481 458 q 477 511 479 488 q 468 550 474 534 q 452 583 462 567 q 426 607 442 598 q 389 615 410 615 q 331 586 356 615 q 290 520 305 557 l 90 520 l 90 1221 l 671 1221 l 671 989 l 310 989 l 310 769 q 429 809 375 809 q 544 788 494 809 q 626 732 595 767 q 676 648 656 698 q 704 547 696 599 q 711 434 711 495 q 706 322 711 374 q 688 216 701 270 q 651 120 675 162 q 592 45 627 79 q 505 -6 557 12 q 386 -24 452 -24 q 254 -2 311 -24 q 161 56 197 20 q 103 147 125 93 q 73 258 81 201 q 64 387 64 316 z "},"6":{"ha":754,"x_min":59,"x_max":717,"o":"m 297 517 l 297 359 q 299 318 297 338 q 306 272 300 298 q 321 228 311 247 q 348 197 330 210 q 388 184 365 184 q 413 188 401 184 q 434 200 425 191 q 450 217 443 209 q 461 240 456 225 q 470 265 466 256 q 475 294 473 275 q 478 321 477 313 q 480 349 479 329 q 480 372 480 368 q 480 393 480 376 q 479 431 480 416 q 476 470 479 446 q 468 510 474 494 q 452 542 462 526 q 426 566 443 557 q 388 574 410 574 q 297 517 333 574 m 59 373 l 59 806 q 68 929 59 871 q 100 1047 77 988 q 159 1149 123 1106 q 254 1218 195 1192 q 388 1244 313 1244 q 523 1217 463 1244 q 620 1142 582 1190 q 677 1030 657 1095 q 696 891 696 966 l 696 869 l 467 869 q 466 913 467 895 q 461 956 465 930 q 449 998 456 982 q 425 1026 441 1014 q 388 1038 410 1038 q 296 799 294 1038 l 296 729 q 436 771 358 771 q 551 751 501 771 q 632 698 601 731 q 683 616 663 665 q 709 515 702 567 q 717 400 717 463 q 706 276 717 335 q 670 162 695 216 q 608 67 646 107 q 514 4 571 28 q 388 -20 458 -20 q 263 3 319 -20 q 170 64 208 26 q 107 153 133 102 q 70 259 81 203 q 59 373 59 314 z "},"7":{"ha":561,"x_min":20,"x_max":545,"o":"m 105 0 l 317 1015 l 20 1015 l 20 1220 l 545 1220 l 545 1100 l 335 0 l 105 0 z "},"8":{"ha":738,"x_min":41,"x_max":697,"o":"m 333 177 q 341 173 333 177 q 369 170 349 170 q 405 177 389 170 q 431 193 421 184 q 448 219 441 202 q 459 248 456 235 q 464 282 463 261 q 466 314 466 303 q 467 345 467 325 q 369 545 467 545 q 271 345 271 545 q 271 314 271 326 q 273 281 271 302 q 279 248 275 261 q 290 218 282 235 q 307 193 297 202 q 333 177 317 183 m 145 646 q 56 907 56 738 q 135 1154 56 1063 q 369 1245 215 1245 q 602 1154 523 1245 q 680 907 680 1063 q 591 646 680 735 q 646 586 624 619 q 678 515 667 553 q 693 440 689 477 q 697 358 697 404 q 680 204 697 271 q 625 85 663 137 q 523 6 588 33 q 369 -21 458 -21 q 41 358 41 -21 q 62 525 41 455 q 145 646 83 595 m 369 728 q 397 736 385 728 q 418 756 410 745 q 431 787 426 768 q 439 822 437 807 q 444 861 442 838 q 445 896 445 884 q 446 927 446 907 q 369 1059 446 1059 q 328 1045 345 1059 q 304 1010 311 1032 q 294 968 296 987 q 291 927 291 949 q 292 890 291 905 q 294 848 292 874 q 301 804 296 822 q 315 767 307 785 q 337 738 323 748 q 369 728 351 728 z "},"9":{"ha":770,"x_min":55,"x_max":713,"o":"m 476 701 l 476 862 q 473 915 476 889 q 461 971 469 941 q 432 1019 452 1001 q 384 1038 412 1038 q 350 1029 365 1038 q 326 1009 335 1021 q 310 977 317 997 q 300 941 303 956 q 295 901 297 925 q 293 865 294 876 q 293 833 293 853 q 293 802 293 812 q 295 768 293 791 q 299 731 296 745 q 309 700 302 718 q 326 671 316 682 q 350 654 335 661 q 384 646 365 646 q 436 662 411 646 q 476 701 460 677 m 68 332 l 68 352 l 300 352 q 300 317 300 331 q 303 280 301 302 q 311 243 305 258 q 326 214 317 229 q 349 191 334 199 q 384 184 364 184 q 419 195 404 184 q 444 221 435 205 q 460 261 454 236 q 471 306 467 286 q 476 356 474 326 q 477 401 477 387 q 477 441 477 416 q 477 454 477 450 l 477 485 q 342 451 416 451 q 55 822 55 451 q 66 946 55 886 q 102 1060 77 1005 q 164 1156 127 1116 q 258 1220 201 1196 q 384 1244 314 1244 q 508 1220 452 1244 q 601 1155 564 1196 q 664 1059 638 1114 q 701 944 690 1004 q 713 822 713 885 l 713 442 q 704 310 713 372 q 673 186 696 248 q 614 80 650 124 q 519 8 578 36 q 384 -20 460 -20 q 247 7 307 -20 q 149 81 186 33 q 91 192 111 129 q 68 332 71 255 z "},"\r":{"ha":0,"x_min":0,"x_max":0,"o":""}," ":{"ha":278,"x_min":0,"x_max":0,"o":""},"!":{"ha":355,"x_min":64,"x_max":297,"o":"m 64 0 l 64 215 l 283 215 l 283 0 l 64 0 m 135 313 l 64 1221 l 297 1221 l 214 313 l 135 313 z "},"\"":{"ha":514,"x_min":27,"x_max":487,"o":"m 294 815 l 294 1221 l 487 1221 l 418 815 l 294 815 m 88 815 l 27 1221 l 227 1221 l 226 815 l 88 815 z "},"#":{"ha":780,"x_min":67,"x_max":694,"o":"m 329 591 l 425 591 l 436 668 l 340 668 l 329 591 m 104 0 l 163 418 l 67 418 l 67 591 l 188 591 l 199 668 l 67 668 l 67 841 l 224 841 l 278 1221 l 420 1221 l 365 841 l 461 841 l 515 1221 l 657 1221 l 602 841 l 694 841 l 694 668 l 577 668 l 566 591 l 694 591 l 694 418 l 541 418 l 481 0 l 341 0 l 401 418 l 304 418 l 243 0 l 104 0 z "},"$":{"ha":777,"x_min":63,"x_max":717,"o":"m 359 -68 l 359 48 q 224 83 282 55 q 132 158 166 112 q 80 261 97 204 q 63 385 63 317 l 310 432 l 310 399 q 311 358 310 376 q 318 316 313 340 q 333 276 323 292 q 360 248 342 260 q 404 237 378 237 q 473 320 473 237 q 470 352 473 337 q 457 383 467 368 q 441 408 448 398 q 416 433 434 418 q 392 455 399 449 q 361 480 385 462 q 332 503 338 498 l 256 563 q 198 610 220 591 q 148 660 177 628 q 103 720 119 691 q 76 788 87 748 q 64 873 64 828 q 144 1084 64 1004 q 359 1176 224 1164 l 359 1310 l 424 1310 l 424 1178 q 632 1092 548 1172 q 715 896 715 1013 l 715 865 l 463 831 q 465 881 465 867 q 389 991 465 991 q 327 964 347 991 q 307 903 307 938 q 333 819 307 854 q 410 745 359 784 l 493 682 q 570 622 541 646 q 631 563 600 597 q 679 496 662 528 q 706 420 695 463 q 717 325 717 376 q 632 131 717 208 q 424 47 547 54 l 424 -68 l 359 -68 z "},"%":{"ha":1384,"x_min":64,"x_max":1317,"o":"m 430 0 l 821 1244 l 943 1244 l 551 0 l 430 0 m 974 351 l 974 347 q 975 280 974 307 q 981 224 977 253 q 995 179 986 196 q 1018 152 1003 163 q 1055 141 1033 141 q 1098 156 1081 141 q 1122 201 1114 170 q 1132 264 1130 233 q 1135 347 1135 296 l 1135 350 q 1134 406 1135 385 q 1131 453 1133 427 q 1123 493 1128 478 q 1109 522 1118 508 q 1087 541 1101 535 q 1055 547 1073 547 q 1023 541 1036 547 q 1000 522 1009 535 q 986 493 991 509 q 978 453 981 478 q 975 407 975 429 q 974 351 974 385 m 793 347 l 793 353 q 808 492 794 432 q 851 597 821 551 q 932 666 881 642 q 1055 689 983 689 q 1177 666 1126 689 q 1258 597 1228 642 q 1302 492 1289 552 q 1317 353 1316 432 l 1317 347 q 1055 0 1317 0 q 793 347 793 0 m 244 886 l 244 878 q 245 811 244 838 q 252 756 247 785 q 265 711 256 728 q 288 684 273 694 q 325 673 303 673 q 368 687 351 673 q 392 733 385 702 q 402 796 400 764 q 405 878 405 827 l 405 884 q 404 940 405 918 q 401 986 404 961 q 393 1025 398 1010 q 379 1054 388 1040 q 357 1073 370 1067 q 325 1079 343 1079 q 288 1069 303 1079 q 264 1045 273 1060 q 251 1003 256 1030 q 245 951 247 976 q 244 886 244 926 m 64 878 l 64 882 q 77 1022 64 962 q 121 1128 91 1082 q 202 1197 151 1174 q 325 1221 253 1221 q 447 1197 396 1221 q 529 1128 498 1174 q 573 1023 559 1083 q 587 884 587 963 l 587 878 q 325 532 587 532 q 64 878 64 532 z "},"&":{"ha":810,"x_min":45,"x_max":766,"o":"m 411 212 q 288 426 326 349 q 266 371 275 413 q 256 281 256 328 q 271 188 256 225 q 315 150 285 150 q 411 212 362 150 m 344 749 q 398 858 377 798 q 420 974 420 919 q 405 1043 420 1013 q 354 1074 389 1074 q 296 972 296 1074 q 344 749 296 867 m 766 178 l 766 -16 q 725 -20 745 -20 q 539 82 646 -20 q 435 6 495 33 q 309 -20 376 -20 q 115 60 186 -20 q 45 264 45 140 q 199 614 45 442 q 91 972 91 855 q 157 1166 91 1089 q 339 1244 223 1244 q 533 1173 458 1244 q 607 984 607 1103 q 557 780 607 873 q 417 594 507 687 l 544 382 q 572 593 572 455 l 759 593 q 736 391 759 469 q 657 232 713 313 q 706 195 677 210 q 766 178 735 180 z "},"'":{"ha":241,"x_min":21,"x_max":227,"o":"m 68 814 l 21 1220 l 227 1220 l 179 814 l 68 814 z "},"(":{"ha":472,"x_min":106,"x_max":432,"o":"m 432 107 l 432 -43 q 311 -19 364 -44 q 224 40 258 5 q 166 136 191 75 q 131 245 142 197 q 113 371 119 293 q 106 490 107 449 q 106 604 106 532 q 106 611 106 609 q 106 617 106 614 q 106 625 106 621 q 106 645 106 631 q 106 760 106 718 q 113 879 107 801 q 131 1004 119 956 q 166 1114 142 1053 q 224 1210 191 1175 q 311 1269 258 1244 q 432 1293 364 1293 l 432 1143 q 385 1129 406 1143 q 350 1089 363 1115 q 326 1031 336 1063 q 310 958 315 999 q 302 881 305 918 q 298 801 298 844 q 298 728 298 758 q 299 667 298 699 q 300 625 300 635 q 299 583 300 614 q 298 521 298 551 q 298 449 298 492 q 302 369 298 406 q 310 292 305 332 q 326 219 315 251 q 350 161 336 187 q 385 121 363 135 q 432 107 406 106 z "},")":{"ha":472,"x_min":75,"x_max":401,"o":"m 75 -43 l 75 107 q 122 121 101 106 q 157 161 143 135 q 181 219 170 187 q 196 292 191 251 q 204 370 201 332 q 208 449 208 407 q 208 521 208 492 q 207 583 208 551 q 206 625 206 614 q 207 667 206 635 q 208 728 208 699 q 208 800 208 758 q 204 880 208 843 q 196 958 201 917 q 181 1031 191 999 q 157 1089 170 1063 q 122 1129 143 1115 q 75 1143 101 1143 l 75 1293 q 163 1282 123 1293 q 235 1249 204 1272 q 290 1200 265 1225 q 331 1134 314 1175 q 361 1060 348 1093 q 381 976 374 1027 q 393 891 388 925 q 399 803 397 857 q 401 720 401 748 q 401 642 401 692 q 401 625 401 631 q 401 607 401 618 q 401 493 401 534 q 394 374 400 452 q 376 247 388 296 q 341 137 365 199 q 283 41 317 76 q 196 -19 249 5 q 75 -43 142 -44 z "},"*":{"ha":619,"x_min":52,"x_max":589,"o":"m 107 661 l 217 817 l 52 881 l 102 1015 l 253 935 l 235 1114 l 404 1114 l 387 934 l 538 1015 l 589 880 l 422 817 l 534 661 l 399 582 l 319 741 l 240 582 l 107 661 z "},"+":{"ha":517,"x_min":47,"x_max":463,"o":"m 47 395 l 47 547 l 180 547 l 180 678 l 330 678 l 330 547 l 463 547 l 463 395 l 330 395 l 330 264 l 180 264 l 180 395 l 47 395 z "},",":{"ha":318,"x_min":57,"x_max":277,"o":"m 104 -165 l 77 -53 q 87 -53 80 -53 q 111 -53 104 -53 q 123 -46 117 -52 q 131 -31 130 -41 q 132 -1 132 -22 l 57 -1 l 57 215 l 276 215 q 276 155 276 195 q 276 40 277 77 q 267 -50 275 3 q 241 -124 258 -102 q 189 -159 223 -145 q 104 -165 155 -173 z "},"-":{"ha":291,"x_min":3,"x_max":286,"o":"m 3 307 l 3 458 l 286 458 l 286 307 l 3 307 z "},".":{"ha":354,"x_min":67,"x_max":288,"o":"m 67 0 l 67 215 l 288 215 l 288 0 l 67 0 z "},"/":{"ha":607,"x_min":62,"x_max":575,"o":"m 62 0 l 453 1244 l 575 1244 l 183 0 l 62 0 z "},":":{"ha":351,"x_min":67,"x_max":285,"o":"m 67 102 l 67 316 l 285 316 l 285 102 l 67 102 m 67 608 l 67 823 l 285 823 l 285 608 l 67 608 z "},";":{"ha":346,"x_min":58,"x_max":277,"o":"m 104 -64 l 77 48 q 87 48 81 48 q 112 48 105 48 q 124 55 118 49 q 131 70 130 60 q 132 100 132 79 l 58 100 l 58 316 l 277 316 q 277 256 277 296 q 276 141 277 178 q 267 51 275 104 q 241 -23 259 -1 q 190 -58 224 -44 q 104 -64 155 -72 m 59 608 l 59 823 l 277 823 l 277 608 l 59 608 z "},"<":{"ha":587,"x_min":50,"x_max":509,"o":"m 50 356 l 50 542 l 509 863 l 509 664 l 208 450 q 509 234 258 414 l 509 36 l 50 356 z "},"=":{"ha":517,"x_min":47,"x_max":463,"o":"m 47 175 l 47 326 l 463 326 l 463 175 l 47 175 m 47 395 l 47 547 l 463 547 l 463 395 l 47 395 z "},">":{"ha":587,"x_min":78,"x_max":536,"o":"m 78 36 l 78 234 l 379 450 l 78 664 l 78 863 l 536 542 l 536 356 l 78 36 z "},"?":{"ha":661,"x_min":31,"x_max":642,"o":"m 176 0 l 176 220 l 402 220 l 402 0 l 176 0 m 176 326 l 176 589 q 261 657 220 619 q 336 742 301 696 q 392 843 372 788 q 413 951 413 897 q 391 1021 413 998 q 328 1045 369 1045 q 270 1014 290 1045 q 251 937 251 983 q 264 853 251 895 l 51 812 q 31 955 31 888 q 105 1165 31 1085 q 328 1244 179 1244 q 559 1165 477 1244 q 642 937 642 1085 q 578 693 642 806 q 402 515 515 581 l 402 326 l 176 326 z "},"@":{"ha":1171,"x_min":56,"x_max":1122,"o":"m 844 103 l 918 -50 q 635 -88 749 -88 q 368 -48 479 -88 q 188 73 256 -8 q 88 267 119 153 q 56 536 56 381 q 93 764 56 661 q 197 942 130 867 q 366 1057 264 1016 q 593 1098 468 1098 q 885 1028 765 1098 q 1064 833 1005 958 q 1122 536 1122 708 q 1107 414 1122 472 q 1062 307 1093 356 q 980 229 1032 258 q 861 200 928 200 q 757 220 806 200 q 673 279 707 240 q 612 218 640 235 q 554 200 584 200 q 425 243 479 200 q 345 349 370 286 q 320 486 320 412 q 326 574 320 530 q 347 668 331 619 q 386 755 362 718 q 448 817 409 792 q 538 841 488 841 q 626 798 597 841 l 626 835 l 821 835 l 821 435 q 821 431 821 434 q 821 413 821 420 q 823 396 821 407 q 828 379 825 385 q 840 369 832 374 q 858 364 847 364 q 896 384 880 364 q 918 436 911 404 q 926 491 924 468 q 928 536 928 514 q 912 702 928 631 q 860 830 897 773 q 756 918 823 888 q 593 947 689 947 q 438 915 505 947 q 331 825 371 882 q 271 694 291 767 q 251 536 251 622 q 261 378 251 448 q 299 249 272 309 q 369 148 326 188 q 479 86 412 109 q 635 64 546 64 q 844 103 722 64 m 626 383 l 626 657 q 617 676 625 668 q 599 684 610 684 q 563 675 578 684 q 538 650 547 667 q 524 617 530 633 q 517 576 519 602 q 515 537 515 551 q 515 500 515 523 q 515 486 515 490 q 517 447 515 465 q 527 408 520 429 q 548 376 533 388 q 585 364 563 364 q 626 383 608 364 z "},"A":{"ha":758,"x_min":6,"x_max":751,"o":"m 315 413 l 441 413 l 380 866 l 315 413 m 6 0 l 270 1221 l 488 1221 l 751 0 l 508 0 l 458 261 l 298 261 l 251 0 l 6 0 z "},"B":{"ha":773,"x_min":73,"x_max":731,"o":"m 319 174 l 342 174 q 420 185 391 174 q 466 224 450 197 q 487 285 481 251 q 492 377 492 319 q 458 526 492 473 q 344 578 425 578 l 319 578 l 319 174 m 318 741 l 360 741 q 417 753 394 741 q 452 791 440 766 q 469 844 464 816 q 473 911 473 873 q 469 965 473 942 q 459 1003 465 988 q 441 1029 454 1019 q 418 1045 428 1040 q 388 1052 408 1050 q 356 1055 368 1055 q 318 1055 344 1055 l 318 741 m 73 0 l 73 1221 l 324 1221 q 444 1214 392 1221 q 546 1186 496 1206 q 628 1131 595 1165 q 679 1039 660 1096 q 699 905 699 983 q 653 755 699 810 q 513 668 608 700 q 731 360 731 615 q 643 88 731 176 q 374 0 555 0 l 73 0 z "},"C":{"ha":796,"x_min":57,"x_max":753,"o":"m 57 408 l 57 812 q 411 1244 57 1244 q 544 1224 486 1244 q 641 1169 602 1204 q 706 1082 680 1134 q 742 970 731 1031 q 753 838 753 910 l 753 732 l 511 732 l 511 845 q 509 902 511 878 q 502 957 508 926 q 487 1007 496 988 q 457 1040 477 1027 q 411 1054 438 1054 q 304 873 304 1054 l 304 347 q 411 167 304 167 q 465 185 443 167 q 496 237 486 203 q 509 303 505 271 q 512 376 512 335 l 512 502 l 753 502 l 753 399 q 742 270 752 329 q 707 155 732 211 q 645 61 683 100 q 548 0 608 23 q 411 -24 488 -24 q 270 -1 332 -24 q 169 60 209 22 q 104 154 130 98 q 67 272 78 210 q 57 408 57 334 z "},"D":{"ha":789,"x_min":73,"x_max":732,"o":"m 73 0 l 73 1221 l 328 1221 q 529 1199 450 1221 q 653 1126 608 1177 q 715 1005 698 1076 q 732 825 732 935 l 732 425 q 728 312 732 360 q 713 217 724 263 q 683 138 702 170 q 633 78 663 106 q 559 34 602 50 q 458 9 516 18 q 325 0 400 0 l 73 0 m 329 173 q 385 174 364 173 q 425 179 405 175 q 455 190 446 183 q 473 211 465 197 q 483 243 481 224 q 486 290 486 262 l 486 947 q 450 1027 486 1007 q 329 1047 414 1046 l 329 173 z "},"E":{"ha":597,"x_min":73,"x_max":582,"o":"m 73 0 l 73 1221 l 582 1221 l 582 1051 l 319 1051 l 319 719 l 505 719 l 505 545 l 319 545 l 319 170 l 582 170 l 582 0 l 73 0 z "},"F":{"ha":581,"x_min":73,"x_max":582,"o":"m 73 0 l 73 1221 l 582 1221 l 582 1051 l 319 1051 l 319 719 l 505 719 l 505 545 l 319 545 l 319 0 l 73 0 z "},"G":{"ha":840,"x_min":57,"x_max":777,"o":"m 57 382 l 57 812 q 417 1244 57 1244 q 552 1224 493 1244 q 652 1169 612 1204 q 718 1082 692 1134 q 755 970 743 1031 q 766 838 766 910 l 766 766 l 530 766 l 530 851 q 529 907 530 883 q 520 961 527 931 q 502 1009 513 990 q 469 1041 490 1028 q 417 1054 447 1054 q 304 873 304 1054 l 304 347 q 417 167 304 167 q 530 353 530 167 l 530 451 l 390 451 l 390 628 l 777 628 l 777 0 l 607 0 l 576 85 q 487 6 545 37 q 368 -24 429 -24 q 249 0 302 -24 q 160 64 195 24 q 101 157 125 104 q 67 267 77 211 q 57 382 57 323 z "},"H":{"ha":817,"x_min":73,"x_max":745,"o":"m 73 0 l 73 1221 l 319 1221 l 319 720 l 496 720 l 496 1221 l 745 1221 l 745 0 l 496 0 l 496 545 l 319 545 l 319 0 l 73 0 z "},"I":{"ha":392,"x_min":73,"x_max":319,"o":"m 73 0 l 73 1221 l 319 1221 l 319 0 l 73 0 z "},"J":{"ha":469,"x_min":0,"x_max":396,"o":"m 0 -23 l 0 151 q 119 177 90 149 q 149 295 149 205 l 149 1221 l 396 1221 l 396 293 q 390 179 396 226 q 366 91 383 132 q 317 27 348 51 q 238 -10 287 3 q 121 -23 190 -23 l 0 -23 z "},"K":{"ha":779,"x_min":73,"x_max":805,"o":"m 73 0 l 73 1221 l 319 1221 l 319 758 l 511 1221 l 787 1221 l 538 721 l 805 0 l 549 0 l 364 558 l 319 443 l 319 0 l 73 0 z "},"L":{"ha":568,"x_min":73,"x_max":562,"o":"m 73 0 l 73 1221 l 319 1221 l 319 170 l 562 170 l 562 0 l 73 0 z "},"M":{"ha":997,"x_min":73,"x_max":924,"o":"m 73 0 l 73 1221 l 368 1221 l 498 407 l 639 1221 l 924 1221 l 924 0 l 743 0 l 737 859 q 666 429 717 726 q 595 0 615 132 l 410 0 l 260 864 l 255 0 l 73 0 z "},"N":{"ha":795,"x_min":73,"x_max":723,"o":"m 73 0 l 73 1221 l 250 1221 l 518 583 l 518 1221 l 723 1221 l 723 0 l 552 0 l 285 677 l 285 0 l 73 0 z "},"O":{"ha":828,"x_min":57,"x_max":771,"o":"m 57 401 l 57 812 q 414 1244 57 1244 q 771 812 771 1244 l 771 408 q 760 272 771 334 q 723 155 749 210 q 657 60 697 99 q 555 -1 616 21 q 414 -24 493 -24 q 273 -2 335 -24 q 172 58 212 20 q 105 150 132 96 q 68 267 79 205 q 57 401 57 328 m 524 346 l 524 873 q 414 1054 524 1054 q 357 1037 380 1054 q 323 992 334 1021 q 308 935 313 963 q 304 873 304 907 l 304 346 q 414 166 304 166 q 524 346 524 166 z "},"P":{"ha":693,"x_min":73,"x_max":672,"o":"m 321 696 q 356 699 341 696 q 383 704 372 701 q 404 715 395 707 q 418 730 412 724 q 428 750 424 736 q 434 772 432 764 q 437 801 436 781 q 438 832 438 821 q 438 869 438 844 q 438 880 438 876 q 438 920 438 906 q 435 954 437 933 q 429 986 433 975 q 416 1010 425 996 q 395 1029 408 1023 q 365 1040 383 1036 q 321 1045 346 1045 l 321 696 m 73 0 l 73 1221 l 368 1221 q 600 1132 527 1221 q 672 875 672 1043 q 656 731 672 792 q 612 630 640 670 q 538 567 583 591 q 441 533 494 543 q 321 522 389 523 l 321 0 l 73 0 z "},"Q":{"ha":833,"x_min":57,"x_max":776,"o":"m 529 347 l 529 873 q 525 936 529 907 q 509 992 520 964 q 474 1037 497 1021 q 416 1054 450 1054 q 359 1037 383 1054 q 325 992 336 1021 q 309 935 313 964 q 304 873 304 907 l 304 347 q 416 167 304 167 q 529 347 529 167 m 57 401 l 57 812 q 68 950 57 887 q 105 1069 79 1013 q 172 1162 132 1124 q 275 1222 213 1200 q 416 1244 337 1244 q 558 1222 496 1244 q 661 1162 620 1200 q 727 1069 701 1124 q 765 950 753 1013 q 776 812 776 887 l 776 408 q 631 35 776 157 q 751 -9 652 -9 l 751 -159 q 479 -22 566 -159 q 412 -25 450 -25 q 252 6 321 -25 q 141 96 183 38 q 78 230 99 153 q 57 401 57 307 z "},"R":{"ha":761,"x_min":73,"x_max":755,"o":"m 319 713 l 390 713 q 439 732 418 713 q 468 780 459 751 q 481 833 477 809 q 485 880 485 858 q 482 924 485 901 q 471 976 479 947 q 445 1022 463 1004 q 401 1040 427 1040 l 319 1040 l 319 713 m 73 0 l 73 1221 l 341 1221 q 502 1203 433 1221 q 624 1149 572 1186 q 703 1049 676 1112 q 730 899 730 987 q 728 831 730 861 q 715 763 725 802 q 688 695 705 725 q 640 637 671 666 q 564 590 608 609 q 755 0 674 241 l 500 0 l 360 562 l 319 562 l 319 0 l 73 0 z "},"S":{"ha":714,"x_min":31,"x_max":688,"o":"m 31 349 l 281 397 q 282 332 281 360 q 289 270 283 303 q 305 215 295 236 q 333 179 315 193 q 375 164 351 164 q 448 258 448 164 q 304 513 448 386 l 227 578 q 169 629 191 608 q 118 684 147 649 q 72 750 88 718 q 43 828 55 783 q 31 924 31 873 q 125 1159 31 1073 q 376 1246 220 1246 q 596 1154 505 1246 q 687 931 687 1061 l 686 922 q 686 902 686 913 l 431 867 q 432 890 431 874 q 433 916 433 906 q 430 963 433 941 q 419 1008 427 985 q 395 1043 411 1030 q 355 1057 378 1057 q 294 1025 315 1057 q 274 949 274 993 q 286 878 274 911 q 322 816 298 845 q 366 768 346 787 q 420 722 387 749 q 469 682 454 694 q 557 595 521 635 q 625 504 593 555 q 672 394 656 453 q 688 267 688 335 q 597 57 688 138 q 374 -25 505 -25 q 224 6 290 -25 q 118 91 158 37 q 56 210 77 144 q 31 349 34 275 z "},"T":{"ha":621,"x_min":9,"x_max":611,"o":"m 189 0 l 189 1036 l 9 1036 l 9 1221 l 611 1221 l 611 1036 l 435 1036 l 435 0 l 189 0 z "},"U":{"ha":846,"x_min":67,"x_max":779,"o":"m 67 454 l 67 1221 l 314 1221 l 314 461 q 315 367 314 396 q 318 295 315 337 q 328 235 321 252 q 346 199 334 218 q 377 173 358 179 q 423 167 396 167 q 469 173 450 167 q 500 198 488 179 q 519 235 512 218 q 528 293 526 252 q 532 364 531 335 q 532 457 532 393 q 532 461 532 460 l 532 1221 l 779 1221 l 779 454 q 776 348 779 395 q 763 250 772 300 q 737 160 753 199 q 694 85 721 121 q 630 26 667 50 q 541 -10 593 3 q 423 -24 488 -24 q 306 -10 358 -24 q 217 26 254 3 q 153 85 180 50 q 110 160 126 121 q 84 250 94 199 q 71 348 74 300 q 67 454 67 395 z "},"V":{"ha":708,"x_min":8,"x_max":700,"o":"m 233 0 l 8 1221 l 242 1221 l 350 481 l 469 1221 l 700 1221 l 458 0 l 233 0 z "},"W":{"ha":993,"x_min":14,"x_max":979,"o":"m 183 0 l 14 1221 l 224 1221 l 300 412 l 405 1221 l 586 1221 l 688 417 l 768 1221 l 979 1221 l 808 0 l 597 0 l 494 799 l 394 0 l 183 0 z "},"X":{"ha":730,"x_min":14,"x_max":716,"o":"m 16 0 l 213 631 l 14 1221 l 249 1221 l 363 856 l 487 1221 l 716 1221 l 519 635 l 713 0 l 481 0 l 364 404 l 249 0 l 16 0 z "},"Y":{"ha":696,"x_min":-1,"x_max":697,"o":"m 229 0 l 229 404 l -1 1221 l 232 1221 l 346 684 q 409 952 367 772 q 471 1221 451 1133 l 697 1221 l 467 404 l 467 0 l 229 0 z "},"Z":{"ha":677,"x_min":54,"x_max":618,"o":"m 54 0 l 54 155 l 376 1050 l 92 1050 l 92 1220 l 618 1220 l 618 1065 l 294 170 l 618 170 l 618 0 l 54 0 z "},"[":{"ha":528,"x_min":106,"x_max":477,"o":"m 106 -43 l 106 1293 l 477 1293 l 477 1186 l 301 1186 l 301 64 l 477 64 l 477 -43 l 106 -43 z "},"\\":{"ha":427,"x_min":46,"x_max":376,"o":"m 180 0 l 46 1250 l 241 1250 l 376 0 l 180 0 z "},"]":{"ha":494,"x_min":52,"x_max":399,"o":"m 52 -43 l 52 43 l 225 43 l 225 1172 l 52 1172 l 52 1259 l 399 1259 l 399 -43 l 52 -43 z "},"^":{"ha":652,"x_min":44,"x_max":600,"o":"m 44 615 l 228 1074 l 416 1074 l 600 615 l 403 615 l 321 899 l 241 615 l 44 615 z "},"_":{"ha":562,"x_min":4,"x_max":551,"o":"m 4 0 l 4 151 l 551 151 l 551 0 l 4 0 z "},"`":{"ha":434,"x_min":52,"x_max":378,"o":"m 239 945 l 52 1244 l 286 1244 l 378 945 l 239 945 z "},"a":{"ha":662,"x_min":39,"x_max":629,"o":"m 374 200 l 374 418 q 262 218 262 327 q 272 172 262 191 q 308 153 283 153 q 336 162 322 153 q 356 178 350 171 q 374 200 362 184 m 420 0 l 398 92 q 334 5 378 30 q 222 -20 289 -20 q 137 -1 174 -20 q 80 51 100 18 q 49 120 59 83 q 39 197 39 157 q 49 283 39 243 q 73 352 58 322 q 114 410 87 382 q 164 457 140 438 q 228 497 189 477 q 297 532 267 518 q 374 565 328 546 l 374 640 q 362 709 374 686 q 323 732 351 732 q 292 725 304 732 q 275 701 280 717 q 269 673 271 686 q 268 640 268 661 l 268 589 l 46 589 q 123 824 46 742 q 345 905 199 905 q 524 831 447 905 q 600 656 600 758 l 600 235 q 629 0 600 126 l 420 0 z "},"b":{"ha":677,"x_min":64,"x_max":624,"o":"m 64 0 l 64 1221 l 293 1221 l 293 825 q 359 883 321 861 q 440 905 397 905 q 571 841 518 905 q 624 692 624 777 l 624 170 q 573 37 624 94 q 447 -20 522 -20 q 361 3 401 -20 q 293 66 320 26 l 293 0 l 64 0 m 395 216 l 395 674 q 357 732 395 732 q 331 721 345 732 q 311 703 316 709 q 293 680 305 696 l 293 208 l 297 202 q 302 195 300 197 q 307 189 303 194 q 313 181 311 183 q 319 174 315 178 q 327 167 323 169 q 334 161 330 165 q 341 157 338 158 q 349 154 345 155 q 357 153 353 153 q 383 163 374 153 q 394 186 392 174 q 395 216 395 198 z "},"c":{"ha":629,"x_min":53,"x_max":597,"o":"m 53 227 l 53 606 q 120 826 53 747 q 325 905 187 905 q 530 827 463 905 q 597 606 597 748 l 597 529 l 372 529 l 372 630 q 363 708 372 683 q 325 732 354 732 q 281 665 281 732 l 281 227 q 325 153 281 153 q 351 159 341 153 q 365 182 361 166 q 371 216 370 199 q 372 264 372 233 l 372 359 l 597 359 l 597 227 q 559 96 597 153 q 459 9 521 39 q 325 -20 397 -20 q 133 48 213 -20 q 53 227 53 117 z "},"d":{"ha":677,"x_min":54,"x_max":613,"o":"m 54 170 l 54 692 q 106 841 54 777 q 237 905 159 905 q 318 883 280 905 q 385 825 357 861 l 385 1221 l 613 1221 l 613 0 l 385 0 l 385 66 q 317 3 357 26 q 231 -20 276 -20 q 104 37 155 -20 q 54 170 54 94 m 385 201 l 385 682 q 320 732 346 732 q 282 674 282 732 l 282 216 q 284 186 282 198 q 295 163 286 174 q 320 153 304 153 q 385 201 349 153 z "},"e":{"ha":637,"x_min":53,"x_max":597,"o":"m 281 543 l 370 543 l 370 665 q 325 732 370 732 q 281 665 281 732 l 281 543 m 53 230 l 53 606 q 120 826 53 747 q 325 905 187 905 q 530 827 463 905 q 597 606 597 748 l 597 423 l 281 423 l 281 227 q 325 153 281 153 q 372 233 372 153 l 372 330 l 597 330 l 597 230 q 517 50 597 119 q 325 -20 437 -20 q 133 50 213 -20 q 53 230 53 120 z "},"f":{"ha":439,"x_min":44,"x_max":437,"o":"m 96 0 l 96 732 l 44 732 l 44 885 l 96 885 l 96 886 q 99 958 96 927 q 109 1025 102 989 q 130 1085 116 1060 q 165 1133 144 1111 q 218 1165 186 1154 q 293 1177 251 1177 q 357 1174 321 1177 q 415 1169 393 1172 l 437 1167 l 437 996 q 377 1000 390 1000 q 336 984 349 1000 q 324 926 324 968 l 324 885 l 435 885 l 435 732 l 324 732 l 324 0 l 96 0 z "},"g":{"ha":654,"x_min":15,"x_max":671,"o":"m 243 54 l 227 54 q 196 -31 196 5 q 347 -71 196 -71 q 351 -71 348 -71 q 428 -25 428 -72 q 419 4 428 -9 q 393 26 410 18 q 359 39 376 34 q 317 47 342 45 q 278 52 293 50 q 243 54 264 53 m 313 429 q 369 586 369 429 q 317 747 369 747 q 294 741 304 747 q 278 720 284 734 q 269 691 273 706 q 263 655 265 677 q 261 617 262 633 q 261 577 261 601 q 313 429 261 429 m 222 230 q 246 203 222 214 q 307 185 269 192 q 389 170 344 178 q 479 151 434 163 q 562 122 525 139 q 623 75 600 105 q 646 3 646 44 q 630 -95 646 -53 q 586 -163 613 -138 q 517 -204 558 -189 q 435 -225 477 -220 q 341 -231 393 -231 q 15 -72 15 -231 q 41 21 15 -25 q 108 98 66 68 q 54 131 80 112 q 28 168 28 151 q 119 321 28 207 q 50 575 50 448 q 65 697 50 640 q 111 802 80 755 q 196 878 142 850 q 319 905 249 905 q 476 849 423 905 q 642 905 526 905 l 671 905 l 652 742 q 555 712 585 742 q 583 558 583 661 q 565 444 583 498 q 514 347 547 389 q 428 281 480 305 q 311 256 375 256 q 281 259 299 256 q 250 264 262 262 l 238 267 q 222 230 222 236 z "},"h":{"ha":682,"x_min":64,"x_max":623,"o":"m 64 0 l 64 1221 l 292 1221 l 292 822 q 371 882 326 859 q 466 905 417 905 q 550 876 513 905 q 605 802 587 846 q 623 713 623 759 l 623 0 l 394 0 l 394 653 q 394 665 394 656 q 394 680 395 674 q 394 695 394 686 q 391 709 393 704 q 386 721 389 715 q 377 730 382 727 q 363 732 371 732 q 334 722 349 732 q 311 703 318 711 q 292 682 304 696 l 292 0 l 64 0 z "},"i":{"ha":359,"x_min":65,"x_max":294,"o":"m 65 962 l 65 1176 l 294 1176 l 294 962 l 65 962 m 65 0 l 65 885 l 294 885 l 294 0 l 65 0 z "},"j":{"ha":388,"x_min":-14,"x_max":324,"o":"m 97 962 l 97 1176 l 324 1176 l 324 962 l 97 962 m -14 -193 l -14 -27 q 45 -38 24 -38 q 97 37 97 -38 l 97 885 l 324 885 l 324 18 q 268 -150 324 -89 q 107 -211 212 -211 q -14 -193 56 -211 z "},"k":{"ha":665,"x_min":67,"x_max":680,"o":"m 67 0 l 67 1221 l 296 1221 l 296 578 l 435 885 l 680 885 l 463 511 l 680 0 l 443 0 l 326 395 l 296 343 l 296 0 l 67 0 z "},"l":{"ha":359,"x_min":65,"x_max":294,"o":"m 65 0 l 65 1221 l 294 1221 l 294 0 l 65 0 z "},"m":{"ha":999,"x_min":64,"x_max":940,"o":"m 64 0 l 64 885 l 292 885 l 292 822 q 368 882 324 859 q 459 905 412 905 q 541 877 503 905 q 597 806 578 848 q 679 878 630 850 q 781 905 727 905 q 865 876 828 905 q 921 802 903 846 q 940 713 940 758 l 940 0 l 711 0 l 711 667 q 711 687 711 680 q 707 707 710 695 q 697 726 705 720 q 678 732 690 732 q 616 682 654 732 l 616 0 l 387 0 l 387 669 q 356 732 387 732 q 292 682 330 732 l 292 0 l 64 0 z "},"n":{"ha":682,"x_min":64,"x_max":623,"o":"m 64 0 l 64 885 l 292 885 l 292 823 q 371 882 325 860 q 466 905 416 905 q 550 875 513 905 q 605 803 587 846 q 623 713 623 760 l 623 0 l 394 0 l 394 673 q 356 732 394 732 q 348 731 352 732 q 339 728 343 730 q 331 724 334 726 q 323 718 328 722 q 316 712 318 714 q 309 705 313 710 q 302 698 304 700 q 297 692 301 696 l 292 686 l 292 0 l 64 0 z "},"o":{"ha":660,"x_min":53,"x_max":607,"o":"m 380 227 l 380 665 q 328 732 380 732 q 281 665 281 732 l 281 227 q 282 202 281 212 q 288 179 283 193 q 302 159 292 166 q 328 153 312 153 q 380 227 380 153 m 53 230 l 53 606 q 120 826 53 748 q 328 905 186 905 q 538 826 470 905 q 607 606 607 748 l 607 230 q 525 50 607 119 q 328 -20 443 -20 q 192 11 254 -20 q 91 99 130 41 q 53 230 53 157 z "},"p":{"ha":677,"x_min":64,"x_max":624,"o":"m 64 -252 l 64 885 l 293 885 l 293 825 q 359 883 321 861 q 440 905 397 905 q 571 841 518 905 q 624 692 624 777 l 624 170 q 573 37 624 94 q 447 -20 522 -20 q 361 3 401 -20 q 293 66 320 26 l 293 -252 l 64 -252 m 395 216 l 395 674 q 357 732 395 732 q 293 682 332 732 l 293 201 q 357 153 328 153 q 383 163 374 153 q 394 186 392 174 q 395 216 395 198 z "},"q":{"ha":664,"x_min":56,"x_max":600,"o":"m 372 -252 l 372 60 q 309 2 345 24 q 231 -20 272 -20 q 106 39 157 -20 q 56 173 56 97 l 56 716 q 106 849 56 792 q 231 905 157 905 q 310 882 273 905 q 372 819 347 859 l 372 885 l 600 885 l 600 -252 l 372 -252 m 372 204 l 372 684 q 356 705 361 699 q 338 722 351 711 q 314 732 325 732 q 293 723 300 732 q 284 702 286 713 q 283 675 283 692 l 283 210 q 314 153 283 153 q 331 157 322 153 q 348 173 339 162 q 360 188 357 183 q 372 204 364 193 z "},"r":{"ha":484,"x_min":64,"x_max":475,"o":"m 64 0 l 64 885 l 291 885 l 291 813 q 413 898 343 898 q 475 891 433 898 l 475 699 q 386 705 412 705 q 315 676 339 705 q 291 594 291 648 l 291 0 l 64 0 z "},"s":{"ha":588,"x_min":14,"x_max":572,"o":"m 26 214 l 201 276 q 212 244 208 256 q 225 212 216 233 q 244 179 235 191 q 268 158 254 168 q 299 148 283 148 q 342 198 342 148 q 333 236 342 216 q 316 269 325 255 q 284 305 307 283 q 249 338 261 328 q 206 375 237 349 l 169 407 q 55 531 96 470 q 14 667 14 592 q 38 771 14 724 q 102 846 62 817 q 194 889 143 874 q 300 905 244 905 q 395 884 349 905 q 474 828 440 863 q 534 749 509 793 q 572 657 559 705 l 408 601 q 395 634 400 621 q 377 669 389 648 q 354 703 366 690 q 327 726 343 716 q 293 736 311 736 q 256 719 269 736 q 243 680 243 702 q 276 613 243 650 q 366 528 309 576 l 408 491 q 467 434 442 460 q 516 373 492 407 q 554 302 541 339 q 568 227 568 264 q 492 50 568 120 q 309 -20 416 -20 q 130 45 205 -20 q 26 214 55 109 z "},"t":{"ha":453,"x_min":14,"x_max":436,"o":"m 79 304 l 79 732 l 14 732 l 14 885 l 79 885 l 79 1176 l 308 1176 l 308 885 l 418 885 l 418 732 l 308 732 l 308 249 q 321 194 308 212 q 370 176 335 176 q 436 180 409 176 l 436 3 q 292 -10 391 -10 q 219 -1 252 -10 q 165 25 187 9 q 127 65 143 41 q 102 115 111 90 q 88 174 93 140 q 81 237 83 208 q 79 304 79 267 z "},"u":{"ha":682,"x_min":59,"x_max":618,"o":"m 59 172 l 59 885 l 288 885 l 288 227 q 319 153 288 153 q 390 203 349 153 l 390 885 l 618 885 l 618 0 l 390 0 l 390 77 q 309 7 355 35 q 216 -20 263 -20 q 102 40 146 -20 q 59 172 59 99 z "},"v":{"ha":605,"x_min":7,"x_max":597,"o":"m 191 0 l 7 885 l 222 885 l 309 288 l 383 885 l 597 885 l 422 0 l 191 0 z "},"w":{"ha":863,"x_min":18,"x_max":845,"o":"m 148 0 l 18 885 l 209 885 l 279 339 l 353 885 l 525 885 l 591 328 l 669 885 l 845 885 l 714 0 l 517 0 l 434 523 l 345 0 l 148 0 z "},"x":{"ha":625,"x_min":22,"x_max":603,"o":"m 23 0 l 186 467 l 22 885 l 248 885 l 313 608 q 343 740 321 646 q 377 885 366 834 l 603 885 l 441 467 l 602 0 l 377 0 l 312 278 l 248 0 l 23 0 z "},"y":{"ha":591,"x_min":12,"x_max":584,"o":"m 183 79 q 147 338 183 168 q 64 687 111 508 q 12 885 16 866 l 220 885 l 302 391 l 374 885 l 584 885 l 391 -24 q 359 -104 380 -70 q 312 -158 338 -138 q 247 -191 285 -178 q 173 -207 210 -203 q 88 -211 136 -211 l 59 -211 l 59 -53 q 155 -21 127 -52 q 183 79 183 10 z "},"z":{"ha":551,"x_min":39,"x_max":518,"o":"m 39 0 l 39 155 l 282 720 l 77 720 l 77 885 l 518 885 l 518 734 l 273 165 l 518 165 l 518 0 l 39 0 z "},"{":{"ha":517,"x_min":47,"x_max":463,"o":"m 463 107 l 463 -43 q 323 -25 382 -43 q 229 26 265 -6 q 172 112 193 59 q 143 222 151 164 q 136 361 136 281 q 136 392 136 371 q 137 423 136 412 q 136 450 137 433 q 131 476 134 467 q 122 497 128 486 q 106 514 115 509 q 81 524 96 520 q 47 528 66 528 l 47 722 q 85 731 69 722 q 111 757 102 739 q 126 791 121 774 q 134 835 132 808 q 137 877 136 861 q 136 918 137 892 q 136 949 136 943 q 151 1122 136 1057 q 207 1227 167 1188 q 307 1280 248 1266 q 463 1293 366 1293 l 463 1143 q 398 1135 423 1143 q 359 1118 374 1128 q 339 1079 345 1107 q 332 1026 333 1050 q 330 949 330 1002 q 326 866 330 907 q 309 778 321 825 q 272 693 297 731 q 210 633 246 654 q 269 585 245 614 q 304 518 292 555 q 321 448 316 481 q 329 370 327 415 q 331 326 330 355 q 333 282 332 298 q 336 243 334 267 q 342 204 338 218 q 352 173 346 191 q 368 145 358 155 q 390 125 377 135 q 421 111 403 115 q 463 107 439 107 z "},"|":{"ha":291,"x_min":91,"x_max":241,"o":"m 91 -88 l 91 1337 l 241 1337 l 241 -88 l 91 -88 z "},"}":{"ha":517,"x_min":47,"x_max":463,"o":"m 47 -43 l 47 107 q 84 111 68 107 q 114 121 101 115 q 136 138 126 126 q 152 159 146 151 q 163 187 159 168 q 171 217 168 205 q 175 252 174 229 q 178 288 177 275 q 180 327 178 300 q 180 335 180 332 q 180 343 180 338 q 180 353 180 349 q 184 416 182 390 q 195 477 187 443 q 215 536 203 511 q 249 585 227 560 q 300 625 270 609 q 239 691 264 648 q 202 786 214 734 q 185 884 190 838 q 180 976 180 930 q 180 1011 180 1000 q 179 1041 180 1023 q 176 1067 178 1059 q 171 1088 174 1076 q 163 1107 168 1101 q 151 1120 158 1112 q 134 1131 144 1128 q 112 1137 125 1134 q 83 1142 99 1141 q 47 1143 67 1143 l 47 1293 q 177 1285 125 1293 q 269 1257 229 1277 q 331 1200 309 1237 q 364 1110 353 1164 q 375 976 375 1056 q 374 942 375 970 q 374 896 374 913 q 376 849 374 878 q 384 800 378 819 q 399 762 390 781 q 425 732 408 742 q 463 722 441 722 l 463 528 q 429 524 444 528 q 405 514 414 520 q 389 497 395 509 q 379 476 382 486 q 375 450 376 467 q 374 423 374 433 q 375 392 374 412 q 375 361 375 371 q 368 222 375 280 q 339 111 360 163 q 281 26 317 58 q 187 -25 245 -6 q 47 -43 128 -43 z "},"~":{"ha":697,"x_min":94,"x_max":595,"o":"m 94 571 q 110 673 94 628 q 162 748 125 718 q 253 778 199 778 q 322 763 284 778 q 394 734 361 749 q 446 719 427 719 q 471 766 471 719 l 594 766 q 579 664 595 709 q 526 588 563 618 q 435 557 489 557 q 363 572 404 557 q 290 602 323 587 q 241 617 256 617 q 218 571 218 617 l 94 571 z "}," ":{"ha":278,"x_min":0,"x_max":0,"o":"z "},"¡":{"ha":355,"x_min":64,"x_max":297,"o":"m 297 885 l 297 669 l 78 669 l 78 885 l 297 885 m 227 571 l 297 -336 l 64 -336 l 148 571 l 227 571 z "},"¢":{"ha":654,"x_min":59,"x_max":603,"o":"m 303 -178 l 303 22 q 130 99 200 31 q 59 271 59 168 l 59 572 q 119 783 59 706 q 303 869 179 861 l 303 1063 l 364 1063 l 364 869 q 544 782 486 859 q 603 572 603 705 l 603 534 l 378 534 l 378 585 q 370 662 379 636 q 331 687 361 687 q 288 620 288 687 l 288 275 q 331 201 288 201 q 369 221 359 201 q 379 286 379 241 q 379 295 379 289 q 378 317 378 301 q 378 357 378 334 l 603 357 l 603 271 q 534 101 603 169 q 364 22 465 33 l 364 -178 l 303 -178 z "},"£":{"ha":771,"x_min":57,"x_max":705,"o":"m 57 0 l 57 126 l 139 166 l 139 492 l 57 492 l 57 667 l 139 667 l 139 818 q 141 905 139 865 q 152 989 144 944 q 173 1069 159 1034 q 208 1139 186 1105 q 261 1195 231 1173 q 336 1230 292 1217 q 435 1244 380 1244 q 527 1233 486 1244 q 596 1203 568 1221 q 645 1157 625 1185 q 676 1100 665 1128 q 694 1032 688 1072 q 703 960 701 993 q 705 885 705 928 l 483 885 q 435 1053 483 1053 q 387 817 387 1053 l 387 667 l 553 667 l 553 492 l 387 492 l 387 193 l 698 193 l 698 0 l 57 0 z "},"¤":{"ha":715,"x_min":81,"x_max":633,"o":"m 227 608 q 262 506 227 549 q 357 463 298 463 q 454 505 421 463 q 488 608 488 548 q 455 710 488 668 q 357 753 422 753 q 260 711 293 753 q 227 608 227 669 m 81 393 l 140 451 q 97 608 97 517 q 140 764 97 699 l 81 823 l 142 884 l 201 825 q 357 868 265 868 q 514 825 450 868 l 572 884 l 633 823 l 574 764 q 618 608 618 698 q 574 451 618 518 l 633 393 l 572 332 l 514 390 q 357 347 450 347 q 201 390 265 347 l 142 332 l 81 393 z "},"¥":{"ha":743,"x_min":35,"x_max":696,"o":"m 269 0 l 269 176 l 137 176 l 137 311 l 269 311 l 269 380 l 137 380 l 137 513 l 236 513 q 137 876 204 629 q 35 1250 69 1122 l 235 1250 l 366 639 l 497 1250 l 696 1250 l 494 513 l 595 513 l 595 380 l 464 380 l 464 311 l 595 311 l 595 176 l 464 176 l 464 0 l 269 0 z "},"¦":{"ha":299,"x_min":66,"x_max":225,"o":"m 66 610 l 66 1061 l 225 1061 l 225 610 l 66 610 m 66 -10 l 66 441 l 225 441 l 225 -10 l 66 -10 z "},"§":{"ha":697,"x_min":68,"x_max":620,"o":"m 367 539 q 422 615 422 569 q 351 711 422 650 l 321 735 q 282 696 298 720 q 267 645 267 671 q 278 608 267 625 q 301 582 290 591 q 337 558 313 573 q 367 539 361 544 m 422 230 q 410 290 422 262 q 378 336 398 317 q 331 373 357 356 q 276 406 305 391 q 217 438 247 422 q 162 474 188 454 q 115 517 136 494 q 83 573 95 540 q 71 645 71 606 q 100 767 71 713 q 189 852 130 822 q 71 1020 71 928 q 92 1126 71 1080 q 151 1202 113 1173 q 237 1247 188 1232 q 345 1262 286 1262 q 524 1194 454 1262 q 620 1015 594 1125 l 471 965 q 345 1098 420 1098 q 287 1077 308 1098 q 267 1020 267 1057 q 281 977 267 996 q 311 948 295 958 q 355 925 327 939 q 393 905 382 911 q 475 849 439 876 q 546 785 511 821 q 598 705 580 749 q 617 615 617 662 q 516 418 617 483 q 617 230 617 331 q 541 50 617 113 q 345 -12 465 -12 q 166 56 235 -12 q 68 236 97 124 l 218 286 q 237 242 227 262 q 263 199 248 221 q 300 165 279 178 q 345 152 321 152 q 402 173 381 152 q 422 230 422 193 z "},"¨":{"ha":629,"x_min":79,"x_max":592,"o":"m 386 1012 l 386 1221 l 592 1221 l 592 1012 l 386 1012 m 79 1012 l 79 1221 l 284 1221 l 284 1012 l 79 1012 z "},"©":{"ha":1098,"x_min":56,"x_max":1028,"o":"m 542 -10 q 351 30 441 -10 q 196 138 260 71 q 94 298 132 206 q 56 490 56 390 q 94 682 56 590 q 196 842 132 774 q 351 950 260 910 q 542 991 441 991 q 788 922 676 991 q 964 739 901 854 q 1028 490 1028 624 q 964 242 1028 357 q 788 59 901 127 q 542 -10 676 -10 m 542 111 q 682 142 616 111 q 793 226 748 174 q 864 347 838 278 q 890 488 890 415 q 864 629 890 560 q 793 749 838 697 q 682 833 748 802 q 542 865 616 865 q 362 811 443 865 q 237 672 281 758 q 193 488 193 586 q 237 303 193 389 q 362 164 281 218 q 542 111 443 111 m 608 416 l 750 416 q 700 222 750 295 q 545 149 650 149 q 483 155 511 149 q 435 173 455 162 q 398 201 414 183 q 371 237 382 220 q 353 281 361 254 q 342 328 346 307 q 336 380 338 349 q 334 432 334 412 q 334 486 334 453 q 334 542 334 522 q 336 595 334 562 q 342 649 338 629 q 353 697 346 669 q 371 741 361 724 q 398 777 382 758 q 436 806 415 795 q 486 823 457 816 q 549 829 515 829 q 646 809 606 829 q 709 753 687 789 q 742 674 732 717 q 751 577 751 631 l 606 577 q 606 606 606 595 q 603 640 606 617 q 595 675 600 662 q 578 700 589 688 q 551 711 567 711 q 486 665 505 711 q 466 495 466 618 q 476 348 466 399 q 501 284 486 298 q 545 270 517 270 q 566 274 556 270 q 582 287 576 278 q 593 304 589 296 q 601 327 598 312 q 605 350 603 342 q 607 375 606 358 q 608 397 608 393 q 608 416 608 401 z "},"ª":{"ha":614,"x_min":105,"x_max":528,"o":"m 363 162 l 363 273 q 337 258 344 262 q 312 241 331 254 q 283 218 292 228 q 266 194 275 209 q 258 165 258 180 q 267 131 258 144 q 297 117 277 117 q 336 130 317 117 q 363 162 354 143 m 376 0 l 376 58 q 319 10 354 28 q 247 -7 284 -7 q 147 35 189 -7 q 105 134 105 77 q 122 205 105 173 q 158 256 138 237 q 218 295 177 275 q 280 322 259 315 q 349 345 301 330 q 363 349 359 348 l 363 408 q 321 492 363 492 q 269 389 269 492 l 127 389 q 180 547 129 484 q 323 611 231 611 q 417 593 378 611 q 476 544 456 574 q 508 469 496 513 q 521 380 519 426 q 522 280 522 334 q 518 179 521 227 q 517 83 515 132 q 528 0 519 34 l 376 0 z "},"«":{"ha":715,"x_min":54,"x_max":661,"o":"m 661 43 l 357 391 l 357 477 l 661 825 l 661 608 l 488 435 l 661 260 l 661 43 m 357 43 l 54 391 l 54 477 l 357 825 l 357 608 l 184 435 l 357 260 l 357 43 z "},"¬":{"ha":562,"x_min":92,"x_max":463,"o":"m 92 307 l 92 458 l 463 458 l 463 176 l 356 176 l 356 307 l 92 307 z "},"­":{"ha":545,"x_min":96,"x_max":463,"o":"m 96 294 l 96 467 l 463 467 l 463 294 l 96 294 z "},"®":{"ha":1098,"x_min":56,"x_max":1028,"o":"m 488 519 q 576 542 551 519 q 602 625 602 565 q 527 720 602 720 l 488 720 l 488 519 m 362 170 l 362 812 q 238 674 284 761 q 193 488 193 587 q 237 303 193 389 q 362 164 281 218 q 542 111 443 111 q 731 170 646 111 l 615 170 l 528 435 l 488 435 l 488 170 l 362 170 m 542 -10 q 351 30 441 -10 q 196 138 260 71 q 94 298 132 206 q 56 490 56 390 q 94 682 56 590 q 196 842 132 774 q 351 950 260 910 q 542 991 441 991 q 788 922 676 991 q 964 739 901 854 q 1028 490 1028 624 q 964 242 1028 357 q 788 59 901 127 q 542 -10 676 -10 m 747 182 q 852 316 814 235 q 890 488 890 397 q 864 629 890 560 q 793 749 838 697 q 682 833 748 802 q 542 865 616 865 q 377 821 454 865 l 536 821 q 731 623 731 821 q 646 463 731 514 q 665 391 652 431 q 688 323 677 351 q 719 248 699 296 q 747 182 739 201 z "},"¯":{"ha":291,"x_min":-24,"x_max":319,"o":"m -24 988 l -24 1119 l 319 1119 l 319 988 l -24 988 z "},"°":{"ha":743,"x_min":94,"x_max":640,"o":"m 366 851 q 456 891 424 851 q 488 989 488 930 q 456 1087 488 1048 q 366 1126 425 1126 q 276 1087 309 1126 q 244 989 244 1048 q 277 891 244 931 q 366 851 309 851 m 366 715 q 167 790 241 715 q 94 989 94 865 q 168 1188 94 1115 q 366 1262 241 1262 q 566 1188 492 1262 q 640 989 640 1114 q 566 790 640 864 q 366 715 492 715 z "},"±":{"ha":607,"x_min":93,"x_max":507,"o":"m 224 264 l 224 395 l 93 395 l 93 547 l 224 547 l 224 678 l 376 678 l 376 547 l 507 547 l 507 395 l 376 395 l 376 264 l 224 264 m 93 0 l 93 151 l 507 151 l 507 0 l 93 0 z "},"²":{"ha":472,"x_min":47,"x_max":418,"o":"m 418 844 q 403 777 418 814 q 359 699 387 739 q 307 626 332 658 q 250 555 282 593 q 208 503 218 516 l 418 503 l 418 395 l 47 395 l 47 496 q 93 550 49 497 q 170 648 136 604 q 235 750 203 692 q 267 844 267 809 q 267 853 267 846 q 267 865 267 861 q 267 876 267 868 q 266 887 267 883 q 263 898 264 891 q 259 908 262 904 q 253 915 256 911 q 244 921 250 919 q 233 922 239 922 q 222 920 227 922 q 213 914 216 918 q 207 906 210 910 q 203 894 204 901 q 200 882 201 887 q 199 869 199 877 q 199 857 199 861 q 199 845 199 852 q 199 835 199 837 l 47 835 q 96 977 47 924 q 233 1029 144 1029 q 369 980 320 1029 q 418 844 418 931 z "},"³":{"ha":562,"x_min":92,"x_max":463,"o":"m 92 634 l 243 634 q 243 624 243 633 q 243 612 243 616 q 243 600 243 608 q 244 587 243 591 q 247 574 245 582 q 251 563 249 567 q 257 555 254 559 q 266 549 261 551 q 277 547 271 547 q 297 553 290 547 q 308 573 305 560 q 311 595 311 587 q 312 618 312 604 q 312 625 312 623 q 293 687 312 671 q 224 703 273 703 l 224 810 q 293 826 274 810 q 312 888 312 842 q 312 895 312 890 q 311 918 312 909 q 308 940 311 927 q 297 960 305 954 q 277 967 290 967 q 266 965 271 967 q 257 959 261 963 q 251 950 254 954 q 247 939 249 946 q 244 926 245 931 q 243 913 243 922 q 243 900 243 904 q 243 888 243 897 q 243 879 243 880 l 92 879 q 140 1021 92 968 q 277 1074 188 1074 q 414 1024 365 1074 q 463 888 463 975 q 374 756 463 792 q 463 625 463 720 q 414 489 463 538 q 277 439 365 439 q 140 492 188 439 q 92 634 92 544 z "},"´":{"ha":433,"x_min":77,"x_max":403,"o":"m 77 945 l 169 1244 l 403 1244 l 215 945 l 77 945 z "},"¶":{"ha":692,"x_min":16,"x_max":640,"o":"m 267 0 l 267 602 q 86 667 157 604 q 16 836 16 729 q 38 948 16 901 q 101 1022 60 995 q 192 1061 142 1048 q 305 1074 243 1074 l 640 1074 l 640 0 l 498 0 l 498 602 l 421 602 l 421 0 l 267 0 z "},"·":{"ha":353,"x_min":67,"x_max":286,"o":"m 67 460 l 67 674 l 286 674 l 286 460 l 67 460 z "},"¸":{"ha":397,"x_min":90,"x_max":393,"o":"m 90 -380 l 90 -271 q 104 -272 92 -271 q 129 -272 117 -272 q 157 -272 140 -272 q 187 -269 174 -271 q 213 -264 201 -267 q 232 -256 225 -262 q 239 -243 239 -250 q 237 -230 239 -236 q 228 -217 234 -223 q 217 -207 222 -212 q 202 -196 212 -201 q 186 -188 193 -191 q 169 -180 180 -184 q 154 -174 158 -176 q 139 -168 149 -172 q 127 -164 129 -165 l 127 0 l 243 0 l 243 -87 q 393 -245 393 -158 q 381 -295 393 -273 q 350 -331 368 -317 q 302 -355 332 -345 q 249 -370 273 -365 q 190 -377 224 -374 q 136 -380 155 -380 q 90 -380 118 -380 z "},"¹":{"ha":381,"x_min":47,"x_max":286,"o":"m 134 439 l 134 835 l 47 835 l 47 939 q 227 1074 165 998 l 286 1074 l 286 439 l 134 439 z "},"º":{"ha":654,"x_min":77,"x_max":578,"o":"m 403 319 l 403 481 q 403 504 403 486 q 403 530 404 522 q 402 554 403 538 q 399 580 401 571 q 393 603 397 589 q 384 624 390 616 q 370 639 378 631 q 350 650 362 647 q 324 654 338 654 q 290 647 304 654 q 266 626 275 640 q 253 598 258 611 q 245 563 248 585 q 243 528 243 541 q 243 493 243 515 q 243 489 243 490 q 243 486 243 488 q 243 481 243 484 l 243 319 q 243 308 243 316 q 243 278 243 289 q 244 249 243 268 q 249 217 245 229 q 257 191 252 205 q 272 167 263 176 q 294 153 280 159 q 324 146 307 146 q 350 150 338 146 q 370 161 362 153 q 384 176 378 169 q 393 198 390 184 q 399 220 397 212 q 402 246 401 229 q 403 271 403 263 q 403 297 404 279 q 403 319 403 315 m 77 292 l 77 510 q 89 631 77 579 q 129 726 101 684 q 207 789 157 768 q 328 811 256 811 q 444 787 394 811 q 522 722 493 764 q 564 627 551 680 q 578 510 578 574 l 578 292 q 564 174 578 227 q 522 79 551 121 q 444 13 493 37 q 328 -10 395 -10 q 207 12 256 -10 q 129 75 157 33 q 89 170 101 117 q 77 292 77 222 z "},"»":{"ha":715,"x_min":54,"x_max":661,"o":"m 54 43 l 54 260 l 227 435 l 54 608 l 54 825 l 357 477 l 357 391 l 54 43 m 357 43 l 357 260 l 531 435 l 357 608 l 357 825 l 661 477 l 661 391 l 357 43 z "},"¼":{"ha":1149,"x_min":47,"x_max":1093,"o":"m 791 273 l 854 273 l 854 397 l 791 273 m 635 165 l 635 266 l 873 668 l 1005 668 l 1005 273 l 1093 273 l 1093 165 l 1005 165 l 1005 -10 l 854 -10 l 854 165 l 635 165 m 288 0 l 679 1244 l 801 1244 l 409 0 l 288 0 m 134 439 l 134 835 l 47 835 l 47 939 q 227 1074 165 998 l 286 1074 l 286 439 l 134 439 z "},"½":{"ha":1149,"x_min":47,"x_max":1095,"o":"m 1095 439 q 1080 371 1095 409 q 1036 293 1064 334 q 984 220 1008 252 q 927 149 959 188 q 885 98 895 111 l 1095 98 l 1095 -10 l 724 -10 l 724 90 q 769 145 726 92 q 847 242 813 198 q 912 345 880 286 q 944 439 944 404 q 944 448 944 440 q 944 459 944 456 q 944 470 944 463 q 942 481 943 477 q 940 492 941 486 q 936 502 939 498 q 930 510 933 506 q 921 515 926 513 q 910 517 916 517 q 899 515 904 517 q 890 509 893 513 q 884 500 886 505 q 880 489 881 496 q 877 476 878 481 q 876 463 876 471 q 876 451 876 455 q 876 439 876 447 q 876 429 876 431 l 724 429 q 772 571 724 519 q 910 624 821 624 q 1046 575 997 624 q 1095 439 1095 526 m 288 0 l 679 1244 l 801 1244 l 409 0 l 288 0 m 134 439 l 134 835 l 47 835 l 47 939 q 227 1074 165 998 l 286 1074 l 286 439 l 134 439 z "},"¾":{"ha":1285,"x_min":92,"x_max":1183,"o":"m 398 0 l 789 1244 l 911 1244 l 519 0 l 398 0 m 882 273 l 945 273 l 945 397 l 882 273 m 725 165 l 725 266 l 963 668 l 1095 668 l 1095 273 l 1183 273 l 1183 165 l 1095 165 l 1095 -10 l 945 -10 l 945 165 l 725 165 m 92 634 l 243 634 q 243 624 243 633 q 243 612 243 616 q 243 600 243 608 q 244 587 243 591 q 247 574 245 582 q 251 563 249 567 q 257 555 254 559 q 266 549 261 551 q 277 547 271 547 q 297 553 290 547 q 308 573 305 560 q 311 595 311 587 q 312 618 312 604 q 312 625 312 623 q 293 687 312 671 q 224 703 273 703 l 224 810 q 293 826 274 810 q 312 888 312 842 q 312 895 312 890 q 311 918 312 909 q 308 940 311 927 q 297 960 305 954 q 277 967 290 967 q 266 965 271 967 q 257 959 261 963 q 251 950 254 954 q 247 939 249 946 q 244 926 245 931 q 243 913 243 922 q 243 900 243 904 q 243 888 243 897 q 243 879 243 880 l 92 879 q 140 1021 92 968 q 277 1074 188 1074 q 414 1024 365 1074 q 463 888 463 975 q 374 756 463 792 q 463 625 463 720 q 414 489 463 538 q 277 439 365 439 q 140 492 188 439 q 92 634 92 544 z "},"¿":{"ha":802,"x_min":94,"x_max":704,"o":"m 559 885 l 559 665 l 333 665 l 333 885 l 559 885 m 559 559 l 559 296 q 474 228 515 266 q 399 143 434 189 q 343 42 363 97 q 322 -66 322 -12 q 344 -136 322 -113 q 408 -160 366 -160 q 465 -129 446 -160 q 484 -52 484 -98 q 471 32 484 -10 l 684 73 q 704 -70 704 -3 q 630 -280 704 -200 q 408 -359 556 -359 q 176 -280 258 -359 q 94 -52 94 -200 q 157 192 94 79 q 333 370 220 304 l 333 559 l 559 559 z "},"À":{"ha":770,"x_min":6,"x_max":751,"o":"m 315 413 l 441 413 l 380 866 l 315 413 m 6 0 l 270 1221 l 488 1221 l 751 0 l 508 0 l 458 261 l 298 261 l 251 0 l 6 0 m 315 1314 l 127 1613 l 362 1613 l 454 1314 l 315 1314 z "},"Á":{"ha":770,"x_min":6,"x_max":751,"o":"m 315 413 l 441 413 l 380 866 l 315 413 m 6 0 l 270 1221 l 488 1221 l 751 0 l 508 0 l 458 261 l 298 261 l 251 0 l 6 0 m 315 1314 l 408 1613 l 642 1613 l 454 1314 l 315 1314 z "},"Â":{"ha":770,"x_min":6,"x_max":751,"o":"m 315 413 l 441 413 l 380 866 l 315 413 m 6 0 l 270 1221 l 488 1221 l 751 0 l 508 0 l 458 261 l 298 261 l 251 0 l 6 0 m 149 1314 l 285 1589 l 481 1589 l 621 1314 l 435 1314 l 384 1451 l 334 1314 l 149 1314 z "},"Ã":{"ha":770,"x_min":6,"x_max":751,"o":"m 315 413 l 441 413 l 380 866 l 315 413 m 6 0 l 270 1221 l 488 1221 l 751 0 l 508 0 l 458 261 l 298 261 l 251 0 l 6 0 m 269 1321 l 155 1321 q 158 1382 155 1356 q 168 1436 160 1409 q 190 1482 176 1464 q 226 1512 203 1501 q 281 1524 249 1524 q 400 1504 330 1524 q 485 1485 469 1485 q 502 1490 496 1485 q 508 1500 507 1495 q 509 1516 509 1505 l 614 1516 q 508 1314 614 1314 q 404 1338 474 1314 q 302 1363 334 1363 q 285 1360 292 1363 q 275 1354 278 1357 q 270 1343 272 1352 q 269 1333 269 1335 q 269 1321 269 1331 z "},"Ä":{"ha":770,"x_min":6,"x_max":751,"o":"m 315 413 l 441 413 l 380 866 l 315 413 m 6 0 l 270 1221 l 488 1221 l 751 0 l 508 0 l 458 261 l 298 261 l 251 0 l 6 0 m 435 1314 l 435 1522 l 642 1522 l 642 1314 l 435 1314 m 128 1314 l 128 1522 l 334 1522 l 334 1314 l 128 1314 z "},"Å":{"ha":770,"x_min":6,"x_max":751,"o":"m 315 413 l 441 413 l 380 866 l 315 413 m 6 0 l 270 1221 l 488 1221 l 751 0 l 508 0 l 458 261 l 298 261 l 251 0 l 6 0 m 276 1298 q 251 1320 276 1298 q 227 1416 227 1342 q 276 1534 227 1490 q 399 1578 324 1578 q 522 1534 473 1578 q 570 1416 570 1490 q 522 1298 570 1342 q 399 1254 473 1254 q 276 1298 324 1254 m 399 1336 q 438 1361 425 1336 q 452 1415 452 1386 q 438 1470 452 1444 q 399 1496 425 1496 q 358 1471 372 1496 q 344 1417 344 1446 q 357 1361 344 1386 q 399 1336 371 1336 z "},"Æ":{"ha":1091,"x_min":30,"x_max":1070,"o":"m 436 413 l 579 413 l 579 802 l 436 413 m 30 0 l 554 1221 l 1070 1221 l 1070 1051 l 808 1051 l 808 719 l 994 719 l 994 545 l 808 545 l 808 170 l 1070 170 l 1070 0 l 579 0 l 579 261 l 387 261 l 290 0 l 30 0 z "},"Ç":{"ha":796,"x_min":57,"x_max":753,"o":"m 57 408 l 57 812 q 411 1244 57 1244 q 544 1224 486 1244 q 641 1169 602 1204 q 706 1082 680 1134 q 742 970 731 1031 q 753 838 753 910 l 753 732 l 511 732 l 511 845 q 509 902 511 878 q 502 957 508 926 q 487 1007 496 988 q 457 1040 477 1027 q 411 1054 438 1054 q 304 873 304 1054 l 304 347 q 411 167 304 167 q 465 185 443 167 q 496 237 486 203 q 509 303 505 271 q 512 376 512 335 l 512 502 l 753 502 l 753 399 q 742 270 752 329 q 707 155 732 211 q 645 61 683 100 q 548 0 608 23 q 411 -24 488 -24 q 270 -1 332 -24 q 169 60 209 22 q 104 154 130 98 q 67 272 78 210 q 57 408 57 334 m 309 -391 l 309 -282 q 324 -282 311 -282 q 348 -283 336 -283 q 377 -282 360 -283 q 407 -280 393 -282 q 433 -275 420 -278 q 452 -267 445 -273 q 459 -254 459 -261 q 456 -240 459 -247 q 448 -228 454 -234 q 437 -217 442 -222 q 422 -207 431 -212 q 406 -199 412 -202 q 389 -191 400 -195 q 373 -184 378 -186 q 359 -179 369 -182 q 347 -175 349 -176 l 347 -11 l 463 -11 l 463 -98 q 613 -256 613 -169 q 601 -306 613 -284 q 570 -342 588 -328 q 522 -366 551 -356 q 468 -380 492 -376 q 409 -388 444 -385 q 356 -391 374 -391 q 309 -391 338 -391 z "},"È":{"ha":603,"x_min":70,"x_max":582,"o":"m 73 0 l 73 1221 l 582 1221 l 582 1051 l 319 1051 l 319 719 l 505 719 l 505 545 l 319 545 l 319 170 l 582 170 l 582 0 l 73 0 m 258 1314 l 70 1613 l 304 1613 l 397 1314 l 258 1314 z "},"É":{"ha":603,"x_min":73,"x_max":585,"o":"m 73 0 l 73 1221 l 582 1221 l 582 1051 l 319 1051 l 319 719 l 505 719 l 505 545 l 319 545 l 319 170 l 582 170 l 582 0 l 73 0 m 258 1314 l 351 1613 l 585 1613 l 397 1314 l 258 1314 z "},"Ê":{"ha":603,"x_min":73,"x_max":582,"o":"m 73 0 l 73 1221 l 582 1221 l 582 1051 l 319 1051 l 319 719 l 505 719 l 505 545 l 319 545 l 319 170 l 582 170 l 582 0 l 73 0 m 91 1314 l 227 1589 l 424 1589 l 564 1314 l 377 1314 l 326 1451 l 277 1314 l 91 1314 z "},"Ë":{"ha":603,"x_min":71,"x_max":584,"o":"m 73 0 l 73 1221 l 582 1221 l 582 1051 l 319 1051 l 319 719 l 505 719 l 505 545 l 319 545 l 319 170 l 582 170 l 582 0 l 73 0 m 378 1314 l 378 1522 l 584 1522 l 584 1314 l 378 1314 m 71 1314 l 71 1522 l 276 1522 l 276 1314 l 71 1314 z "},"Ì":{"ha":392,"x_min":-61,"x_max":319,"o":"m 73 0 l 73 1221 l 319 1221 l 319 0 l 73 0 m 127 1314 l -61 1613 l 174 1613 l 266 1314 l 127 1314 z "},"Í":{"ha":392,"x_min":73,"x_max":453,"o":"m 73 0 l 73 1221 l 319 1221 l 319 0 l 73 0 m 127 1314 l 219 1613 l 453 1613 l 265 1314 l 127 1314 z "},"Î":{"ha":392,"x_min":-40,"x_max":433,"o":"m 73 0 l 73 1221 l 319 1221 l 319 0 l 73 0 m -40 1314 l 96 1589 l 293 1589 l 433 1314 l 246 1314 l 195 1451 l 146 1314 l -40 1314 z "},"Ï":{"ha":392,"x_min":-61,"x_max":452,"o":"m 73 0 l 73 1221 l 319 1221 l 319 0 l 73 0 m 246 1314 l 246 1522 l 452 1522 l 452 1314 l 246 1314 m -61 1314 l -61 1522 l 144 1522 l 144 1314 l -61 1314 z "},"Ð":{"ha":784,"x_min":3,"x_max":726,"o":"m 313 173 l 323 173 q 377 174 357 173 q 417 180 397 176 q 447 191 437 184 q 465 212 457 198 q 476 243 473 225 q 479 290 479 262 l 479 947 q 443 1027 479 1008 q 320 1047 406 1046 l 313 1047 l 313 686 l 397 686 l 397 562 l 313 562 l 313 173 m 66 0 l 66 562 l 3 562 l 3 686 l 66 686 l 66 1221 l 321 1221 q 522 1199 443 1221 q 646 1126 601 1177 q 708 1005 691 1076 q 726 825 726 935 l 726 425 q 722 312 726 360 q 706 217 718 263 q 676 138 695 170 q 626 78 656 106 q 552 34 595 50 q 451 9 509 18 q 318 0 393 0 l 66 0 z "},"Ñ":{"ha":795,"x_min":73,"x_max":723,"o":"m 73 0 l 73 1221 l 250 1221 l 518 583 l 518 1221 l 723 1221 l 723 0 l 552 0 l 285 677 l 285 0 l 73 0 m 282 1321 l 169 1321 q 171 1382 169 1356 q 182 1436 174 1409 q 203 1482 190 1464 q 239 1512 216 1501 q 294 1524 262 1524 q 413 1504 344 1524 q 498 1485 483 1485 q 515 1490 509 1485 q 522 1500 521 1495 q 522 1516 522 1505 l 627 1516 q 522 1314 627 1314 q 417 1338 488 1314 q 315 1363 347 1363 q 298 1360 305 1363 q 289 1354 292 1357 q 284 1343 286 1352 q 282 1333 282 1335 q 282 1321 282 1331 z "},"Ò":{"ha":828,"x_min":57,"x_max":771,"o":"m 57 401 l 57 812 q 414 1244 57 1244 q 771 812 771 1244 l 771 408 q 760 272 771 334 q 723 155 749 210 q 657 60 697 99 q 555 -1 616 21 q 414 -24 493 -24 q 273 -2 335 -24 q 172 58 212 20 q 105 150 132 96 q 68 267 79 205 q 57 401 57 328 m 524 346 l 524 873 q 414 1054 524 1054 q 357 1037 380 1054 q 323 992 334 1021 q 308 935 313 963 q 304 873 304 907 l 304 346 q 414 166 304 166 q 524 346 524 166 m 345 1314 l 157 1613 l 391 1613 l 484 1314 l 345 1314 z "},"Ó":{"ha":828,"x_min":57,"x_max":771,"o":"m 57 401 l 57 812 q 414 1244 57 1244 q 771 812 771 1244 l 771 408 q 760 272 771 334 q 723 155 749 210 q 657 60 697 99 q 555 -1 616 21 q 414 -24 493 -24 q 273 -2 335 -24 q 172 58 212 20 q 105 150 132 96 q 68 267 79 205 q 57 401 57 328 m 524 346 l 524 873 q 414 1054 524 1054 q 357 1037 380 1054 q 323 992 334 1021 q 308 935 313 963 q 304 873 304 907 l 304 346 q 414 166 304 166 q 524 346 524 166 m 345 1314 l 437 1613 l 671 1613 l 484 1314 l 345 1314 z "},"Ô":{"ha":828,"x_min":57,"x_max":771,"o":"m 57 401 l 57 812 q 414 1244 57 1244 q 771 812 771 1244 l 771 408 q 760 272 771 334 q 723 155 749 210 q 657 60 697 99 q 555 -1 616 21 q 414 -24 493 -24 q 273 -2 335 -24 q 172 58 212 20 q 105 150 132 96 q 68 267 79 205 q 57 401 57 328 m 524 346 l 524 873 q 414 1054 524 1054 q 357 1037 380 1054 q 323 992 334 1021 q 308 935 313 963 q 304 873 304 907 l 304 346 q 414 166 304 166 q 524 346 524 166 m 178 1314 l 314 1589 l 511 1589 l 650 1314 l 464 1314 l 413 1451 l 363 1314 l 178 1314 z "},"Õ":{"ha":828,"x_min":57,"x_max":771,"o":"m 57 401 l 57 812 q 414 1244 57 1244 q 771 812 771 1244 l 771 408 q 760 272 771 334 q 723 155 749 210 q 657 60 697 99 q 555 -1 616 21 q 414 -24 493 -24 q 273 -2 335 -24 q 172 58 212 20 q 105 150 132 96 q 68 267 79 205 q 57 401 57 328 m 524 346 l 524 873 q 414 1054 524 1054 q 357 1037 380 1054 q 323 992 334 1021 q 308 935 313 963 q 304 873 304 907 l 304 346 q 414 166 304 166 q 524 346 524 166 m 298 1321 l 185 1321 q 188 1382 185 1356 q 198 1436 190 1409 q 219 1482 206 1464 q 256 1512 233 1501 q 311 1524 279 1524 q 430 1504 360 1524 q 515 1485 499 1485 q 531 1490 526 1485 q 538 1500 537 1495 q 538 1516 538 1505 l 644 1516 q 538 1314 644 1314 q 434 1338 504 1314 q 332 1363 363 1363 q 315 1360 321 1363 q 305 1354 308 1357 q 300 1343 302 1352 q 298 1333 298 1335 q 298 1321 298 1331 z "},"Ö":{"ha":828,"x_min":57,"x_max":771,"o":"m 57 401 l 57 812 q 414 1244 57 1244 q 771 812 771 1244 l 771 408 q 760 272 771 334 q 723 155 749 210 q 657 60 697 99 q 555 -1 616 21 q 414 -24 493 -24 q 273 -2 335 -24 q 172 58 212 20 q 105 150 132 96 q 68 267 79 205 q 57 401 57 328 m 524 346 l 524 873 q 414 1054 524 1054 q 357 1037 380 1054 q 323 992 334 1021 q 308 935 313 963 q 304 873 304 907 l 304 346 q 414 166 304 166 q 524 346 524 166 m 465 1314 l 465 1522 l 671 1522 l 671 1314 l 465 1314 m 157 1314 l 157 1522 l 363 1522 l 363 1314 l 157 1314 z "},"×":{"ha":562,"x_min":44,"x_max":511,"o":"m 44 317 l 176 449 l 44 581 l 146 683 l 277 551 l 410 683 l 511 581 l 379 449 q 511 317 467 360 l 410 216 l 277 348 l 146 216 l 44 317 z "},"Ø":{"ha":828,"x_min":57,"x_max":771,"o":"m 524 340 l 524 873 q 519 935 524 907 q 504 992 515 963 q 470 1037 493 1021 q 414 1054 447 1054 q 357 1037 380 1054 q 323 992 334 1021 q 308 935 313 963 q 304 873 304 907 l 304 340 q 414 160 304 160 q 524 340 524 160 m 175 -170 l 227 18 q 57 401 57 113 l 57 812 q 414 1244 57 1244 q 557 1221 494 1244 l 607 1402 l 673 1388 l 618 1192 q 771 812 771 1092 l 771 408 q 760 272 771 334 q 723 155 749 210 q 657 60 697 99 q 555 -1 616 21 q 414 -24 493 -24 q 288 -7 345 -24 l 240 -183 l 175 -170 z "},"Ù":{"ha":846,"x_min":67,"x_max":779,"o":"m 67 454 l 67 1221 l 314 1221 l 314 461 q 315 367 314 396 q 318 295 315 337 q 328 235 321 252 q 346 199 334 218 q 377 173 358 179 q 423 167 396 167 q 469 173 450 167 q 500 198 488 179 q 519 235 512 218 q 528 293 526 252 q 532 364 531 335 q 532 457 532 393 q 532 461 532 460 l 532 1221 l 779 1221 l 779 454 q 776 348 779 395 q 763 250 772 300 q 737 160 753 199 q 694 85 721 121 q 630 26 667 50 q 541 -10 593 3 q 423 -24 488 -24 q 306 -10 358 -24 q 217 26 254 3 q 153 85 180 50 q 110 160 126 121 q 84 250 94 199 q 71 348 74 300 q 67 454 67 395 m 353 1314 l 165 1613 l 400 1613 l 492 1314 l 353 1314 z "},"Ú":{"ha":846,"x_min":67,"x_max":779,"o":"m 67 454 l 67 1221 l 314 1221 l 314 461 q 315 367 314 396 q 318 295 315 337 q 328 235 321 252 q 346 199 334 218 q 377 173 358 179 q 423 167 396 167 q 469 173 450 167 q 500 198 488 179 q 519 235 512 218 q 528 293 526 252 q 532 364 531 335 q 532 457 532 393 q 532 461 532 460 l 532 1221 l 779 1221 l 779 454 q 776 348 779 395 q 763 250 772 300 q 737 160 753 199 q 694 85 721 121 q 630 26 667 50 q 541 -10 593 3 q 423 -24 488 -24 q 306 -10 358 -24 q 217 26 254 3 q 153 85 180 50 q 110 160 126 121 q 84 250 94 199 q 71 348 74 300 q 67 454 67 395 m 354 1314 l 446 1613 l 680 1613 l 492 1314 l 354 1314 z "},"Û":{"ha":846,"x_min":67,"x_max":779,"o":"m 67 454 l 67 1221 l 314 1221 l 314 461 q 315 367 314 396 q 318 295 315 337 q 328 235 321 252 q 346 199 334 218 q 377 173 358 179 q 423 167 396 167 q 469 173 450 167 q 500 198 488 179 q 519 235 512 218 q 528 293 526 252 q 532 364 531 335 q 532 457 532 393 q 532 461 532 460 l 532 1221 l 779 1221 l 779 454 q 776 348 779 395 q 763 250 772 300 q 737 160 753 199 q 694 85 721 121 q 630 26 667 50 q 541 -10 593 3 q 423 -24 488 -24 q 306 -10 358 -24 q 217 26 254 3 q 153 85 180 50 q 110 160 126 121 q 84 250 94 199 q 71 348 74 300 q 67 454 67 395 m 186 1314 l 323 1589 l 519 1589 l 659 1314 l 473 1314 l 422 1451 l 372 1314 l 186 1314 z "},"Ü":{"ha":846,"x_min":67,"x_max":779,"o":"m 67 454 l 67 1221 l 314 1221 l 314 461 q 315 367 314 396 q 318 295 315 337 q 328 235 321 252 q 346 199 334 218 q 377 173 358 179 q 423 167 396 167 q 469 173 450 167 q 500 198 488 179 q 519 235 512 218 q 528 293 526 252 q 532 364 531 335 q 532 457 532 393 q 532 461 532 460 l 532 1221 l 779 1221 l 779 454 q 776 348 779 395 q 763 250 772 300 q 737 160 753 199 q 694 85 721 121 q 630 26 667 50 q 541 -10 593 3 q 423 -24 488 -24 q 306 -10 358 -24 q 217 26 254 3 q 153 85 180 50 q 110 160 126 121 q 84 250 94 199 q 71 348 74 300 q 67 454 67 395 m 474 1314 l 474 1522 l 680 1522 l 680 1314 l 474 1314 m 167 1314 l 167 1522 l 372 1522 l 372 1314 l 167 1314 z "},"Ý":{"ha":702,"x_min":-1,"x_max":697,"o":"m 229 0 l 229 404 l -1 1221 l 232 1221 l 346 684 q 409 952 367 772 q 471 1221 451 1133 l 697 1221 l 467 404 l 467 0 l 229 0 m 281 1314 l 374 1613 l 608 1613 l 420 1314 l 281 1314 z "},"Þ":{"ha":692,"x_min":66,"x_max":665,"o":"m 326 536 q 355 538 342 536 q 378 544 368 539 q 395 552 388 548 q 409 564 403 555 q 418 579 414 573 q 425 599 422 585 q 429 621 427 612 q 431 648 430 629 q 431 677 431 666 q 431 711 431 688 q 431 720 431 717 q 431 754 431 743 q 430 786 431 766 q 426 815 429 805 q 418 838 422 825 q 405 859 413 852 q 387 872 397 865 q 360 882 376 880 q 326 885 345 885 l 326 536 m 66 0 l 66 1221 l 326 1221 l 326 1061 l 361 1061 q 593 972 520 1061 q 665 715 665 883 q 650 573 665 633 q 606 472 634 512 q 535 408 578 433 q 440 374 491 384 q 322 362 389 363 l 322 0 l 66 0 z "},"ß":{"ha":809,"x_min":67,"x_max":761,"o":"m 67 0 l 67 921 q 79 1021 67 974 q 115 1109 90 1068 q 176 1180 140 1150 q 264 1227 212 1210 q 380 1244 316 1244 q 613 1158 534 1244 q 692 915 692 1072 q 519 663 692 728 q 610 624 569 649 q 679 567 651 599 q 725 496 706 535 q 752 418 744 458 q 761 336 761 378 q 662 65 761 153 q 358 -24 563 -24 l 358 146 q 441 158 409 146 q 490 200 473 171 q 513 266 507 229 q 519 363 519 303 q 478 501 519 450 q 359 553 437 552 l 359 724 q 411 742 389 724 q 445 790 433 760 q 462 850 456 819 q 467 915 467 882 q 467 952 467 937 q 464 989 466 968 q 457 1023 462 1009 q 444 1049 452 1036 q 424 1068 436 1062 q 394 1075 411 1075 q 362 1069 376 1075 q 339 1050 348 1063 q 326 1026 331 1038 q 319 993 321 1013 q 316 960 317 973 q 315 924 315 946 l 315 0 l 67 0 z "},"à":{"ha":662,"x_min":39,"x_max":629,"o":"m 374 200 l 374 418 q 262 218 262 327 q 272 172 262 191 q 308 153 283 153 q 336 162 322 153 q 356 178 350 171 q 374 200 362 184 m 420 0 l 398 92 q 334 5 378 30 q 222 -20 289 -20 q 137 -1 174 -20 q 80 51 100 18 q 49 120 59 83 q 39 197 39 157 q 49 283 39 243 q 73 352 58 322 q 114 410 87 382 q 164 457 140 438 q 228 497 189 477 q 297 532 267 518 q 374 565 328 546 l 374 640 q 362 709 374 686 q 323 732 351 732 q 292 725 304 732 q 275 701 280 717 q 269 673 271 686 q 268 640 268 661 l 268 589 l 46 589 q 123 824 46 742 q 345 905 199 905 q 524 831 447 905 q 600 656 600 758 l 600 235 q 629 0 600 126 l 420 0 m 265 975 l 77 1274 l 312 1274 l 404 975 l 265 975 z "},"á":{"ha":662,"x_min":39,"x_max":629,"o":"m 374 200 l 374 418 q 262 218 262 327 q 272 172 262 191 q 308 153 283 153 q 336 162 322 153 q 356 178 350 171 q 374 200 362 184 m 420 0 l 398 92 q 334 5 378 30 q 222 -20 289 -20 q 137 -1 174 -20 q 80 51 100 18 q 49 120 59 83 q 39 197 39 157 q 49 283 39 243 q 73 352 58 322 q 114 410 87 382 q 164 457 140 438 q 228 497 189 477 q 297 532 267 518 q 374 565 328 546 l 374 640 q 362 709 374 686 q 323 732 351 732 q 292 725 304 732 q 275 701 280 717 q 269 673 271 686 q 268 640 268 661 l 268 589 l 46 589 q 123 824 46 742 q 345 905 199 905 q 524 831 447 905 q 600 656 600 758 l 600 235 q 629 0 600 126 l 420 0 m 265 975 l 357 1274 l 591 1274 l 404 975 l 265 975 z "},"â":{"ha":662,"x_min":39,"x_max":629,"o":"m 374 200 l 374 418 q 262 218 262 327 q 272 172 262 191 q 308 153 283 153 q 336 162 322 153 q 356 178 350 171 q 374 200 362 184 m 420 0 l 398 92 q 334 5 378 30 q 222 -20 289 -20 q 137 -1 174 -20 q 80 51 100 18 q 49 120 59 83 q 39 197 39 157 q 49 283 39 243 q 73 352 58 322 q 114 410 87 382 q 164 457 140 438 q 228 497 189 477 q 297 532 267 518 q 374 565 328 546 l 374 640 q 362 709 374 686 q 323 732 351 732 q 292 725 304 732 q 275 701 280 717 q 269 673 271 686 q 268 640 268 661 l 268 589 l 46 589 q 123 824 46 742 q 345 905 199 905 q 524 831 447 905 q 600 656 600 758 l 600 235 q 629 0 600 126 l 420 0 m 98 975 l 235 1250 l 431 1250 l 571 975 l 385 975 l 334 1112 l 284 975 l 98 975 z "},"ã":{"ha":662,"x_min":39,"x_max":629,"o":"m 374 200 l 374 418 q 262 218 262 327 q 272 172 262 191 q 308 153 283 153 q 336 162 322 153 q 356 178 350 171 q 374 200 362 184 m 420 0 l 398 92 q 334 5 378 30 q 222 -20 289 -20 q 137 -1 174 -20 q 80 51 100 18 q 49 120 59 83 q 39 197 39 157 q 49 283 39 243 q 73 352 58 322 q 114 410 87 382 q 164 457 140 438 q 228 497 189 477 q 297 532 267 518 q 374 565 328 546 l 374 640 q 362 709 374 686 q 323 732 351 732 q 292 725 304 732 q 275 701 280 717 q 269 673 271 686 q 268 640 268 661 l 268 589 l 46 589 q 123 824 46 742 q 345 905 199 905 q 524 831 447 905 q 600 656 600 758 l 600 235 q 629 0 600 126 l 420 0 m 218 982 l 105 982 q 107 1043 105 1017 q 118 1097 110 1069 q 139 1143 126 1125 q 176 1173 153 1162 q 231 1185 199 1185 q 350 1165 280 1185 q 435 1145 419 1145 q 451 1151 446 1145 q 458 1161 457 1156 q 458 1177 458 1166 l 564 1177 q 458 975 564 975 q 354 999 424 975 q 252 1024 283 1024 q 235 1021 241 1024 q 225 1015 228 1018 q 220 1004 222 1013 q 218 994 218 996 q 218 982 218 992 z "},"ä":{"ha":662,"x_min":39,"x_max":629,"o":"m 374 200 l 374 418 q 262 218 262 327 q 272 172 262 191 q 308 153 283 153 q 336 162 322 153 q 356 178 350 171 q 374 200 362 184 m 420 0 l 398 92 q 334 5 378 30 q 222 -20 289 -20 q 137 -1 174 -20 q 80 51 100 18 q 49 120 59 83 q 39 197 39 157 q 49 283 39 243 q 73 352 58 322 q 114 410 87 382 q 164 457 140 438 q 228 497 189 477 q 297 532 267 518 q 374 565 328 546 l 374 640 q 362 709 374 686 q 323 732 351 732 q 292 725 304 732 q 275 701 280 717 q 269 673 271 686 q 268 640 268 661 l 268 589 l 46 589 q 123 824 46 742 q 345 905 199 905 q 524 831 447 905 q 600 656 600 758 l 600 235 q 629 0 600 126 l 420 0 m 385 975 l 385 1183 l 591 1183 l 591 975 l 385 975 m 77 975 l 77 1183 l 283 1183 l 283 975 l 77 975 z "},"å":{"ha":662,"x_min":39,"x_max":629,"o":"m 374 200 l 374 418 q 262 218 262 327 q 272 172 262 191 q 308 153 283 153 q 336 162 322 153 q 356 178 350 171 q 374 200 362 184 m 420 0 l 398 92 q 334 5 378 30 q 222 -20 289 -20 q 137 -1 174 -20 q 80 51 100 18 q 49 120 59 83 q 39 197 39 157 q 49 283 39 243 q 73 352 58 322 q 114 410 87 382 q 164 457 140 438 q 228 497 189 477 q 297 532 267 518 q 374 565 328 546 l 374 640 q 362 709 374 686 q 323 732 351 732 q 292 725 304 732 q 275 701 280 717 q 269 673 271 686 q 268 640 268 661 l 268 589 l 46 589 q 123 824 46 742 q 345 905 199 905 q 524 831 447 905 q 600 656 600 758 l 600 235 q 629 0 600 126 l 420 0 m 211 1019 q 187 1041 211 1019 q 163 1137 163 1063 q 211 1255 163 1211 q 334 1299 260 1299 q 457 1255 409 1299 q 506 1137 506 1211 q 457 1019 506 1063 q 334 975 409 975 q 211 1019 260 975 m 334 1057 q 374 1082 361 1057 q 387 1136 387 1107 q 374 1191 387 1165 q 334 1217 361 1217 q 293 1192 307 1217 q 279 1137 279 1166 q 293 1082 279 1107 q 334 1057 307 1057 z "},"æ":{"ha":968,"x_min":43,"x_max":928,"o":"m 606 654 l 606 545 q 621 549 612 547 q 653 560 630 551 q 694 581 677 569 q 727 612 712 592 q 741 656 741 633 q 722 709 741 688 q 663 731 703 731 q 623 705 639 731 q 606 654 606 679 m 394 286 l 390 397 q 314 362 345 382 q 271 322 284 343 q 253 282 257 300 q 248 240 248 264 q 264 179 248 206 q 311 153 281 153 q 373 191 353 153 q 394 286 394 230 m 271 589 l 50 589 q 123 822 50 737 q 330 906 197 906 q 339 906 332 906 q 349 905 346 905 q 425 885 386 904 q 487 836 463 865 q 565 886 517 867 q 663 905 613 905 q 769 884 719 905 q 854 829 820 863 q 908 756 888 796 q 928 677 928 715 q 915 608 928 640 q 886 556 902 577 q 837 516 869 534 q 785 488 805 497 q 724 468 764 478 q 671 455 684 458 q 621 447 658 453 q 613 445 616 446 q 606 444 610 445 l 606 235 q 650 160 606 160 q 697 260 697 160 q 696 300 697 276 q 695 330 695 323 l 922 330 l 922 230 q 852 53 922 119 q 670 -20 782 -14 q 550 14 608 -20 q 477 98 492 47 q 386 12 447 44 q 265 -20 325 -20 q 156 3 205 -20 q 75 77 106 26 q 43 197 43 127 q 52 281 43 243 q 75 346 61 318 q 115 396 89 373 q 164 433 140 418 q 228 463 189 448 q 298 486 267 477 q 377 506 329 494 l 377 597 q 318 726 377 726 q 269 644 269 726 q 270 615 269 633 q 271 589 271 596 z "},"ç":{"ha":629,"x_min":53,"x_max":597,"o":"m 53 227 l 53 606 q 120 826 53 747 q 325 905 187 905 q 530 827 463 905 q 597 606 597 748 l 597 529 l 372 529 l 372 630 q 363 708 372 683 q 325 732 354 732 q 281 665 281 732 l 281 227 q 325 153 281 153 q 351 159 341 153 q 365 182 361 166 q 371 216 370 199 q 372 264 372 233 l 372 359 l 597 359 l 597 227 q 559 96 597 153 q 459 9 521 39 q 325 -20 397 -20 q 133 48 213 -20 q 53 227 53 117 m 229 -387 l 229 -278 q 244 -278 231 -278 q 268 -279 256 -279 q 297 -278 280 -279 q 327 -276 313 -278 q 353 -271 340 -274 q 372 -263 365 -269 q 379 -250 379 -257 q 376 -236 379 -243 q 368 -224 374 -230 q 357 -213 362 -218 q 342 -203 351 -208 q 326 -195 332 -198 q 309 -187 320 -191 q 293 -180 298 -182 q 279 -175 289 -178 q 267 -171 269 -172 l 267 -7 l 383 -7 l 383 -94 q 533 -252 533 -165 q 520 -302 533 -280 q 490 -338 508 -324 q 442 -362 471 -352 q 388 -376 412 -372 q 329 -384 364 -381 q 276 -387 294 -387 q 229 -387 258 -387 z "},"è":{"ha":637,"x_min":53,"x_max":597,"o":"m 281 543 l 370 543 l 370 665 q 325 732 370 732 q 281 665 281 732 l 281 543 m 53 230 l 53 606 q 120 826 53 747 q 325 905 187 905 q 530 827 463 905 q 597 606 597 748 l 597 423 l 281 423 l 281 227 q 325 153 281 153 q 372 233 372 153 l 372 330 l 597 330 l 597 230 q 517 50 597 119 q 325 -20 437 -20 q 133 50 213 -20 q 53 230 53 120 m 256 975 l 68 1274 l 302 1274 l 395 975 l 256 975 z "},"é":{"ha":637,"x_min":53,"x_max":597,"o":"m 281 543 l 370 543 l 370 665 q 325 732 370 732 q 281 665 281 732 l 281 543 m 53 230 l 53 606 q 120 826 53 747 q 325 905 187 905 q 530 827 463 905 q 597 606 597 748 l 597 423 l 281 423 l 281 227 q 325 153 281 153 q 372 233 372 153 l 372 330 l 597 330 l 597 230 q 517 50 597 119 q 325 -20 437 -20 q 133 50 213 -20 q 53 230 53 120 m 256 975 l 348 1274 l 582 1274 l 394 975 l 256 975 z "},"ê":{"ha":637,"x_min":53,"x_max":597,"o":"m 281 543 l 370 543 l 370 665 q 325 732 370 732 q 281 665 281 732 l 281 543 m 53 230 l 53 606 q 120 826 53 747 q 325 905 187 905 q 530 827 463 905 q 597 606 597 748 l 597 423 l 281 423 l 281 227 q 325 153 281 153 q 372 233 372 153 l 372 330 l 597 330 l 597 230 q 517 50 597 119 q 325 -20 437 -20 q 133 50 213 -20 q 53 230 53 120 m 89 975 l 225 1250 l 422 1250 l 562 975 l 375 975 l 324 1112 l 275 975 l 89 975 z "},"ë":{"ha":637,"x_min":53,"x_max":597,"o":"m 281 543 l 370 543 l 370 665 q 325 732 370 732 q 281 665 281 732 l 281 543 m 53 230 l 53 606 q 120 826 53 747 q 325 905 187 905 q 530 827 463 905 q 597 606 597 748 l 597 423 l 281 423 l 281 227 q 325 153 281 153 q 372 233 372 153 l 372 330 l 597 330 l 597 230 q 517 50 597 119 q 325 -20 437 -20 q 133 50 213 -20 q 53 230 53 120 m 375 975 l 375 1183 l 581 1183 l 581 975 l 375 975 m 68 975 l 68 1183 l 273 1183 l 273 975 l 68 975 z "},"ì":{"ha":361,"x_min":-59,"x_max":313,"o":"m 84 0 l 84 885 l 313 885 l 313 0 l 84 0 m 129 974 l -59 1274 l 176 1274 l 268 974 l 129 974 z "},"í":{"ha":361,"x_min":84,"x_max":456,"o":"m 84 0 l 84 885 l 313 885 l 313 0 l 84 0 m 130 974 l 222 1274 l 456 1274 l 268 974 l 130 974 z "},"î":{"ha":361,"x_min":-38,"x_max":435,"o":"m 84 0 l 84 885 l 313 885 l 313 0 l 84 0 m -38 974 l 98 1249 l 295 1249 l 435 974 l 248 974 l 197 1111 l 148 974 l -38 974 z "},"ï":{"ha":361,"x_min":-58,"x_max":455,"o":"m 84 0 l 84 885 l 313 885 l 313 0 l 84 0 m 249 974 l 249 1183 l 455 1183 l 455 974 l 249 974 m -58 974 l -58 1183 l 147 1183 l 147 974 l -58 974 z "},"ð":{"ha":670,"x_min":59,"x_max":661,"o":"m 374 231 l 374 593 q 361 627 374 614 q 330 639 349 639 q 299 626 312 639 q 286 589 286 613 l 286 231 q 287 207 286 216 q 292 185 288 197 q 305 166 296 173 q 328 160 314 160 q 374 231 374 160 m 59 231 l 59 605 q 119 760 59 701 q 258 818 178 818 q 375 779 325 818 q 367 922 375 876 l 262 869 l 218 964 l 323 1018 q 146 1065 275 1065 l 179 1244 q 519 1118 417 1244 l 616 1167 l 661 1072 l 570 1026 q 603 806 603 936 l 603 231 q 564 100 603 158 q 463 11 525 41 q 328 -20 400 -20 q 138 51 216 -20 q 59 231 59 121 z "},"ñ":{"ha":682,"x_min":64,"x_max":623,"o":"m 64 0 l 64 885 l 292 885 l 292 823 q 371 882 325 860 q 466 905 416 905 q 550 875 513 905 q 605 803 587 846 q 623 713 623 760 l 623 0 l 394 0 l 394 673 q 356 732 394 732 q 348 731 352 732 q 339 728 343 730 q 331 724 334 726 q 323 718 328 722 q 316 712 318 714 q 309 705 313 710 q 302 698 304 700 q 297 692 301 696 l 292 686 l 292 0 l 64 0 m 227 981 l 114 981 q 116 1042 114 1016 q 127 1097 119 1069 q 148 1143 135 1124 q 184 1173 161 1161 q 239 1184 208 1184 q 358 1164 289 1184 q 444 1145 428 1145 q 460 1150 454 1145 q 467 1160 466 1155 q 467 1176 467 1165 l 572 1176 q 467 974 572 974 q 362 999 433 974 q 260 1023 292 1023 q 243 1020 250 1023 q 234 1015 237 1017 q 229 1004 231 1012 q 227 994 227 996 q 227 981 227 991 z "},"ò":{"ha":660,"x_min":53,"x_max":607,"o":"m 380 227 l 380 665 q 328 732 380 732 q 281 665 281 732 l 281 227 q 282 202 281 212 q 288 179 283 193 q 302 159 292 166 q 328 153 312 153 q 380 227 380 153 m 53 230 l 53 606 q 120 826 53 748 q 328 905 186 905 q 538 826 470 905 q 607 606 607 748 l 607 230 q 525 50 607 119 q 328 -20 443 -20 q 192 11 254 -20 q 91 99 130 41 q 53 230 53 157 m 260 974 l 73 1274 l 307 1274 l 399 974 l 260 974 z "},"ó":{"ha":660,"x_min":53,"x_max":607,"o":"m 380 227 l 380 665 q 328 732 380 732 q 281 665 281 732 l 281 227 q 282 202 281 212 q 288 179 283 193 q 302 159 292 166 q 328 153 312 153 q 380 227 380 153 m 53 230 l 53 606 q 120 826 53 748 q 328 905 186 905 q 538 826 470 905 q 607 606 607 748 l 607 230 q 525 50 607 119 q 328 -20 443 -20 q 192 11 254 -20 q 91 99 130 41 q 53 230 53 157 m 261 974 l 353 1274 l 587 1274 l 399 974 l 261 974 z "},"ô":{"ha":660,"x_min":53,"x_max":607,"o":"m 380 227 l 380 665 q 328 732 380 732 q 281 665 281 732 l 281 227 q 282 202 281 212 q 288 179 283 193 q 302 159 292 166 q 328 153 312 153 q 380 227 380 153 m 53 230 l 53 606 q 120 826 53 748 q 328 905 186 905 q 538 826 470 905 q 607 606 607 748 l 607 230 q 525 50 607 119 q 328 -20 443 -20 q 192 11 254 -20 q 91 99 130 41 q 53 230 53 157 m 94 974 l 230 1249 l 427 1249 l 566 974 l 380 974 l 329 1111 l 279 974 l 94 974 z "},"õ":{"ha":660,"x_min":53,"x_max":607,"o":"m 380 227 l 380 665 q 328 732 380 732 q 281 665 281 732 l 281 227 q 282 202 281 212 q 288 179 283 193 q 302 159 292 166 q 328 153 312 153 q 380 227 380 153 m 53 230 l 53 606 q 120 826 53 748 q 328 905 186 905 q 538 826 470 905 q 607 606 607 748 l 607 230 q 525 50 607 119 q 328 -20 443 -20 q 192 11 254 -20 q 91 99 130 41 q 53 230 53 157 m 205 979 l 92 979 q 94 1040 92 1014 q 104 1095 96 1067 q 126 1141 113 1122 q 162 1171 139 1159 q 217 1182 185 1182 q 336 1162 267 1182 q 421 1143 406 1143 q 438 1148 432 1143 q 444 1158 444 1153 q 445 1174 445 1163 l 550 1174 q 444 972 550 972 q 340 997 410 972 q 238 1021 270 1021 q 221 1018 228 1021 q 211 1013 214 1015 q 207 1002 208 1010 q 205 991 205 994 q 205 979 205 989 z "},"ö":{"ha":660,"x_min":53,"x_max":607,"o":"m 380 227 l 380 665 q 328 732 380 732 q 281 665 281 732 l 281 227 q 282 202 281 212 q 288 179 283 193 q 302 159 292 166 q 328 153 312 153 q 380 227 380 153 m 53 230 l 53 606 q 120 826 53 748 q 328 905 186 905 q 538 826 470 905 q 607 606 607 748 l 607 230 q 525 50 607 119 q 328 -20 443 -20 q 192 11 254 -20 q 91 99 130 41 q 53 230 53 157 m 380 974 l 380 1183 l 587 1183 l 587 974 l 380 974 m 73 974 l 73 1183 l 279 1183 l 279 974 l 73 974 z "},"÷":{"ha":472,"x_min":4,"x_max":463,"o":"m 136 160 l 136 355 l 330 355 l 330 160 l 136 160 m 136 604 l 136 798 l 330 798 l 330 604 l 136 604 m 4 395 l 4 547 l 463 547 l 463 395 l 4 395 z "},"ø":{"ha":667,"x_min":56,"x_max":610,"o":"m 384 235 l 384 654 q 332 721 384 721 q 285 654 285 721 l 285 235 q 286 210 285 220 q 291 187 287 200 q 305 167 295 174 q 332 160 315 160 q 384 235 384 160 m 141 -158 l 191 14 q 93 102 129 46 q 56 230 56 158 l 56 606 q 123 826 56 748 q 332 905 190 905 q 442 889 393 905 l 492 1061 l 544 1047 l 492 867 q 610 606 610 797 l 610 230 q 528 50 610 119 q 332 -19 446 -19 q 240 -5 285 -19 l 193 -172 l 141 -158 z "},"ù":{"ha":682,"x_min":59,"x_max":618,"o":"m 59 172 l 59 885 l 288 885 l 288 227 q 319 153 288 153 q 390 203 349 153 l 390 885 l 618 885 l 618 0 l 390 0 l 390 77 q 309 7 355 35 q 216 -20 263 -20 q 102 40 146 -20 q 59 172 59 99 m 269 974 l 81 1274 l 316 1274 l 408 974 l 269 974 z "},"ú":{"ha":682,"x_min":59,"x_max":618,"o":"m 59 172 l 59 885 l 288 885 l 288 227 q 319 153 288 153 q 390 203 349 153 l 390 885 l 618 885 l 618 0 l 390 0 l 390 77 q 309 7 355 35 q 216 -20 263 -20 q 102 40 146 -20 q 59 172 59 99 m 269 974 l 361 1274 l 595 1274 l 408 974 l 269 974 z "},"û":{"ha":682,"x_min":59,"x_max":618,"o":"m 59 172 l 59 885 l 288 885 l 288 227 q 319 153 288 153 q 390 203 349 153 l 390 885 l 618 885 l 618 0 l 390 0 l 390 77 q 309 7 355 35 q 216 -20 263 -20 q 102 40 146 -20 q 59 172 59 99 m 102 974 l 239 1249 l 435 1249 l 575 974 l 389 974 l 338 1111 l 288 974 l 102 974 z "},"ü":{"ha":682,"x_min":59,"x_max":618,"o":"m 59 172 l 59 885 l 288 885 l 288 227 q 319 153 288 153 q 390 203 349 153 l 390 885 l 618 885 l 618 0 l 390 0 l 390 77 q 309 7 355 35 q 216 -20 263 -20 q 102 40 146 -20 q 59 172 59 99 m 389 974 l 389 1183 l 595 1183 l 595 974 l 389 974 m 82 974 l 82 1183 l 288 1183 l 288 974 l 82 974 z "},"ý":{"ha":591,"x_min":12,"x_max":584,"o":"m 183 79 q 147 338 183 168 q 64 687 111 508 q 12 885 16 866 l 220 885 l 302 391 l 374 885 l 584 885 l 391 -24 q 359 -104 380 -70 q 312 -158 338 -138 q 247 -191 285 -178 q 173 -207 210 -203 q 88 -211 136 -211 l 59 -211 l 59 -53 q 155 -21 127 -52 q 183 79 183 10 m 214 945 l 307 1244 l 541 1244 l 353 945 l 214 945 z "},"þ":{"ha":670,"x_min":67,"x_max":612,"o":"m 67 -252 l 67 1221 l 296 1221 l 296 825 q 359 883 322 861 q 436 905 395 905 q 561 847 511 905 q 612 713 612 789 l 612 170 q 561 37 612 94 q 436 -20 511 -20 q 358 3 395 -20 q 296 66 321 26 l 296 -252 l 67 -252 m 385 210 l 385 676 q 353 734 385 734 q 346 733 350 734 q 339 731 342 732 q 333 726 336 729 q 326 721 329 723 q 320 714 323 719 q 314 708 316 710 q 309 700 312 705 q 304 693 305 695 q 299 687 302 692 q 296 682 296 682 l 296 201 q 339 151 322 160 q 353 146 347 146 q 374 157 367 146 q 383 180 382 168 q 385 210 385 192 z "},"ÿ":{"ha":591,"x_min":12,"x_max":584,"o":"m 183 79 q 147 338 183 168 q 64 687 111 508 q 12 885 16 866 l 220 885 l 302 391 l 374 885 l 584 885 l 391 -24 q 359 -104 380 -70 q 312 -158 338 -138 q 247 -191 285 -178 q 173 -207 210 -203 q 88 -211 136 -211 l 59 -211 l 59 -53 q 155 -21 127 -52 q 183 79 183 10 m 342 1012 l 342 1221 l 549 1221 l 549 1012 l 342 1012 m 35 1012 l 35 1221 l 241 1221 l 241 1012 l 35 1012 z "},"Ā":{"ha":770,"x_min":6,"x_max":751,"o":"m 315 413 l 441 413 l 380 866 l 315 413 m 6 0 l 270 1221 l 488 1221 l 751 0 l 508 0 l 458 261 l 298 261 l 251 0 l 6 0 m 213 1314 l 213 1444 l 557 1444 l 557 1314 l 213 1314 z "},"ā":{"ha":662,"x_min":39,"x_max":629,"o":"m 374 200 l 374 418 q 262 218 262 327 q 272 172 262 191 q 308 153 283 153 q 336 162 322 153 q 356 178 350 171 q 374 200 362 184 m 420 0 l 398 92 q 334 5 378 30 q 222 -20 289 -20 q 137 -1 174 -20 q 80 51 100 18 q 49 120 59 83 q 39 197 39 157 q 49 283 39 243 q 73 352 58 322 q 114 410 87 382 q 164 457 140 438 q 228 497 189 477 q 297 532 267 518 q 374 565 328 546 l 374 640 q 362 709 374 686 q 323 732 351 732 q 292 725 304 732 q 275 701 280 717 q 269 673 271 686 q 268 640 268 661 l 268 589 l 46 589 q 123 824 46 742 q 345 905 199 905 q 524 831 447 905 q 600 656 600 758 l 600 235 q 629 0 600 126 l 420 0 m 163 975 l 163 1105 l 507 1105 l 507 975 l 163 975 z "},"Ă":{"ha":770,"x_min":6,"x_max":751,"o":"m 315 413 l 441 413 l 380 866 l 315 413 m 6 0 l 270 1221 l 488 1221 l 751 0 l 508 0 l 458 261 l 298 261 l 251 0 l 6 0 m 214 1482 l 330 1482 q 335 1444 330 1463 q 353 1411 340 1426 q 385 1396 366 1396 q 418 1411 405 1396 q 435 1444 431 1426 q 440 1482 440 1463 l 557 1482 q 509 1360 557 1407 q 385 1314 460 1314 q 262 1360 310 1314 q 214 1482 214 1407 z "},"ă":{"ha":662,"x_min":39,"x_max":629,"o":"m 374 200 l 374 418 q 262 218 262 327 q 272 172 262 191 q 308 153 283 153 q 336 162 322 153 q 356 178 350 171 q 374 200 362 184 m 420 0 l 398 92 q 334 5 378 30 q 222 -20 289 -20 q 137 -1 174 -20 q 80 51 100 18 q 49 120 59 83 q 39 197 39 157 q 49 283 39 243 q 73 352 58 322 q 114 410 87 382 q 164 457 140 438 q 228 497 189 477 q 297 532 267 518 q 374 565 328 546 l 374 640 q 362 709 374 686 q 323 732 351 732 q 292 725 304 732 q 275 701 280 717 q 269 673 271 686 q 268 640 268 661 l 268 589 l 46 589 q 123 824 46 742 q 345 905 199 905 q 524 831 447 905 q 600 656 600 758 l 600 235 q 629 0 600 126 l 420 0 m 163 1143 l 279 1143 q 284 1105 279 1124 q 302 1072 289 1087 q 334 1057 315 1057 q 367 1072 354 1057 q 385 1105 380 1087 q 389 1143 389 1124 l 506 1143 q 458 1021 506 1068 q 334 975 410 975 q 211 1021 259 975 q 163 1143 163 1068 z "},"Ą":{"ha":770,"x_min":6,"x_max":751,"o":"m 315 413 l 441 413 l 380 866 l 315 413 m 6 0 l 270 1221 l 488 1221 l 751 0 l 508 0 l 458 261 l 298 261 l 251 0 l 6 0 m 709 -241 l 695 -350 q 636 -350 667 -352 q 576 -345 606 -348 q 518 -331 546 -342 q 470 -304 491 -320 q 437 -261 449 -289 q 425 -199 425 -234 q 454 -87 425 -146 q 527 12 484 -28 l 627 12 q 612 -30 623 -1 q 595 -74 601 -58 q 584 -116 589 -91 q 578 -162 578 -140 q 584 -196 578 -181 q 601 -218 589 -210 q 624 -232 613 -227 q 653 -239 634 -237 q 681 -241 671 -241 q 709 -241 690 -241 z "},"ą":{"ha":662,"x_min":39,"x_max":629,"o":"m 374 200 l 374 418 q 262 218 262 327 q 272 172 262 191 q 308 153 283 153 q 336 162 322 153 q 356 178 350 171 q 374 200 362 184 m 420 0 l 398 92 q 334 5 378 30 q 222 -20 289 -20 q 137 -1 174 -20 q 80 51 100 18 q 49 120 59 83 q 39 197 39 157 q 49 283 39 243 q 73 352 58 322 q 114 410 87 382 q 164 457 140 438 q 228 497 189 477 q 297 532 267 518 q 374 565 328 546 l 374 640 q 362 709 374 686 q 323 732 351 732 q 292 725 304 732 q 275 701 280 717 q 269 673 271 686 q 268 640 268 661 l 268 589 l 46 589 q 123 824 46 742 q 345 905 199 905 q 524 831 447 905 q 600 656 600 758 l 600 235 q 629 0 600 126 l 420 0 m 612 -248 l 597 -356 q 539 -356 570 -358 q 478 -351 508 -354 q 421 -337 448 -348 q 372 -311 393 -326 q 339 -268 351 -295 q 327 -205 327 -240 q 357 -93 327 -152 q 429 6 387 -35 l 530 6 q 514 -36 525 -7 q 497 -80 503 -64 q 486 -122 491 -97 q 481 -168 481 -146 q 486 -202 481 -187 q 504 -224 492 -216 q 526 -238 515 -233 q 555 -245 536 -243 q 583 -247 574 -247 q 612 -248 593 -248 z "},"Ć":{"ha":796,"x_min":57,"x_max":753,"o":"m 57 408 l 57 812 q 411 1244 57 1244 q 544 1224 486 1244 q 641 1169 602 1204 q 706 1082 680 1134 q 742 970 731 1031 q 753 838 753 910 l 753 732 l 511 732 l 511 845 q 509 902 511 878 q 502 957 508 926 q 487 1007 496 988 q 457 1040 477 1027 q 411 1054 438 1054 q 304 873 304 1054 l 304 347 q 411 167 304 167 q 465 185 443 167 q 496 237 486 203 q 509 303 505 271 q 512 376 512 335 l 512 502 l 753 502 l 753 399 q 742 270 752 329 q 707 155 732 211 q 645 61 683 100 q 548 0 608 23 q 411 -24 488 -24 q 270 -1 332 -24 q 169 60 209 22 q 104 154 130 98 q 67 272 78 210 q 57 408 57 334 m 336 1314 l 428 1613 l 662 1613 l 474 1314 l 336 1314 z "},"ć":{"ha":629,"x_min":53,"x_max":597,"o":"m 53 227 l 53 606 q 120 826 53 747 q 325 905 187 905 q 530 827 463 905 q 597 606 597 748 l 597 529 l 372 529 l 372 630 q 363 708 372 683 q 325 732 354 732 q 281 665 281 732 l 281 227 q 325 153 281 153 q 351 159 341 153 q 365 182 361 166 q 371 216 370 199 q 372 264 372 233 l 372 359 l 597 359 l 597 227 q 559 96 597 153 q 459 9 521 39 q 325 -20 397 -20 q 133 48 213 -20 q 53 227 53 117 m 256 975 l 348 1274 l 582 1274 l 394 975 l 256 975 z "},"Ĉ":{"ha":796,"x_min":57,"x_max":753,"o":"m 57 408 l 57 812 q 411 1244 57 1244 q 544 1224 486 1244 q 641 1169 602 1204 q 706 1082 680 1134 q 742 970 731 1031 q 753 838 753 910 l 753 732 l 511 732 l 511 845 q 509 902 511 878 q 502 957 508 926 q 487 1007 496 988 q 457 1040 477 1027 q 411 1054 438 1054 q 304 873 304 1054 l 304 347 q 411 167 304 167 q 465 185 443 167 q 496 237 486 203 q 509 303 505 271 q 512 376 512 335 l 512 502 l 753 502 l 753 399 q 742 270 752 329 q 707 155 732 211 q 645 61 683 100 q 548 0 608 23 q 411 -24 488 -24 q 270 -1 332 -24 q 169 60 209 22 q 104 154 130 98 q 67 272 78 210 q 57 408 57 334 m 169 1314 l 305 1589 l 502 1589 l 642 1314 l 455 1314 l 404 1451 l 355 1314 l 169 1314 z "},"ĉ":{"ha":629,"x_min":53,"x_max":597,"o":"m 53 227 l 53 606 q 120 826 53 747 q 325 905 187 905 q 530 827 463 905 q 597 606 597 748 l 597 529 l 372 529 l 372 630 q 363 708 372 683 q 325 732 354 732 q 281 665 281 732 l 281 227 q 325 153 281 153 q 351 159 341 153 q 365 182 361 166 q 371 216 370 199 q 372 264 372 233 l 372 359 l 597 359 l 597 227 q 559 96 597 153 q 459 9 521 39 q 325 -20 397 -20 q 133 48 213 -20 q 53 227 53 117 m 89 975 l 225 1250 l 422 1250 l 562 975 l 375 975 l 324 1112 l 275 975 l 89 975 z "},"Ċ":{"ha":796,"x_min":57,"x_max":753,"o":"m 57 408 l 57 812 q 411 1244 57 1244 q 544 1224 486 1244 q 641 1169 602 1204 q 706 1082 680 1134 q 742 970 731 1031 q 753 838 753 910 l 753 732 l 511 732 l 511 845 q 509 902 511 878 q 502 957 508 926 q 487 1007 496 988 q 457 1040 477 1027 q 411 1054 438 1054 q 304 873 304 1054 l 304 347 q 411 167 304 167 q 465 185 443 167 q 496 237 486 203 q 509 303 505 271 q 512 376 512 335 l 512 502 l 753 502 l 753 399 q 742 270 752 329 q 707 155 732 211 q 645 61 683 100 q 548 0 608 23 q 411 -24 488 -24 q 270 -1 332 -24 q 169 60 209 22 q 104 154 130 98 q 67 272 78 210 q 57 408 57 334 m 296 1314 l 296 1529 l 515 1529 l 515 1314 l 296 1314 z "},"ċ":{"ha":629,"x_min":53,"x_max":597,"o":"m 53 227 l 53 606 q 120 826 53 747 q 325 905 187 905 q 530 827 463 905 q 597 606 597 748 l 597 529 l 372 529 l 372 630 q 363 708 372 683 q 325 732 354 732 q 281 665 281 732 l 281 227 q 325 153 281 153 q 351 159 341 153 q 365 182 361 166 q 371 216 370 199 q 372 264 372 233 l 372 359 l 597 359 l 597 227 q 559 96 597 153 q 459 9 521 39 q 325 -20 397 -20 q 133 48 213 -20 q 53 227 53 117 m 216 975 l 216 1190 l 435 1190 l 435 975 l 216 975 z "},"Č":{"ha":796,"x_min":57,"x_max":753,"o":"m 57 408 l 57 812 q 411 1244 57 1244 q 544 1224 486 1244 q 641 1169 602 1204 q 706 1082 680 1134 q 742 970 731 1031 q 753 838 753 910 l 753 732 l 511 732 l 511 845 q 509 902 511 878 q 502 957 508 926 q 487 1007 496 988 q 457 1040 477 1027 q 411 1054 438 1054 q 304 873 304 1054 l 304 347 q 411 167 304 167 q 465 185 443 167 q 496 237 486 203 q 509 303 505 271 q 512 376 512 335 l 512 502 l 753 502 l 753 399 q 742 270 752 329 q 707 155 732 211 q 645 61 683 100 q 548 0 608 23 q 411 -24 488 -24 q 270 -1 332 -24 q 169 60 209 22 q 104 154 130 98 q 67 272 78 210 q 57 408 57 334 m 305 1314 l 169 1589 l 355 1589 l 404 1453 l 455 1589 l 642 1589 l 502 1314 l 305 1314 z "},"č":{"ha":629,"x_min":53,"x_max":597,"o":"m 53 227 l 53 606 q 120 826 53 747 q 325 905 187 905 q 530 827 463 905 q 597 606 597 748 l 597 529 l 372 529 l 372 630 q 363 708 372 683 q 325 732 354 732 q 281 665 281 732 l 281 227 q 325 153 281 153 q 351 159 341 153 q 365 182 361 166 q 371 216 370 199 q 372 264 372 233 l 372 359 l 597 359 l 597 227 q 559 96 597 153 q 459 9 521 39 q 325 -20 397 -20 q 133 48 213 -20 q 53 227 53 117 m 224 975 l 88 1250 l 274 1250 l 323 1114 l 374 1250 l 561 1250 l 421 975 l 224 975 z "},"Ď":{"ha":789,"x_min":73,"x_max":732,"o":"m 73 0 l 73 1221 l 328 1221 q 529 1199 450 1221 q 653 1126 608 1177 q 715 1005 698 1076 q 732 825 732 935 l 732 425 q 728 312 732 360 q 713 217 724 263 q 683 138 702 170 q 633 78 663 106 q 559 34 602 50 q 458 9 516 18 q 325 0 400 0 l 73 0 m 329 173 q 385 174 364 173 q 425 179 405 175 q 455 190 446 183 q 473 211 465 197 q 483 243 481 224 q 486 290 486 262 l 486 947 q 450 1027 486 1007 q 329 1047 414 1046 l 329 173 m 302 1314 l 166 1589 l 352 1589 l 401 1453 l 452 1589 l 639 1589 l 499 1314 l 302 1314 z "},"ď":{"ha":677,"x_min":54,"x_max":937,"o":"m 54 170 l 54 692 q 106 841 54 777 q 237 905 159 905 q 318 883 280 905 q 385 825 357 861 l 385 1221 l 613 1221 l 613 0 l 385 0 l 385 66 q 317 3 357 26 q 231 -20 276 -20 q 104 37 155 -20 q 54 170 54 94 m 385 201 l 385 682 q 320 732 346 732 q 282 674 282 732 l 282 216 q 284 186 282 198 q 295 163 286 174 q 320 153 304 153 q 385 201 349 153 m 764 840 l 736 953 q 747 953 740 953 q 771 953 764 953 q 783 959 777 954 q 790 975 789 965 q 791 1005 791 984 l 717 1005 l 717 1221 l 936 1221 q 936 1161 936 1200 q 936 1046 937 1083 q 926 956 935 1008 q 901 882 918 903 q 849 847 883 861 q 764 840 814 833 z "},"Đ":{"ha":784,"x_min":3,"x_max":726,"o":"m 313 173 l 323 173 q 377 174 357 173 q 417 180 397 176 q 447 191 437 184 q 465 212 457 198 q 476 243 473 225 q 479 290 479 262 l 479 947 q 443 1027 479 1008 q 320 1047 406 1046 l 313 1047 l 313 686 l 397 686 l 397 562 l 313 562 l 313 173 m 66 0 l 66 562 l 3 562 l 3 686 l 66 686 l 66 1221 l 321 1221 q 522 1199 443 1221 q 646 1126 601 1177 q 708 1005 691 1076 q 726 825 726 935 l 726 425 q 722 312 726 360 q 706 217 718 263 q 676 138 695 170 q 626 78 656 106 q 552 34 595 50 q 451 9 509 18 q 318 0 393 0 l 66 0 z "},"đ":{"ha":677,"x_min":54,"x_max":677,"o":"m 385 201 l 385 682 q 320 732 346 732 q 282 674 282 732 l 282 216 q 284 186 282 198 q 295 163 286 174 q 320 153 304 153 q 385 201 349 153 m 54 170 l 54 692 q 106 841 54 777 q 237 905 159 905 q 318 883 280 905 q 385 825 357 861 l 385 1020 l 193 1020 l 193 1110 l 385 1110 l 385 1221 l 613 1221 l 613 1110 l 677 1110 l 677 1020 l 613 1020 l 613 0 l 385 0 l 385 66 q 317 3 357 26 q 231 -20 276 -20 q 104 37 155 -20 q 54 170 54 94 z "},"Ē":{"ha":603,"x_min":73,"x_max":582,"o":"m 73 0 l 73 1221 l 582 1221 l 582 1051 l 319 1051 l 319 719 l 505 719 l 505 545 l 319 545 l 319 170 l 582 170 l 582 0 l 73 0 m 155 1314 l 155 1444 l 499 1444 l 499 1314 l 155 1314 z "},"ē":{"ha":637,"x_min":53,"x_max":597,"o":"m 281 543 l 370 543 l 370 665 q 325 732 370 732 q 281 665 281 732 l 281 543 m 53 230 l 53 606 q 120 826 53 747 q 325 905 187 905 q 530 827 463 905 q 597 606 597 748 l 597 423 l 281 423 l 281 227 q 325 153 281 153 q 372 233 372 153 l 372 330 l 597 330 l 597 230 q 517 50 597 119 q 325 -20 437 -20 q 133 50 213 -20 q 53 230 53 120 m 146 988 l 146 1119 l 490 1119 l 490 988 l 146 988 z "},"Ė":{"ha":597,"x_min":73,"x_max":582,"o":"m 218 1327 l 218 1543 l 437 1543 l 437 1327 l 218 1327 m 73 0 l 73 1221 l 582 1221 l 582 1051 l 319 1051 l 319 719 l 505 719 l 505 545 l 319 545 l 319 170 l 582 170 l 582 0 l 73 0 z "},"ė":{"ha":637,"x_min":53,"x_max":597,"o":"m 216 988 l 216 1204 l 435 1204 l 435 988 l 216 988 m 281 543 l 370 543 l 370 665 q 325 732 370 732 q 281 665 281 732 l 281 543 m 53 230 l 53 606 q 120 826 53 747 q 325 905 187 905 q 530 827 463 905 q 597 606 597 748 l 597 423 l 281 423 l 281 227 q 325 153 281 153 q 372 233 372 153 l 372 330 l 597 330 l 597 230 q 517 50 597 119 q 325 -20 437 -20 q 133 50 213 -20 q 53 230 53 120 z "},"Ę":{"ha":603,"x_min":73,"x_max":582,"o":"m 73 0 l 73 1221 l 582 1221 l 582 1051 l 319 1051 l 319 719 l 505 719 l 505 545 l 319 545 l 319 170 l 582 170 l 582 0 l 73 0 m 510 -241 l 496 -350 q 437 -350 468 -352 q 376 -345 406 -348 q 319 -331 347 -342 q 271 -304 292 -320 q 237 -261 250 -289 q 225 -199 225 -234 q 255 -87 225 -146 q 328 12 285 -28 l 428 12 q 412 -30 423 -1 q 395 -74 401 -58 q 384 -116 389 -91 q 379 -162 379 -140 q 385 -196 379 -181 q 402 -218 390 -210 q 424 -232 414 -227 q 453 -239 435 -237 q 481 -241 472 -241 q 510 -241 491 -241 z "},"ę":{"ha":637,"x_min":53,"x_max":597,"o":"m 281 543 l 370 543 l 370 665 q 325 732 370 732 q 281 665 281 732 l 281 543 m 53 230 l 53 606 q 120 826 53 747 q 325 905 187 905 q 530 827 463 905 q 597 606 597 748 l 597 423 l 281 423 l 281 227 q 325 153 281 153 q 372 233 372 153 l 372 330 l 597 330 l 597 230 q 517 50 597 119 q 325 -20 437 -20 q 133 50 213 -20 q 53 230 53 120 m 447 -248 l 433 -357 q 374 -357 405 -359 q 313 -352 343 -355 q 256 -338 283 -349 q 208 -311 229 -327 q 174 -268 186 -296 q 162 -205 162 -241 q 192 -94 162 -153 q 264 5 222 -35 l 365 5 q 349 -36 360 -8 q 332 -81 338 -64 q 321 -122 326 -98 q 316 -169 316 -147 q 321 -202 316 -188 q 339 -225 327 -217 q 361 -238 351 -233 q 390 -245 372 -243 q 418 -248 409 -248 q 447 -248 428 -248 z "},"Ě":{"ha":603,"x_min":73,"x_max":582,"o":"m 73 0 l 73 1221 l 582 1221 l 582 1051 l 319 1051 l 319 719 l 505 719 l 505 545 l 319 545 l 319 170 l 582 170 l 582 0 l 73 0 m 227 1314 l 91 1589 l 277 1589 l 326 1453 l 377 1589 l 564 1589 l 424 1314 l 227 1314 z "},"ě":{"ha":637,"x_min":53,"x_max":597,"o":"m 281 543 l 370 543 l 370 665 q 325 732 370 732 q 281 665 281 732 l 281 543 m 53 230 l 53 606 q 120 826 53 747 q 325 905 187 905 q 530 827 463 905 q 597 606 597 748 l 597 423 l 281 423 l 281 227 q 325 153 281 153 q 372 233 372 153 l 372 330 l 597 330 l 597 230 q 517 50 597 119 q 325 -20 437 -20 q 133 50 213 -20 q 53 230 53 120 m 224 975 l 88 1250 l 274 1250 l 323 1114 l 374 1250 l 561 1250 l 421 975 l 224 975 z "},"Ĝ":{"ha":840,"x_min":57,"x_max":777,"o":"m 57 382 l 57 812 q 417 1244 57 1244 q 552 1224 493 1244 q 652 1169 612 1204 q 718 1082 692 1134 q 755 970 743 1031 q 766 838 766 910 l 766 766 l 530 766 l 530 851 q 529 907 530 883 q 520 961 527 931 q 502 1009 513 990 q 469 1041 490 1028 q 417 1054 447 1054 q 304 873 304 1054 l 304 347 q 417 167 304 167 q 530 353 530 167 l 530 451 l 390 451 l 390 628 l 777 628 l 777 0 l 607 0 l 576 85 q 487 6 545 37 q 368 -24 429 -24 q 249 0 302 -24 q 160 64 195 24 q 101 157 125 104 q 67 267 77 211 q 57 382 57 323 m 180 1314 l 317 1589 l 513 1589 l 653 1314 l 467 1314 l 416 1451 l 366 1314 l 180 1314 z "},"ĝ":{"ha":654,"x_min":15,"x_max":671,"o":"m 243 54 l 227 54 q 196 -31 196 5 q 347 -71 196 -71 q 351 -71 348 -71 q 428 -25 428 -72 q 419 4 428 -9 q 393 26 410 18 q 359 39 376 34 q 317 47 342 45 q 278 52 293 50 q 243 54 264 53 m 313 429 q 369 586 369 429 q 317 747 369 747 q 294 741 304 747 q 278 720 284 734 q 269 691 273 706 q 263 655 265 677 q 261 617 262 633 q 261 577 261 601 q 313 429 261 429 m 222 230 q 246 203 222 214 q 307 185 269 192 q 389 170 344 178 q 479 151 434 163 q 562 122 525 139 q 623 75 600 105 q 646 3 646 44 q 630 -95 646 -53 q 586 -163 613 -138 q 517 -204 558 -189 q 435 -225 477 -220 q 341 -231 393 -231 q 15 -72 15 -231 q 41 21 15 -25 q 108 98 66 68 q 54 131 80 112 q 28 168 28 151 q 119 321 28 207 q 50 575 50 448 q 65 697 50 640 q 111 802 80 755 q 196 878 142 850 q 319 905 249 905 q 476 849 423 905 q 642 905 526 905 l 671 905 l 652 742 q 555 712 585 742 q 583 558 583 661 q 565 444 583 498 q 514 347 547 389 q 428 281 480 305 q 311 256 375 256 q 281 259 299 256 q 250 264 262 262 l 238 267 q 222 230 222 236 m 106 975 l 243 1250 l 439 1250 l 579 975 l 393 975 l 342 1112 l 292 975 l 106 975 z "},"Ğ":{"ha":840,"x_min":57,"x_max":777,"o":"m 57 382 l 57 812 q 417 1244 57 1244 q 552 1224 493 1244 q 652 1169 612 1204 q 718 1082 692 1134 q 755 970 743 1031 q 766 838 766 910 l 766 766 l 530 766 l 530 851 q 529 907 530 883 q 520 961 527 931 q 502 1009 513 990 q 469 1041 490 1028 q 417 1054 447 1054 q 304 873 304 1054 l 304 347 q 417 167 304 167 q 530 353 530 167 l 530 451 l 390 451 l 390 628 l 777 628 l 777 0 l 607 0 l 576 85 q 487 6 545 37 q 368 -24 429 -24 q 249 0 302 -24 q 160 64 195 24 q 101 157 125 104 q 67 267 77 211 q 57 382 57 323 m 245 1482 l 361 1482 q 366 1444 361 1463 q 384 1411 371 1426 q 416 1396 397 1396 q 449 1411 436 1396 q 467 1444 462 1426 q 471 1482 471 1463 l 588 1482 q 540 1360 588 1407 q 416 1314 492 1314 q 293 1360 341 1314 q 245 1482 245 1407 z "},"ğ":{"ha":654,"x_min":15,"x_max":671,"o":"m 243 54 l 227 54 q 196 -31 196 5 q 347 -71 196 -71 q 351 -71 348 -71 q 428 -25 428 -72 q 419 4 428 -9 q 393 26 410 18 q 359 39 376 34 q 317 47 342 45 q 278 52 293 50 q 243 54 264 53 m 313 429 q 369 586 369 429 q 317 747 369 747 q 294 741 304 747 q 278 720 284 734 q 269 691 273 706 q 263 655 265 677 q 261 617 262 633 q 261 577 261 601 q 313 429 261 429 m 222 230 q 246 203 222 214 q 307 185 269 192 q 389 170 344 178 q 479 151 434 163 q 562 122 525 139 q 623 75 600 105 q 646 3 646 44 q 630 -95 646 -53 q 586 -163 613 -138 q 517 -204 558 -189 q 435 -225 477 -220 q 341 -231 393 -231 q 15 -72 15 -231 q 41 21 15 -25 q 108 98 66 68 q 54 131 80 112 q 28 168 28 151 q 119 321 28 207 q 50 575 50 448 q 65 697 50 640 q 111 802 80 755 q 196 878 142 850 q 319 905 249 905 q 476 849 423 905 q 642 905 526 905 l 671 905 l 652 742 q 555 712 585 742 q 583 558 583 661 q 565 444 583 498 q 514 347 547 389 q 428 281 480 305 q 311 256 375 256 q 281 259 299 256 q 250 264 262 262 l 238 267 q 222 230 222 236 m 172 1143 l 288 1143 q 293 1105 288 1124 q 311 1072 298 1087 q 343 1057 323 1057 q 376 1072 363 1057 q 393 1105 389 1087 q 398 1143 398 1124 l 515 1143 q 467 1021 515 1068 q 343 975 418 975 q 220 1021 268 975 q 172 1143 172 1068 z "},"Ġ":{"ha":840,"x_min":57,"x_max":777,"o":"m 57 382 l 57 812 q 417 1244 57 1244 q 552 1224 493 1244 q 652 1169 612 1204 q 718 1082 692 1134 q 755 970 743 1031 q 766 838 766 910 l 766 766 l 530 766 l 530 851 q 529 907 530 883 q 520 961 527 931 q 502 1009 513 990 q 469 1041 490 1028 q 417 1054 447 1054 q 304 873 304 1054 l 304 347 q 417 167 304 167 q 530 353 530 167 l 530 451 l 390 451 l 390 628 l 777 628 l 777 0 l 607 0 l 576 85 q 487 6 545 37 q 368 -24 429 -24 q 249 0 302 -24 q 160 64 195 24 q 101 157 125 104 q 67 267 77 211 q 57 382 57 323 m 307 1314 l 307 1529 l 526 1529 l 526 1314 l 307 1314 z "},"ġ":{"ha":654,"x_min":15,"x_max":671,"o":"m 243 54 l 227 54 q 196 -31 196 5 q 347 -71 196 -71 q 351 -71 348 -71 q 428 -25 428 -72 q 419 4 428 -9 q 393 26 410 18 q 359 39 376 34 q 317 47 342 45 q 278 52 293 50 q 243 54 264 53 m 313 429 q 369 586 369 429 q 317 747 369 747 q 294 741 304 747 q 278 720 284 734 q 269 691 273 706 q 263 655 265 677 q 261 617 262 633 q 261 577 261 601 q 313 429 261 429 m 222 230 q 246 203 222 214 q 307 185 269 192 q 389 170 344 178 q 479 151 434 163 q 562 122 525 139 q 623 75 600 105 q 646 3 646 44 q 630 -95 646 -53 q 586 -163 613 -138 q 517 -204 558 -189 q 435 -225 477 -220 q 341 -231 393 -231 q 15 -72 15 -231 q 41 21 15 -25 q 108 98 66 68 q 54 131 80 112 q 28 168 28 151 q 119 321 28 207 q 50 575 50 448 q 65 697 50 640 q 111 802 80 755 q 196 878 142 850 q 319 905 249 905 q 476 849 423 905 q 642 905 526 905 l 671 905 l 652 742 q 555 712 585 742 q 583 558 583 661 q 565 444 583 498 q 514 347 547 389 q 428 281 480 305 q 311 256 375 256 q 281 259 299 256 q 250 264 262 262 l 238 267 q 222 230 222 236 m 233 975 l 233 1190 l 452 1190 l 452 975 l 233 975 z "},"Ģ":{"ha":840,"x_min":57,"x_max":777,"o":"m 57 382 l 57 812 q 417 1244 57 1244 q 552 1224 493 1244 q 652 1169 612 1204 q 718 1082 692 1134 q 755 970 743 1031 q 766 838 766 910 l 766 766 l 530 766 l 530 851 q 529 907 530 883 q 520 961 527 931 q 502 1009 513 990 q 469 1041 490 1028 q 417 1054 447 1054 q 304 873 304 1054 l 304 347 q 417 167 304 167 q 530 353 530 167 l 530 451 l 390 451 l 390 628 l 777 628 l 777 0 l 607 0 l 576 85 q 487 6 545 37 q 368 -24 429 -24 q 249 0 302 -24 q 160 64 195 24 q 101 157 125 104 q 67 267 77 211 q 57 382 57 323 m 353 -473 l 326 -361 q 336 -361 330 -361 q 360 -360 354 -361 q 373 -354 367 -360 q 380 -339 379 -349 q 381 -309 381 -330 l 307 -309 l 307 -93 l 526 -93 q 526 -170 526 -119 q 526 -271 526 -224 q 519 -356 526 -318 q 498 -420 513 -394 q 455 -461 484 -447 q 383 -476 427 -476 q 353 -473 372 -476 z "},"ģ":{"ha":654,"x_min":15,"x_max":671,"o":"m 389 1343 l 416 1230 q 406 1230 413 1230 q 382 1230 389 1230 q 370 1224 376 1230 q 362 1208 363 1218 q 361 1178 361 1199 l 436 1178 l 436 962 l 217 962 q 217 1121 214 1050 q 233 1241 220 1192 q 284 1316 245 1290 q 389 1343 322 1343 m 243 54 l 227 54 q 196 -31 196 5 q 347 -71 196 -71 q 351 -71 348 -71 q 428 -25 428 -72 q 419 4 428 -9 q 393 26 410 18 q 359 39 376 34 q 317 47 342 45 q 278 52 293 50 q 243 54 264 53 m 313 429 q 369 586 369 429 q 317 747 369 747 q 294 741 304 747 q 278 720 284 734 q 269 691 273 706 q 263 655 265 677 q 261 617 262 633 q 261 577 261 601 q 313 429 261 429 m 222 230 q 246 203 222 214 q 307 185 269 192 q 389 170 344 178 q 479 151 434 163 q 562 122 525 139 q 623 75 600 105 q 646 3 646 44 q 630 -95 646 -53 q 586 -163 613 -138 q 517 -204 558 -189 q 435 -225 477 -220 q 341 -231 393 -231 q 15 -72 15 -231 q 41 21 15 -25 q 108 98 66 68 q 54 131 80 112 q 28 168 28 151 q 119 321 28 207 q 50 575 50 448 q 65 697 50 640 q 111 802 80 755 q 196 878 142 850 q 319 905 249 905 q 476 849 423 905 q 642 905 526 905 l 671 905 l 652 742 q 555 712 585 742 q 583 558 583 661 q 565 444 583 498 q 514 347 547 389 q 428 281 480 305 q 311 256 375 256 q 281 259 299 256 q 250 264 262 262 l 238 267 q 222 230 222 236 z "},"Ĥ":{"ha":852,"x_min":112,"x_max":742,"o":"m 112 0 l 112 1219 l 332 1219 l 332 716 l 522 716 l 522 1219 l 742 1219 l 742 0 l 522 0 l 522 543 l 332 543 l 332 0 l 112 0 m 191 1261 l 329 1560 l 525 1560 l 665 1261 l 476 1261 l 427 1377 l 377 1261 l 191 1261 z "},"ĥ":{"ha":682,"x_min":64,"x_max":623,"o":"m 64 0 l 64 1221 l 292 1221 l 292 822 q 371 882 326 859 q 466 905 417 905 q 550 876 513 905 q 605 802 587 846 q 623 713 623 759 l 623 0 l 394 0 l 394 653 q 394 665 394 656 q 394 680 395 674 q 394 695 394 686 q 391 709 393 704 q 386 721 389 715 q 377 730 382 727 q 363 732 371 732 q 334 722 349 732 q 311 703 318 711 q 292 682 304 696 l 292 0 l 64 0 m 106 1290 l 243 1565 l 439 1565 l 579 1290 l 393 1290 l 342 1427 l 292 1290 l 106 1290 z "},"Ħ":{"ha":804,"x_min":-3,"x_max":806,"o":"m 313 720 l 490 720 l 490 905 l 313 905 l 313 720 m 66 0 l 66 905 l -3 905 l -3 983 l 66 983 l 66 1221 l 313 1221 l 313 983 l 490 983 l 490 1221 l 738 1221 l 738 983 l 806 983 l 806 905 l 738 905 l 738 0 l 490 0 l 490 545 l 313 545 l 313 0 l 66 0 z "},"ħ":{"ha":667,"x_min":0,"x_max":626,"o":"m 67 0 l 67 990 l 0 990 l 0 1114 l 67 1114 l 67 1221 l 296 1221 l 296 1114 l 487 1114 l 487 990 l 296 990 l 296 822 q 375 882 329 859 q 469 905 420 905 q 553 876 516 905 q 608 802 590 846 q 626 713 626 759 l 626 0 l 397 0 l 397 653 q 398 665 397 656 q 398 680 398 674 q 397 695 397 686 q 395 709 397 704 q 389 721 393 715 q 380 730 386 727 q 366 732 374 732 q 337 722 353 732 q 315 703 321 711 q 296 682 308 696 l 296 0 l 67 0 z "},"Ĩ":{"ha":392,"x_min":-33,"x_max":425,"o":"m 73 0 l 73 1221 l 319 1221 l 319 0 l 73 0 m 80 1321 l -33 1321 q -31 1382 -33 1356 q -20 1436 -28 1409 q 1 1482 -12 1464 q 37 1512 14 1501 q 92 1524 60 1524 q 211 1504 142 1524 q 296 1485 281 1485 q 313 1490 307 1485 q 319 1500 319 1495 q 320 1516 320 1505 l 425 1516 q 319 1314 425 1314 q 215 1338 286 1314 q 113 1363 145 1363 q 96 1360 103 1363 q 86 1354 90 1357 q 82 1343 83 1352 q 80 1333 80 1335 q 80 1321 80 1331 z "},"ĩ":{"ha":361,"x_min":-51,"x_max":408,"o":"m 84 0 l 84 885 l 313 885 l 313 0 l 84 0 m 62 970 l -51 970 q -48 1031 -51 1004 q -38 1085 -46 1057 q -17 1131 -30 1113 q 20 1161 -3 1149 q 75 1173 43 1173 q 194 1153 124 1173 q 279 1133 263 1133 q 295 1138 290 1133 q 302 1148 301 1143 q 302 1164 302 1154 l 408 1164 q 302 962 408 962 q 198 987 268 962 q 96 1012 127 1012 q 79 1009 85 1012 q 69 1003 72 1006 q 64 992 66 1000 q 62 982 62 984 q 62 970 62 980 z "},"Ī":{"ha":392,"x_min":24,"x_max":368,"o":"m 73 0 l 73 1221 l 319 1221 l 319 0 l 73 0 m 24 1314 l 24 1444 l 368 1444 l 368 1314 l 24 1314 z "},"ī":{"ha":361,"x_min":8,"x_max":352,"o":"m 84 0 l 84 885 l 313 885 l 313 0 l 84 0 m 8 988 l 8 1119 l 352 1119 l 352 988 l 8 988 z "},"Ĭ":{"ha":392,"x_min":24,"x_max":368,"o":"m 73 0 l 73 1221 l 319 1221 l 319 0 l 73 0 m 24 1482 l 141 1482 q 146 1444 141 1463 q 163 1411 151 1426 q 196 1396 176 1396 q 229 1411 216 1396 q 246 1444 241 1426 q 251 1482 251 1463 l 368 1482 q 319 1360 368 1407 q 196 1314 271 1314 q 73 1360 121 1314 q 24 1482 24 1407 z "},"ĭ":{"ha":361,"x_min":26,"x_max":370,"o":"m 84 0 l 84 885 l 313 885 l 313 0 l 84 0 m 26 1142 l 143 1142 q 148 1105 143 1123 q 165 1071 153 1086 q 198 1056 178 1056 q 231 1071 218 1056 q 248 1105 243 1086 q 253 1142 253 1123 l 370 1142 q 321 1021 370 1067 q 198 974 273 974 q 75 1021 123 974 q 26 1142 26 1067 z "},"Į":{"ha":392,"x_min":43,"x_max":328,"o":"m 73 0 l 73 1221 l 319 1221 l 319 0 l 73 0 m 328 -241 l 314 -350 q 255 -350 286 -352 q 195 -345 224 -348 q 137 -331 165 -342 q 89 -304 110 -320 q 56 -261 68 -289 q 43 -199 43 -234 q 73 -87 43 -146 q 146 12 103 -28 l 246 12 q 231 -30 241 -1 q 214 -74 220 -58 q 202 -116 208 -91 q 197 -162 197 -140 q 203 -196 197 -181 q 220 -218 208 -210 q 242 -232 232 -227 q 272 -239 253 -237 q 300 -241 290 -241 q 328 -241 309 -241 z "},"į":{"ha":359,"x_min":65,"x_max":353,"o":"m 65 962 l 65 1176 l 294 1176 l 294 962 l 65 962 m 65 0 l 65 885 l 294 885 l 294 0 l 65 0 m 353 -243 l 338 -351 q 280 -351 311 -353 q 219 -346 249 -349 q 162 -332 189 -343 q 113 -306 134 -321 q 80 -263 92 -290 q 68 -200 68 -235 q 98 -89 68 -147 q 170 11 127 -30 l 271 11 q 255 -31 266 -3 q 238 -76 244 -59 q 227 -117 232 -92 q 222 -163 222 -142 q 227 -197 222 -182 q 244 -220 233 -212 q 267 -233 256 -228 q 296 -240 277 -238 q 324 -242 315 -242 q 353 -243 334 -243 z "},"İ":{"ha":392,"x_min":73,"x_max":319,"o":"m 73 0 l 73 1221 l 319 1221 l 319 0 l 73 0 m 87 1314 l 87 1529 l 306 1529 l 306 1314 l 87 1314 z "},"ı":{"ha":361,"x_min":84,"x_max":313,"o":"m 84 0 l 84 885 l 313 885 l 313 0 l 84 0 z "},"Ĳ":{"ha":861,"x_min":73,"x_max":788,"o":"m 392 -23 l 392 151 q 511 177 481 149 q 541 295 541 205 l 541 1221 l 788 1221 l 788 293 q 782 179 788 226 q 758 91 775 132 q 709 27 740 51 q 630 -10 679 3 q 513 -23 582 -23 l 392 -23 m 73 0 l 73 1221 l 319 1221 l 319 0 l 73 0 z "},"ĳ":{"ha":747,"x_min":65,"x_max":683,"o":"m 456 962 l 456 1176 l 683 1176 l 683 962 l 456 962 m 345 -193 l 345 -27 q 404 -38 382 -38 q 456 37 456 -38 l 456 885 l 683 885 l 683 18 q 627 -150 683 -89 q 466 -211 571 -211 q 345 -193 415 -211 m 65 962 l 65 1176 l 294 1176 l 294 962 l 65 962 m 65 0 l 65 885 l 294 885 l 294 0 l 65 0 z "},"Ĵ":{"ha":469,"x_min":0,"x_max":502,"o":"m 0 -23 l 0 151 q 119 177 90 149 q 149 295 149 205 l 149 1221 l 396 1221 l 396 293 q 390 179 396 226 q 366 91 383 132 q 317 27 348 51 q 238 -10 287 3 q 121 -23 190 -23 l 0 -23 m 29 1314 l 165 1589 l 362 1589 l 502 1314 l 315 1314 l 264 1451 l 215 1314 l 29 1314 z "},"ĵ":{"ha":435,"x_min":21,"x_max":494,"o":"m 33 -193 l 33 -27 q 92 -38 71 -38 q 144 37 144 -38 l 144 885 l 371 885 l 371 18 q 315 -150 371 -89 q 154 -211 259 -211 q 33 -193 103 -211 m 21 936 l 157 1211 l 354 1211 l 494 936 l 307 936 l 256 1073 l 207 936 l 21 936 z "},"Ķ":{"ha":805,"x_min":73,"x_max":805,"o":"m 73 0 l 73 1221 l 319 1221 l 319 758 l 511 1221 l 787 1221 l 538 721 l 805 0 l 549 0 l 364 558 l 319 443 l 319 0 l 73 0 m 376 -450 l 349 -337 q 359 -337 352 -337 q 383 -337 376 -337 q 395 -331 389 -336 q 402 -315 401 -325 q 404 -285 404 -306 l 329 -285 l 329 -69 l 548 -69 q 549 -146 548 -96 q 549 -248 549 -201 q 542 -332 549 -294 q 520 -397 535 -370 q 477 -438 506 -423 q 406 -452 449 -452 q 376 -450 395 -452 z "},"ķ":{"ha":679,"x_min":67,"x_max":680,"o":"m 67 0 l 67 1221 l 296 1221 l 296 578 l 435 885 l 680 885 l 463 511 l 680 0 l 443 0 l 326 395 l 296 343 l 296 0 l 67 0 z "},"ĸ":{"ha":686,"x_min":67,"x_max":660,"o":"m 67 0 l 67 885 l 296 885 l 296 598 l 435 885 l 660 885 l 476 505 l 659 0 l 429 0 l 319 340 l 296 300 l 296 0 l 67 0 z "},"Ĺ":{"ha":578,"x_min":73,"x_max":574,"o":"m 73 0 l 73 1221 l 319 1221 l 319 170 l 562 170 l 562 0 l 73 0 m 248 1314 l 340 1613 l 574 1613 l 387 1314 l 248 1314 z "},"ĺ":{"ha":359,"x_min":65,"x_max":437,"o":"m 65 0 l 65 1221 l 294 1221 l 294 0 l 65 0 m 111 1290 l 203 1590 l 437 1590 l 249 1290 l 111 1290 z "},"Ļ":{"ha":578,"x_min":73,"x_max":562,"o":"m 73 0 l 73 1221 l 319 1221 l 319 170 l 562 170 l 562 0 l 73 0 m 254 -450 l 227 -337 q 237 -337 231 -337 q 261 -337 255 -337 q 274 -331 268 -336 q 281 -315 280 -325 q 282 -285 282 -306 l 208 -285 l 208 -69 l 427 -69 q 427 -146 427 -96 q 427 -248 427 -201 q 420 -332 427 -294 q 399 -397 414 -370 q 356 -438 385 -423 q 284 -452 328 -452 q 254 -450 273 -452 z "},"ļ":{"ha":359,"x_min":65,"x_max":294,"o":"m 65 0 l 65 1221 l 294 1221 l 294 0 l 65 0 m 116 -450 l 89 -337 q 99 -337 92 -337 q 123 -337 117 -337 q 136 -331 130 -336 q 143 -315 142 -325 q 144 -285 144 -306 l 69 -285 l 69 -69 l 288 -69 q 289 -146 288 -96 q 289 -248 289 -201 q 282 -332 289 -294 q 261 -397 275 -370 q 218 -438 246 -423 q 146 -452 189 -452 q 116 -450 135 -452 z "},"Ľ":{"ha":578,"x_min":73,"x_max":669,"o":"m 73 0 l 73 1221 l 319 1221 l 319 170 l 562 170 l 562 0 l 73 0 m 496 864 l 469 977 q 479 977 472 977 q 503 977 496 977 q 515 983 509 977 q 523 998 522 989 q 524 1029 524 1008 l 449 1029 l 449 1244 l 668 1244 q 668 1185 668 1224 q 668 1069 669 1107 q 659 980 667 1032 q 633 906 650 927 q 581 870 615 884 q 496 864 547 857 z "},"ľ":{"ha":359,"x_min":65,"x_max":617,"o":"m 65 0 l 65 1221 l 294 1221 l 294 0 l 65 0 m 444 840 l 417 953 q 427 953 420 953 q 451 953 445 953 q 464 959 458 954 q 471 975 470 965 q 472 1005 472 984 l 397 1005 l 397 1221 l 616 1221 q 616 1161 616 1200 q 616 1046 617 1083 q 607 956 615 1008 q 581 882 599 903 q 529 847 564 861 q 444 840 495 833 z "},"Ŀ":{"ha":578,"x_min":73,"x_max":644,"o":"m 73 0 l 73 1221 l 319 1221 l 319 170 l 562 170 l 562 0 l 73 0 m 425 515 l 425 729 l 644 729 l 644 515 l 425 515 z "},"ŀ":{"ha":359,"x_min":65,"x_max":626,"o":"m 65 0 l 65 1221 l 294 1221 l 294 0 l 65 0 m 407 460 l 407 674 l 626 674 l 626 460 l 407 460 z "},"Ł":{"ha":580,"x_min":10,"x_max":555,"o":"m 66 0 l 66 602 l 10 581 l 10 705 l 66 726 l 66 1221 l 313 1221 l 313 819 l 487 885 l 487 761 l 313 694 l 313 170 l 555 170 l 555 0 l 66 0 z "},"ł":{"ha":427,"x_min":-12,"x_max":465,"o":"m 111 0 l 111 627 l -12 581 l -12 705 l 111 751 l 111 1221 l 339 1221 l 339 838 l 465 885 l 465 761 l 339 713 l 339 0 l 111 0 z "},"Ń":{"ha":795,"x_min":73,"x_max":723,"o":"m 73 0 l 73 1221 l 250 1221 l 518 583 l 518 1221 l 723 1221 l 723 0 l 552 0 l 285 677 l 285 0 l 73 0 m 329 1314 l 421 1613 l 655 1613 l 467 1314 l 329 1314 z "},"ń":{"ha":682,"x_min":64,"x_max":623,"o":"m 64 0 l 64 885 l 292 885 l 292 823 q 371 882 325 860 q 466 905 416 905 q 550 875 513 905 q 605 803 587 846 q 623 713 623 760 l 623 0 l 394 0 l 394 673 q 356 732 394 732 q 348 731 352 732 q 339 728 343 730 q 331 724 334 726 q 323 718 328 722 q 316 712 318 714 q 309 705 313 710 q 302 698 304 700 q 297 692 301 696 l 292 686 l 292 0 l 64 0 m 274 974 l 366 1274 l 600 1274 l 412 974 l 274 974 z "},"Ņ":{"ha":795,"x_min":73,"x_max":723,"o":"m 73 0 l 73 1221 l 250 1221 l 518 583 l 518 1221 l 723 1221 l 723 0 l 552 0 l 285 677 l 285 0 l 73 0 m 334 -450 l 307 -337 q 317 -337 311 -337 q 341 -337 335 -337 q 354 -331 348 -336 q 361 -315 360 -325 q 362 -285 362 -306 l 288 -285 l 288 -69 l 507 -69 q 507 -146 507 -96 q 507 -248 507 -201 q 500 -332 507 -294 q 479 -397 494 -370 q 436 -438 465 -423 q 364 -452 408 -452 q 334 -450 353 -452 z "},"ņ":{"ha":682,"x_min":64,"x_max":623,"o":"m 64 0 l 64 885 l 292 885 l 292 823 q 371 882 325 860 q 466 905 416 905 q 550 875 513 905 q 605 803 587 846 q 623 713 623 760 l 623 0 l 394 0 l 394 673 q 356 732 394 732 q 348 731 352 732 q 339 728 343 730 q 331 724 334 726 q 323 718 328 722 q 316 712 318 714 q 309 705 313 710 q 302 698 304 700 q 297 692 301 696 l 292 686 l 292 0 l 64 0 m 280 -450 l 253 -337 q 263 -337 256 -337 q 287 -337 281 -337 q 300 -331 294 -336 q 307 -315 306 -325 q 308 -285 308 -306 l 233 -285 l 233 -69 l 452 -69 q 453 -146 452 -96 q 453 -248 453 -201 q 446 -332 453 -294 q 425 -397 439 -370 q 382 -438 410 -423 q 310 -452 353 -452 q 280 -450 299 -452 z "},"Ň":{"ha":795,"x_min":73,"x_max":723,"o":"m 73 0 l 73 1221 l 250 1221 l 518 583 l 518 1221 l 723 1221 l 723 0 l 552 0 l 285 677 l 285 0 l 73 0 m 298 1314 l 161 1589 l 347 1589 l 397 1453 l 448 1589 l 634 1589 l 494 1314 l 298 1314 z "},"ň":{"ha":682,"x_min":64,"x_max":623,"o":"m 64 0 l 64 885 l 292 885 l 292 823 q 371 882 325 860 q 466 905 416 905 q 550 875 513 905 q 605 803 587 846 q 623 713 623 760 l 623 0 l 394 0 l 394 673 q 356 732 394 732 q 348 731 352 732 q 339 728 343 730 q 331 724 334 726 q 323 718 328 722 q 316 712 318 714 q 309 705 313 710 q 302 698 304 700 q 297 692 301 696 l 292 686 l 292 0 l 64 0 m 243 974 l 107 1249 l 293 1249 l 342 1113 l 393 1249 l 580 1249 l 440 974 l 243 974 z "},"Ō":{"ha":828,"x_min":57,"x_max":771,"o":"m 57 401 l 57 812 q 414 1244 57 1244 q 771 812 771 1244 l 771 408 q 760 272 771 334 q 723 155 749 210 q 657 60 697 99 q 555 -1 616 21 q 414 -24 493 -24 q 273 -2 335 -24 q 172 58 212 20 q 105 150 132 96 q 68 267 79 205 q 57 401 57 328 m 524 346 l 524 873 q 414 1054 524 1054 q 357 1037 380 1054 q 323 992 334 1021 q 308 935 313 963 q 304 873 304 907 l 304 346 q 414 166 304 166 q 524 346 524 166 m 242 1314 l 242 1444 l 586 1444 l 586 1314 l 242 1314 z "},"ō":{"ha":660,"x_min":53,"x_max":607,"o":"m 380 227 l 380 665 q 328 732 380 732 q 281 665 281 732 l 281 227 q 282 202 281 212 q 288 179 283 193 q 302 159 292 166 q 328 153 312 153 q 380 227 380 153 m 53 230 l 53 606 q 120 826 53 748 q 328 905 186 905 q 538 826 470 905 q 607 606 607 748 l 607 230 q 525 50 607 119 q 328 -20 443 -20 q 192 11 254 -20 q 91 99 130 41 q 53 230 53 157 m 158 974 l 158 1105 l 502 1105 l 502 974 l 158 974 z "},"Ŏ":{"ha":828,"x_min":57,"x_max":771,"o":"m 57 401 l 57 812 q 414 1244 57 1244 q 771 812 771 1244 l 771 408 q 760 272 771 334 q 723 155 749 210 q 657 60 697 99 q 555 -1 616 21 q 414 -24 493 -24 q 273 -2 335 -24 q 172 58 212 20 q 105 150 132 96 q 68 267 79 205 q 57 401 57 328 m 524 346 l 524 873 q 414 1054 524 1054 q 357 1037 380 1054 q 323 992 334 1021 q 308 935 313 963 q 304 873 304 907 l 304 346 q 414 166 304 166 q 524 346 524 166 m 242 1482 l 359 1482 q 363 1444 359 1463 q 381 1411 368 1426 q 414 1396 394 1396 q 446 1411 433 1396 q 464 1444 459 1426 q 469 1482 469 1463 l 585 1482 q 537 1360 585 1407 q 414 1314 489 1314 q 290 1360 338 1314 q 242 1482 242 1407 z "},"ŏ":{"ha":660,"x_min":53,"x_max":607,"o":"m 380 227 l 380 665 q 328 732 380 732 q 281 665 281 732 l 281 227 q 282 202 281 212 q 288 179 283 193 q 302 159 292 166 q 328 153 312 153 q 380 227 380 153 m 53 230 l 53 606 q 120 826 53 748 q 328 905 186 905 q 538 826 470 905 q 607 606 607 748 l 607 230 q 525 50 607 119 q 328 -20 443 -20 q 192 11 254 -20 q 91 99 130 41 q 53 230 53 157 m 158 1142 l 275 1142 q 279 1105 275 1123 q 297 1071 284 1086 q 330 1056 310 1056 q 362 1071 349 1056 q 380 1105 375 1086 q 385 1142 385 1123 l 501 1142 q 453 1021 501 1067 q 330 974 405 974 q 206 1021 254 974 q 158 1142 158 1067 z "},"Ő":{"ha":828,"x_min":57,"x_max":771,"o":"m 57 401 l 57 812 q 414 1244 57 1244 q 771 812 771 1244 l 771 408 q 760 272 771 334 q 723 155 749 210 q 657 60 697 99 q 555 -1 616 21 q 414 -24 493 -24 q 273 -2 335 -24 q 172 58 212 20 q 105 150 132 96 q 68 267 79 205 q 57 401 57 328 m 524 346 l 524 873 q 414 1054 524 1054 q 357 1037 380 1054 q 323 992 334 1021 q 308 935 313 963 q 304 873 304 907 l 304 346 q 414 166 304 166 q 524 346 524 166 m 451 1314 l 544 1613 l 737 1613 l 591 1314 l 451 1314 m 237 1314 l 330 1613 l 522 1613 l 376 1314 l 237 1314 z "},"ő":{"ha":660,"x_min":53,"x_max":653,"o":"m 380 227 l 380 665 q 328 732 380 732 q 281 665 281 732 l 281 227 q 282 202 281 212 q 288 179 283 193 q 302 159 292 166 q 328 153 312 153 q 380 227 380 153 m 53 230 l 53 606 q 120 826 53 748 q 328 905 186 905 q 538 826 470 905 q 607 606 607 748 l 607 230 q 525 50 607 119 q 328 -20 443 -20 q 192 11 254 -20 q 91 99 130 41 q 53 230 53 157 m 367 974 l 460 1274 l 653 1274 l 507 974 l 367 974 m 153 974 l 245 1274 l 437 1274 l 292 974 l 153 974 z "},"Œ":{"ha":1055,"x_min":57,"x_max":1034,"o":"m 414 172 l 524 172 l 524 1042 l 414 1042 q 357 1026 380 1042 q 323 980 334 1009 q 308 923 313 951 q 304 862 304 895 l 304 351 q 414 172 304 172 m 57 413 l 57 800 q 68 932 57 872 q 104 1047 79 993 q 170 1139 130 1101 q 272 1198 210 1176 q 414 1220 334 1220 l 1034 1220 l 1034 1051 l 771 1051 l 771 719 l 957 719 l 957 545 l 771 545 l 771 170 l 1034 170 l 1034 0 l 414 0 q 57 413 57 0 z "},"œ":{"ha":974,"x_min":56,"x_max":928,"o":"m 612 543 l 701 543 l 701 654 q 656 721 701 721 q 612 654 612 721 l 612 543 m 384 230 l 384 654 q 332 721 384 721 q 285 654 285 721 l 285 235 q 286 210 285 220 q 291 187 287 200 q 305 167 295 174 q 332 160 315 160 q 384 230 382 160 m 56 230 l 56 606 q 123 826 56 748 q 332 905 190 905 q 496 851 429 905 q 669 905 566 905 q 864 826 801 905 q 928 606 928 748 l 928 423 l 612 423 l 612 235 q 656 160 612 160 q 703 260 703 160 q 702 300 703 276 q 701 330 701 323 l 928 330 l 928 230 q 850 50 928 119 q 663 -20 772 -20 q 496 39 572 -20 q 318 -20 415 -20 q 133 50 210 -20 q 56 230 56 119 z "},"Ŕ":{"ha":769,"x_min":73,"x_max":755,"o":"m 319 713 l 390 713 q 439 732 418 713 q 468 780 459 751 q 481 833 477 809 q 485 880 485 858 q 482 924 485 901 q 471 976 479 947 q 445 1022 463 1004 q 401 1040 427 1040 l 319 1040 l 319 713 m 73 0 l 73 1221 l 341 1221 q 502 1203 433 1221 q 624 1149 572 1186 q 703 1049 676 1112 q 730 899 730 987 q 728 831 730 861 q 715 763 725 802 q 688 695 705 725 q 640 637 671 666 q 564 590 608 609 q 755 0 674 241 l 500 0 l 360 562 l 319 562 l 319 0 l 73 0 m 345 1314 l 437 1613 l 671 1613 l 484 1314 l 345 1314 z "},"ŕ":{"ha":484,"x_min":64,"x_max":526,"o":"m 64 0 l 64 885 l 291 885 l 291 813 q 413 898 343 898 q 475 891 433 898 l 475 699 q 386 705 412 705 q 315 676 339 705 q 291 594 291 648 l 291 0 l 64 0 m 200 974 l 292 1274 l 526 1274 l 338 974 l 200 974 z "},"Ŗ":{"ha":769,"x_min":73,"x_max":755,"o":"m 319 713 l 390 713 q 439 732 418 713 q 468 780 459 751 q 481 833 477 809 q 485 880 485 858 q 482 924 485 901 q 471 976 479 947 q 445 1022 463 1004 q 401 1040 427 1040 l 319 1040 l 319 713 m 73 0 l 73 1221 l 341 1221 q 502 1203 433 1221 q 624 1149 572 1186 q 703 1049 676 1112 q 730 899 730 987 q 728 831 730 861 q 715 763 725 802 q 688 695 705 725 q 640 637 671 666 q 564 590 608 609 q 755 0 674 241 l 500 0 l 360 562 l 319 562 l 319 0 l 73 0 m 351 -450 l 323 -337 q 334 -337 327 -337 q 358 -337 351 -337 q 370 -331 364 -336 q 377 -315 376 -325 q 378 -285 378 -306 l 304 -285 l 304 -69 l 523 -69 q 524 -146 523 -96 q 524 -248 524 -201 q 517 -332 524 -294 q 495 -397 510 -370 q 452 -438 481 -423 q 380 -452 424 -452 q 351 -450 370 -452 z "},"ŗ":{"ha":484,"x_min":64,"x_max":475,"o":"m 64 0 l 64 885 l 291 885 l 291 813 q 413 898 343 898 q 475 891 433 898 l 475 699 q 386 705 412 705 q 315 676 339 705 q 291 594 291 648 l 291 0 l 64 0 m 165 -450 l 138 -337 q 149 -337 142 -337 q 173 -337 166 -337 q 185 -331 179 -336 q 192 -315 191 -325 q 193 -285 193 -306 l 119 -285 l 119 -69 l 338 -69 q 338 -146 338 -96 q 338 -248 338 -201 q 332 -332 338 -294 q 310 -397 325 -370 q 267 -438 296 -423 q 195 -452 239 -452 q 165 -450 184 -452 z "},"Ř":{"ha":769,"x_min":73,"x_max":755,"o":"m 319 713 l 390 713 q 439 732 418 713 q 468 780 459 751 q 481 833 477 809 q 485 880 485 858 q 482 924 485 901 q 471 976 479 947 q 445 1022 463 1004 q 401 1040 427 1040 l 319 1040 l 319 713 m 73 0 l 73 1221 l 341 1221 q 502 1203 433 1221 q 624 1149 572 1186 q 703 1049 676 1112 q 730 899 730 987 q 728 831 730 861 q 715 763 725 802 q 688 695 705 725 q 640 637 671 666 q 564 590 608 609 q 755 0 674 241 l 500 0 l 360 562 l 319 562 l 319 0 l 73 0 m 314 1314 l 178 1589 l 363 1589 l 413 1453 l 464 1589 l 650 1589 l 511 1314 l 314 1314 z "},"ř":{"ha":484,"x_min":33,"x_max":505,"o":"m 64 0 l 64 885 l 291 885 l 291 813 q 413 898 343 898 q 475 891 433 898 l 475 699 q 386 705 412 705 q 315 676 339 705 q 291 594 291 648 l 291 0 l 64 0 m 169 974 l 33 1249 l 218 1249 l 268 1113 l 319 1249 l 505 1249 l 366 974 l 169 974 z "},"Ś":{"ha":728,"x_min":31,"x_max":688,"o":"m 31 349 l 281 397 q 282 332 281 360 q 289 270 283 303 q 305 215 295 236 q 333 179 315 193 q 375 164 351 164 q 448 258 448 164 q 304 513 448 386 l 227 578 q 169 629 191 608 q 118 684 147 649 q 72 750 88 718 q 43 828 55 783 q 31 924 31 873 q 125 1159 31 1073 q 376 1246 220 1246 q 596 1154 505 1246 q 687 931 687 1061 l 686 922 q 686 902 686 913 l 431 867 q 432 890 431 874 q 433 916 433 906 q 430 963 433 941 q 419 1008 427 985 q 395 1043 411 1030 q 355 1057 378 1057 q 294 1025 315 1057 q 274 949 274 993 q 286 878 274 911 q 322 816 298 845 q 366 768 346 787 q 420 722 387 749 q 469 682 454 694 q 557 595 521 635 q 625 504 593 555 q 672 394 656 453 q 688 267 688 335 q 597 57 688 138 q 374 -25 505 -25 q 224 6 290 -25 q 118 91 158 37 q 56 210 77 144 q 31 349 34 275 m 298 1315 l 391 1615 l 625 1615 l 437 1315 l 298 1315 z "},"ś":{"ha":593,"x_min":14,"x_max":572,"o":"m 26 214 l 201 276 q 212 244 208 256 q 225 212 216 233 q 244 179 235 191 q 268 158 254 168 q 299 148 283 148 q 342 198 342 148 q 333 236 342 216 q 316 269 325 255 q 284 305 307 283 q 249 338 261 328 q 206 375 237 349 l 169 407 q 55 531 96 470 q 14 667 14 592 q 38 771 14 724 q 102 846 62 817 q 194 889 143 874 q 300 905 244 905 q 395 884 349 905 q 474 828 440 863 q 534 749 509 793 q 572 657 559 705 l 408 601 q 395 634 400 621 q 377 669 389 648 q 354 703 366 690 q 327 726 343 716 q 293 736 311 736 q 256 719 269 736 q 243 680 243 702 q 276 613 243 650 q 366 528 309 576 l 408 491 q 467 434 442 460 q 516 373 492 407 q 554 302 541 339 q 568 227 568 264 q 492 50 568 120 q 309 -20 416 -20 q 130 45 205 -20 q 26 214 55 109 m 214 944 l 306 1244 l 540 1244 l 352 944 l 214 944 z "},"Ŝ":{"ha":728,"x_min":31,"x_max":688,"o":"m 31 349 l 281 397 q 282 332 281 360 q 289 270 283 303 q 305 215 295 236 q 333 179 315 193 q 375 164 351 164 q 448 258 448 164 q 304 513 448 386 l 227 578 q 169 629 191 608 q 118 684 147 649 q 72 750 88 718 q 43 828 55 783 q 31 924 31 873 q 125 1159 31 1073 q 376 1246 220 1246 q 596 1154 505 1246 q 687 931 687 1061 l 686 922 q 686 902 686 913 l 431 867 q 432 890 431 874 q 433 916 433 906 q 430 963 433 941 q 419 1008 427 985 q 395 1043 411 1030 q 355 1057 378 1057 q 294 1025 315 1057 q 274 949 274 993 q 286 878 274 911 q 322 816 298 845 q 366 768 346 787 q 420 722 387 749 q 469 682 454 694 q 557 595 521 635 q 625 504 593 555 q 672 394 656 453 q 688 267 688 335 q 597 57 688 138 q 374 -25 505 -25 q 224 6 290 -25 q 118 91 158 37 q 56 210 77 144 q 31 349 34 275 m 131 1315 l 267 1590 l 464 1590 l 604 1315 l 417 1315 l 366 1452 l 317 1315 l 131 1315 z "},"ŝ":{"ha":593,"x_min":14,"x_max":572,"o":"m 26 214 l 201 276 q 212 244 208 256 q 225 212 216 233 q 244 179 235 191 q 268 158 254 168 q 299 148 283 148 q 342 198 342 148 q 333 236 342 216 q 316 269 325 255 q 284 305 307 283 q 249 338 261 328 q 206 375 237 349 l 169 407 q 55 531 96 470 q 14 667 14 592 q 38 771 14 724 q 102 846 62 817 q 194 889 143 874 q 300 905 244 905 q 395 884 349 905 q 474 828 440 863 q 534 749 509 793 q 572 657 559 705 l 408 601 q 395 634 400 621 q 377 669 389 648 q 354 703 366 690 q 327 726 343 716 q 293 736 311 736 q 256 719 269 736 q 243 680 243 702 q 276 613 243 650 q 366 528 309 576 l 408 491 q 467 434 442 460 q 516 373 492 407 q 554 302 541 339 q 568 227 568 264 q 492 50 568 120 q 309 -20 416 -20 q 130 45 205 -20 q 26 214 55 109 m 66 974 l 202 1249 l 399 1249 l 538 974 l 352 974 l 301 1111 l 252 974 l 66 974 z "},"Ş":{"ha":728,"x_min":31,"x_max":688,"o":"m 31 349 l 281 397 q 282 332 281 360 q 289 270 283 303 q 305 215 295 236 q 333 179 315 193 q 375 164 351 164 q 448 258 448 164 q 304 513 448 386 l 227 578 q 169 629 191 608 q 118 684 147 649 q 72 750 88 718 q 43 828 55 783 q 31 924 31 873 q 125 1159 31 1073 q 376 1246 220 1246 q 596 1154 505 1246 q 687 931 687 1061 l 686 922 q 686 902 686 913 l 431 867 q 432 890 431 874 q 433 916 433 906 q 430 963 433 941 q 419 1008 427 985 q 395 1043 411 1030 q 355 1057 378 1057 q 294 1025 315 1057 q 274 949 274 993 q 286 878 274 911 q 322 816 298 845 q 366 768 346 787 q 420 722 387 749 q 469 682 454 694 q 557 595 521 635 q 625 504 593 555 q 672 394 656 453 q 688 267 688 335 q 597 57 688 138 q 374 -25 505 -25 q 224 6 290 -25 q 118 91 158 37 q 56 210 77 144 q 31 349 34 275 m 271 -393 l 271 -283 q 286 -284 273 -283 q 310 -284 298 -284 q 339 -284 322 -284 q 369 -281 355 -283 q 395 -277 382 -279 q 414 -268 407 -274 q 421 -255 421 -262 q 418 -242 421 -248 q 410 -230 416 -235 q 399 -219 404 -224 q 384 -209 393 -214 q 368 -200 374 -203 q 351 -192 362 -197 q 335 -186 340 -188 q 321 -180 331 -184 q 309 -176 311 -177 l 309 -12 l 425 -12 l 425 -100 q 575 -258 575 -170 q 563 -308 575 -286 q 532 -343 550 -330 q 484 -367 513 -357 q 430 -382 454 -377 q 371 -389 406 -387 q 318 -392 336 -392 q 271 -393 300 -393 z "},"ş":{"ha":593,"x_min":14,"x_max":572,"o":"m 26 214 l 201 276 q 212 244 208 256 q 225 212 216 233 q 244 179 235 191 q 268 158 254 168 q 299 148 283 148 q 342 198 342 148 q 333 236 342 216 q 316 269 325 255 q 284 305 307 283 q 249 338 261 328 q 206 375 237 349 l 169 407 q 55 531 96 470 q 14 667 14 592 q 38 771 14 724 q 102 846 62 817 q 194 889 143 874 q 300 905 244 905 q 395 884 349 905 q 474 828 440 863 q 534 749 509 793 q 572 657 559 705 l 408 601 q 395 634 400 621 q 377 669 389 648 q 354 703 366 690 q 327 726 343 716 q 293 736 311 736 q 256 719 269 736 q 243 680 243 702 q 276 613 243 650 q 366 528 309 576 l 408 491 q 467 434 442 460 q 516 373 492 407 q 554 302 541 339 q 568 227 568 264 q 492 50 568 120 q 309 -20 416 -20 q 130 45 205 -20 q 26 214 55 109 m 206 -387 l 206 -278 q 221 -278 208 -278 q 245 -279 233 -279 q 274 -278 257 -279 q 304 -276 290 -278 q 330 -271 317 -274 q 349 -263 342 -269 q 356 -250 356 -257 q 353 -236 356 -243 q 345 -224 351 -230 q 334 -213 339 -218 q 319 -203 328 -208 q 303 -195 309 -198 q 286 -187 297 -191 q 270 -180 275 -182 q 256 -175 266 -178 q 244 -171 245 -172 l 244 -7 l 360 -7 l 360 -94 q 510 -252 510 -165 q 497 -302 510 -280 q 467 -338 485 -324 q 419 -362 448 -352 q 365 -376 389 -372 q 306 -384 341 -381 q 253 -387 271 -387 q 206 -387 235 -387 z "},"Š":{"ha":728,"x_min":31,"x_max":688,"o":"m 31 349 l 281 397 q 282 332 281 360 q 289 270 283 303 q 305 215 295 236 q 333 179 315 193 q 375 164 351 164 q 448 258 448 164 q 304 513 448 386 l 227 578 q 169 629 191 608 q 118 684 147 649 q 72 750 88 718 q 43 828 55 783 q 31 924 31 873 q 125 1159 31 1073 q 376 1246 220 1246 q 596 1154 505 1246 q 687 931 687 1061 l 686 922 q 686 902 686 913 l 431 867 q 432 890 431 874 q 433 916 433 906 q 430 963 433 941 q 419 1008 427 985 q 395 1043 411 1030 q 355 1057 378 1057 q 294 1025 315 1057 q 274 949 274 993 q 286 878 274 911 q 322 816 298 845 q 366 768 346 787 q 420 722 387 749 q 469 682 454 694 q 557 595 521 635 q 625 504 593 555 q 672 394 656 453 q 688 267 688 335 q 597 57 688 138 q 374 -25 505 -25 q 224 6 290 -25 q 118 91 158 37 q 56 210 77 144 q 31 349 34 275 m 268 1315 l 132 1590 l 317 1590 l 367 1454 l 418 1590 l 604 1590 l 465 1315 l 268 1315 z "},"š":{"ha":593,"x_min":14,"x_max":572,"o":"m 26 214 l 201 276 q 212 244 208 256 q 225 212 216 233 q 244 179 235 191 q 268 158 254 168 q 299 148 283 148 q 342 198 342 148 q 333 236 342 216 q 316 269 325 255 q 284 305 307 283 q 249 338 261 328 q 206 375 237 349 l 169 407 q 55 531 96 470 q 14 667 14 592 q 38 771 14 724 q 102 846 62 817 q 194 889 143 874 q 300 905 244 905 q 395 884 349 905 q 474 828 440 863 q 534 749 509 793 q 572 657 559 705 l 408 601 q 395 634 400 621 q 377 669 389 648 q 354 703 366 690 q 327 726 343 716 q 293 736 311 736 q 256 719 269 736 q 243 680 243 702 q 276 613 243 650 q 366 528 309 576 l 408 491 q 467 434 442 460 q 516 373 492 407 q 554 302 541 339 q 568 227 568 264 q 492 50 568 120 q 309 -20 416 -20 q 130 45 205 -20 q 26 214 55 109 m 190 929 l 54 1204 l 239 1204 l 289 1068 l 340 1204 l 526 1204 l 387 929 l 190 929 z "},"Ť":{"ha":625,"x_min":9,"x_max":611,"o":"m 189 0 l 189 1036 l 9 1036 l 9 1221 l 611 1221 l 611 1036 l 435 1036 l 435 0 l 189 0 m 212 1314 l 76 1589 l 262 1589 l 311 1453 l 362 1589 l 549 1589 l 409 1314 l 212 1314 z "},"ť":{"ha":453,"x_min":14,"x_max":692,"o":"m 79 304 l 79 732 l 14 732 l 14 885 l 79 885 l 79 1176 l 308 1176 l 308 885 l 418 885 l 418 732 l 308 732 l 308 249 q 321 194 308 212 q 370 176 335 176 q 436 180 409 176 l 436 3 q 292 -10 391 -10 q 219 -1 252 -10 q 165 25 187 9 q 127 65 143 41 q 102 115 111 90 q 88 174 93 140 q 81 237 83 208 q 79 304 79 267 m 519 795 l 492 908 q 502 908 495 908 q 526 908 519 908 q 538 915 532 909 q 546 930 545 920 q 547 960 547 939 l 472 960 l 472 1176 l 691 1176 q 691 1116 691 1156 q 691 1001 692 1038 q 682 911 690 964 q 656 837 673 859 q 604 802 638 816 q 519 795 570 788 z "},"Ũ":{"ha":846,"x_min":67,"x_max":779,"o":"m 307 1335 l 194 1335 q 196 1396 194 1369 q 207 1450 199 1422 q 228 1496 215 1478 q 264 1526 241 1514 q 319 1537 288 1537 q 438 1518 369 1537 q 524 1498 508 1498 q 540 1503 534 1498 q 547 1513 546 1508 q 547 1529 547 1518 l 652 1529 q 547 1327 652 1327 q 443 1352 513 1327 q 340 1377 372 1377 q 323 1374 330 1377 q 314 1368 317 1371 q 309 1357 311 1365 q 307 1347 307 1349 q 307 1335 307 1345 m 67 454 l 67 1221 l 314 1221 l 314 461 q 315 367 314 396 q 318 295 315 337 q 328 235 321 252 q 346 199 334 218 q 377 173 358 179 q 423 167 396 167 q 469 173 450 167 q 500 198 488 179 q 519 235 512 218 q 528 293 526 252 q 532 364 531 335 q 532 457 532 393 q 532 461 532 460 l 532 1221 l 779 1221 l 779 454 q 776 348 779 395 q 763 250 772 300 q 737 160 753 199 q 694 85 721 121 q 630 26 667 50 q 541 -10 593 3 q 423 -24 488 -24 q 306 -10 358 -24 q 217 26 254 3 q 153 85 180 50 q 110 160 126 121 q 84 250 94 199 q 71 348 74 300 q 67 454 67 395 z "},"ũ":{"ha":682,"x_min":59,"x_max":618,"o":"m 222 995 l 109 995 q 112 1056 109 1029 q 122 1110 114 1082 q 143 1156 130 1138 q 180 1186 157 1175 q 235 1198 203 1198 q 354 1178 284 1198 q 439 1158 423 1158 q 455 1163 450 1158 q 462 1174 461 1168 q 463 1190 463 1179 l 568 1190 q 462 987 568 987 q 358 1012 428 987 q 256 1037 288 1037 q 239 1034 245 1037 q 229 1028 232 1031 q 224 1017 226 1025 q 222 1007 222 1009 q 222 995 222 1005 m 59 172 l 59 885 l 288 885 l 288 227 q 319 153 288 153 q 390 203 349 153 l 390 885 l 618 885 l 618 0 l 390 0 l 390 77 q 309 7 355 35 q 216 -20 263 -20 q 102 40 146 -20 q 59 172 59 99 z "},"Ū":{"ha":846,"x_min":67,"x_max":779,"o":"m 67 454 l 67 1221 l 314 1221 l 314 461 q 315 367 314 396 q 318 295 315 337 q 328 235 321 252 q 346 199 334 218 q 377 173 358 179 q 423 167 396 167 q 469 173 450 167 q 500 198 488 179 q 519 235 512 218 q 528 293 526 252 q 532 364 531 335 q 532 457 532 393 q 532 461 532 460 l 532 1221 l 779 1221 l 779 454 q 776 348 779 395 q 763 250 772 300 q 737 160 753 199 q 694 85 721 121 q 630 26 667 50 q 541 -10 593 3 q 423 -24 488 -24 q 306 -10 358 -24 q 217 26 254 3 q 153 85 180 50 q 110 160 126 121 q 84 250 94 199 q 71 348 74 300 q 67 454 67 395 m 251 1314 l 251 1444 l 595 1444 l 595 1314 l 251 1314 z "},"ū":{"ha":682,"x_min":59,"x_max":618,"o":"m 59 172 l 59 885 l 288 885 l 288 227 q 319 153 288 153 q 390 203 349 153 l 390 885 l 618 885 l 618 0 l 390 0 l 390 77 q 309 7 355 35 q 216 -20 263 -20 q 102 40 146 -20 q 59 172 59 99 m 168 988 l 168 1119 l 511 1119 l 511 988 l 168 988 z "},"Ŭ":{"ha":846,"x_min":67,"x_max":779,"o":"m 67 454 l 67 1221 l 314 1221 l 314 461 q 315 367 314 396 q 318 295 315 337 q 328 235 321 252 q 346 199 334 218 q 377 173 358 179 q 423 167 396 167 q 469 173 450 167 q 500 198 488 179 q 519 235 512 218 q 528 293 526 252 q 532 364 531 335 q 532 457 532 393 q 532 461 532 460 l 532 1221 l 779 1221 l 779 454 q 776 348 779 395 q 763 250 772 300 q 737 160 753 199 q 694 85 721 121 q 630 26 667 50 q 541 -10 593 3 q 423 -24 488 -24 q 306 -10 358 -24 q 217 26 254 3 q 153 85 180 50 q 110 160 126 121 q 84 250 94 199 q 71 348 74 300 q 67 454 67 395 m 252 1482 l 368 1482 q 373 1444 368 1463 q 391 1411 378 1426 q 423 1396 404 1396 q 456 1411 443 1396 q 473 1444 469 1426 q 478 1482 478 1463 l 595 1482 q 547 1360 595 1407 q 423 1314 498 1314 q 300 1360 348 1314 q 252 1482 252 1407 z "},"ŭ":{"ha":682,"x_min":59,"x_max":618,"o":"m 59 172 l 59 885 l 288 885 l 288 227 q 319 153 288 153 q 390 203 349 153 l 390 885 l 618 885 l 618 0 l 390 0 l 390 77 q 309 7 355 35 q 216 -20 263 -20 q 102 40 146 -20 q 59 172 59 99 m 168 1142 l 284 1142 q 289 1105 284 1123 q 307 1071 294 1086 q 339 1056 319 1056 q 372 1071 359 1056 q 389 1105 385 1086 q 394 1142 394 1123 l 511 1142 q 463 1021 511 1067 q 339 974 414 974 q 216 1021 264 974 q 168 1142 168 1067 z "},"Ů":{"ha":846,"x_min":67,"x_max":779,"o":"m 67 454 l 67 1221 l 314 1221 l 314 461 q 315 367 314 396 q 318 295 315 337 q 328 235 321 252 q 346 199 334 218 q 377 173 358 179 q 423 167 396 167 q 469 173 450 167 q 500 198 488 179 q 519 235 512 218 q 528 293 526 252 q 532 364 531 335 q 532 457 532 393 q 532 461 532 460 l 532 1221 l 779 1221 l 779 454 q 776 348 779 395 q 763 250 772 300 q 737 160 753 199 q 694 85 721 121 q 630 26 667 50 q 541 -10 593 3 q 423 -24 488 -24 q 306 -10 358 -24 q 217 26 254 3 q 153 85 180 50 q 110 160 126 121 q 84 250 94 199 q 71 348 74 300 q 67 454 67 395 m 300 1358 q 276 1380 300 1358 q 252 1476 252 1402 q 300 1594 252 1550 q 423 1638 349 1638 q 546 1594 498 1638 q 595 1476 595 1550 q 546 1358 595 1402 q 423 1314 498 1314 q 300 1358 349 1314 m 423 1396 q 463 1421 450 1396 q 476 1475 476 1446 q 463 1530 476 1504 q 423 1556 450 1556 q 382 1531 396 1556 q 368 1476 368 1506 q 382 1421 368 1446 q 423 1396 395 1396 z "},"ů":{"ha":682,"x_min":59,"x_max":618,"o":"m 59 172 l 59 885 l 288 885 l 288 227 q 319 153 288 153 q 390 203 349 153 l 390 885 l 618 885 l 618 0 l 390 0 l 390 77 q 309 7 355 35 q 216 -20 263 -20 q 102 40 146 -20 q 59 172 59 99 m 216 1018 q 192 1040 216 1018 q 168 1136 168 1062 q 216 1254 168 1210 q 339 1298 264 1298 q 462 1254 414 1298 q 511 1136 511 1210 q 462 1018 511 1062 q 339 974 414 974 q 216 1018 264 974 m 339 1056 q 379 1081 366 1056 q 392 1135 392 1106 q 379 1190 392 1164 q 339 1216 366 1216 q 298 1191 312 1216 q 284 1137 284 1166 q 298 1081 284 1106 q 339 1056 311 1056 z "},"Ű":{"ha":846,"x_min":67,"x_max":779,"o":"m 67 454 l 67 1221 l 314 1221 l 314 461 q 315 367 314 396 q 318 295 315 337 q 328 235 321 252 q 346 199 334 218 q 377 173 358 179 q 423 167 396 167 q 469 173 450 167 q 500 198 488 179 q 519 235 512 218 q 528 293 526 252 q 532 364 531 335 q 532 457 532 393 q 532 461 532 460 l 532 1221 l 779 1221 l 779 454 q 776 348 779 395 q 763 250 772 300 q 737 160 753 199 q 694 85 721 121 q 630 26 667 50 q 541 -10 593 3 q 423 -24 488 -24 q 306 -10 358 -24 q 217 26 254 3 q 153 85 180 50 q 110 160 126 121 q 84 250 94 199 q 71 348 74 300 q 67 454 67 395 m 460 1314 l 553 1613 l 747 1613 l 601 1314 l 460 1314 m 246 1314 l 339 1613 l 531 1613 l 385 1314 l 246 1314 z "},"ű":{"ha":682,"x_min":59,"x_max":662,"o":"m 59 172 l 59 885 l 288 885 l 288 227 q 319 153 288 153 q 390 203 349 153 l 390 885 l 618 885 l 618 0 l 390 0 l 390 77 q 309 7 355 35 q 216 -20 263 -20 q 102 40 146 -20 q 59 172 59 99 m 376 974 l 469 1274 l 662 1274 l 516 974 l 376 974 m 161 974 l 254 1274 l 446 1274 l 300 974 l 161 974 z "},"Ų":{"ha":846,"x_min":67,"x_max":779,"o":"m 67 454 l 67 1221 l 314 1221 l 314 461 q 315 367 314 396 q 318 295 315 337 q 328 235 321 252 q 346 199 334 218 q 377 173 358 179 q 423 167 396 167 q 469 173 450 167 q 500 198 488 179 q 519 235 512 218 q 528 293 526 252 q 532 364 531 335 q 532 457 532 393 q 532 461 532 460 l 532 1221 l 779 1221 l 779 454 q 776 348 779 395 q 763 250 772 300 q 737 160 753 199 q 694 85 721 121 q 630 26 667 50 q 541 -10 593 3 q 423 -24 488 -24 q 306 -10 358 -24 q 217 26 254 3 q 153 85 180 50 q 110 160 126 121 q 84 250 94 199 q 71 348 74 300 q 67 454 67 395 m 555 -265 l 541 -374 q 483 -374 513 -376 q 422 -369 452 -372 q 365 -355 392 -366 q 316 -328 337 -344 q 283 -285 295 -313 q 271 -222 271 -258 q 300 -111 271 -170 q 373 -12 330 -52 l 473 -12 q 458 -53 469 -25 q 441 -98 447 -81 q 430 -139 435 -115 q 425 -186 425 -164 q 430 -219 425 -205 q 447 -242 435 -234 q 470 -255 459 -250 q 499 -262 480 -260 q 527 -265 517 -264 q 555 -265 536 -265 z "},"ų":{"ha":682,"x_min":59,"x_max":618,"o":"m 59 172 l 59 885 l 288 885 l 288 227 q 319 153 288 153 q 390 203 349 153 l 390 885 l 618 885 l 618 0 l 390 0 l 390 77 q 309 7 355 35 q 216 -20 263 -20 q 102 40 146 -20 q 59 172 59 99 m 612 -248 l 598 -357 q 539 -357 570 -359 q 479 -352 509 -355 q 421 -338 449 -349 q 373 -311 394 -327 q 340 -268 352 -296 q 328 -205 328 -241 q 357 -94 328 -153 q 430 5 387 -35 l 530 5 q 515 -36 526 -8 q 498 -81 504 -64 q 487 -122 492 -98 q 481 -169 481 -147 q 487 -202 481 -188 q 504 -225 492 -217 q 527 -238 516 -233 q 556 -245 537 -243 q 584 -248 574 -248 q 612 -248 593 -248 z "},"Ŵ":{"ha":1008,"x_min":14,"x_max":979,"o":"m 183 0 l 14 1221 l 224 1221 l 300 412 l 405 1221 l 586 1221 l 688 417 l 768 1221 l 979 1221 l 808 0 l 597 0 l 494 799 l 394 0 l 183 0 m 268 1314 l 404 1589 l 601 1589 l 741 1314 l 554 1314 l 503 1451 l 454 1314 l 268 1314 z "},"ŵ":{"ha":863,"x_min":18,"x_max":845,"o":"m 148 0 l 18 885 l 209 885 l 279 339 l 353 885 l 525 885 l 591 328 l 669 885 l 845 885 l 714 0 l 517 0 l 434 523 l 345 0 l 148 0 m 195 974 l 332 1249 l 528 1249 l 668 974 l 481 974 l 431 1111 l 381 974 l 195 974 z "},"Ŷ":{"ha":702,"x_min":-1,"x_max":697,"o":"m 229 0 l 229 404 l -1 1221 l 232 1221 l 346 684 q 409 952 367 772 q 471 1221 451 1133 l 697 1221 l 467 404 l 467 0 l 229 0 m 115 1314 l 251 1589 l 448 1589 l 587 1314 l 401 1314 l 350 1451 l 300 1314 l 115 1314 z "},"ŷ":{"ha":591,"x_min":12,"x_max":584,"o":"m 183 79 q 147 338 183 168 q 64 687 111 508 q 12 885 16 866 l 220 885 l 302 391 l 374 885 l 584 885 l 391 -24 q 359 -104 380 -70 q 312 -158 338 -138 q 247 -191 285 -178 q 173 -207 210 -203 q 88 -211 136 -211 l 59 -211 l 59 -53 q 155 -21 127 -52 q 183 79 183 10 m 62 974 l 198 1249 l 395 1249 l 534 974 l 348 974 l 297 1111 l 248 974 l 62 974 z "},"Ÿ":{"ha":702,"x_min":-1,"x_max":697,"o":"m 229 0 l 229 404 l -1 1221 l 232 1221 l 346 684 q 409 952 367 772 q 471 1221 451 1133 l 697 1221 l 467 404 l 467 0 l 229 0 m 401 1314 l 401 1522 l 608 1522 l 608 1314 l 401 1314 m 94 1314 l 94 1522 l 300 1522 l 300 1314 l 94 1314 z "},"Ź":{"ha":677,"x_min":54,"x_max":618,"o":"m 54 0 l 54 155 l 376 1050 l 92 1050 l 92 1220 l 618 1220 l 618 1065 l 294 170 l 618 170 l 618 0 l 54 0 m 267 1314 l 359 1613 l 593 1613 l 405 1314 l 267 1314 z "},"ź":{"ha":551,"x_min":39,"x_max":518,"o":"m 39 0 l 39 155 l 282 720 l 77 720 l 77 885 l 518 885 l 518 734 l 273 165 l 518 165 l 518 0 l 39 0 m 191 945 l 283 1244 l 517 1244 l 330 945 l 191 945 z "},"Ż":{"ha":677,"x_min":54,"x_max":618,"o":"m 54 0 l 54 155 l 376 1050 l 92 1050 l 92 1220 l 618 1220 l 618 1065 l 294 170 l 618 170 l 618 0 l 54 0 m 260 1314 l 260 1529 l 479 1529 l 479 1314 l 260 1314 z "},"ż":{"ha":551,"x_min":39,"x_max":518,"o":"m 39 0 l 39 155 l 282 720 l 77 720 l 77 885 l 518 885 l 518 734 l 273 165 l 518 165 l 518 0 l 39 0 m 166 1017 l 166 1232 l 385 1232 l 385 1017 l 166 1017 z "},"Ž":{"ha":677,"x_min":54,"x_max":618,"o":"m 54 0 l 54 155 l 376 1050 l 92 1050 l 92 1220 l 618 1220 l 618 1065 l 294 170 l 618 170 l 618 0 l 54 0 m 277 1314 l 140 1589 l 326 1589 l 376 1453 l 427 1589 l 613 1589 l 473 1314 l 277 1314 z "},"ž":{"ha":551,"x_min":39,"x_max":546,"o":"m 39 0 l 39 155 l 282 720 l 77 720 l 77 885 l 518 885 l 518 734 l 273 165 l 518 165 l 518 0 l 39 0 m 210 939 l 73 1215 l 259 1215 l 309 1078 l 359 1215 l 546 1215 l 406 939 l 210 939 z "},"ƒ":{"ha":498,"x_min":10,"x_max":444,"o":"m 10 -165 l 10 -37 q 68 -43 52 -43 q 101 -37 87 -43 q 122 -22 115 -31 q 134 2 130 -13 q 139 32 138 18 q 140 65 140 45 l 140 732 l 44 732 l 44 885 l 140 885 l 140 911 q 141 968 140 949 q 145 1019 141 987 q 156 1069 149 1052 q 177 1110 163 1087 q 212 1144 191 1133 q 264 1163 233 1155 q 337 1172 296 1172 q 444 1164 379 1172 l 444 1035 q 414 1039 435 1036 q 386 1042 393 1042 q 353 1036 367 1042 q 332 1020 340 1029 q 320 996 325 1011 q 315 967 316 981 q 314 933 314 953 l 314 885 l 435 885 l 435 732 l 314 732 l 314 87 q 314 31 314 50 q 310 -21 313 12 q 299 -71 306 -54 q 277 -112 292 -89 q 242 -145 263 -134 q 190 -165 222 -157 q 117 -174 159 -174 q 10 -165 75 -174 z "},"Ǆ":{"ha":1466,"x_min":73,"x_max":1407,"o":"m 844 0 l 844 155 l 1166 1050 l 881 1050 l 881 1220 l 1407 1220 l 1407 1065 l 1084 170 l 1407 170 l 1407 0 l 844 0 m 1066 1314 l 930 1589 l 1116 1589 l 1165 1453 l 1216 1589 l 1402 1589 l 1263 1314 l 1066 1314 m 73 0 l 73 1221 l 328 1221 q 529 1199 450 1221 q 653 1126 608 1177 q 715 1005 698 1076 q 732 825 732 935 l 732 425 q 728 312 732 360 q 713 217 724 263 q 683 138 702 170 q 633 78 663 106 q 559 34 602 50 q 458 9 516 18 q 325 0 400 0 l 73 0 m 329 173 q 385 174 364 173 q 425 179 405 175 q 455 190 446 183 q 473 211 465 197 q 483 243 481 224 q 486 290 486 262 l 486 947 q 450 1027 486 1007 q 329 1047 414 1046 l 329 173 z "},"ǅ":{"ha":1341,"x_min":73,"x_max":1335,"o":"m 828 0 l 828 155 l 1072 720 l 866 720 l 866 885 l 1308 885 l 1308 734 l 1062 165 l 1308 165 l 1308 0 l 828 0 m 999 939 l 863 1215 l 1048 1215 l 1098 1078 l 1149 1215 l 1335 1215 l 1196 939 l 999 939 m 73 0 l 73 1221 l 328 1221 q 529 1199 450 1221 q 653 1126 608 1177 q 715 1005 698 1076 q 732 825 732 935 l 732 425 q 728 312 732 360 q 713 217 724 263 q 683 138 702 170 q 633 78 663 106 q 559 34 602 50 q 458 9 516 18 q 325 0 400 0 l 73 0 m 329 173 q 385 174 364 173 q 425 179 405 175 q 455 190 446 183 q 473 211 465 197 q 483 243 481 224 q 486 290 486 262 l 486 947 q 450 1027 486 1007 q 329 1047 414 1046 l 329 173 z "},"ǆ":{"ha":1229,"x_min":54,"x_max":1223,"o":"m 716 0 l 716 155 l 960 720 l 754 720 l 754 885 l 1196 885 l 1196 734 l 950 165 l 1196 165 l 1196 0 l 716 0 m 887 939 l 751 1215 l 937 1215 l 986 1078 l 1037 1215 l 1223 1215 l 1084 939 l 887 939 m 54 170 l 54 692 q 106 841 54 777 q 237 905 159 905 q 318 883 280 905 q 385 825 357 861 l 385 1221 l 613 1221 l 613 0 l 385 0 l 385 66 q 317 3 357 26 q 231 -20 276 -20 q 104 37 155 -20 q 54 170 54 94 m 385 201 l 385 682 q 320 732 346 732 q 282 674 282 732 l 282 216 q 284 186 282 198 q 295 163 286 174 q 320 153 304 153 q 385 201 349 153 z "},"Ǉ":{"ha":1037,"x_min":73,"x_max":964,"o":"m 568 -23 l 568 151 q 688 177 658 149 q 718 295 718 205 l 718 1221 l 964 1221 l 964 293 q 958 179 964 226 q 934 91 951 132 q 886 27 916 51 q 807 -10 855 3 q 690 -23 758 -23 l 568 -23 m 73 0 l 73 1221 l 319 1221 l 319 170 l 562 170 l 562 0 l 73 0 z "},"ǈ":{"ha":956,"x_min":73,"x_max":892,"o":"m 665 962 l 665 1176 l 892 1176 l 892 962 l 665 962 m 554 -193 l 554 -27 q 614 -38 592 -38 q 665 37 665 -38 l 665 885 l 892 885 l 892 18 q 837 -150 892 -89 q 675 -211 781 -211 q 554 -193 625 -211 m 73 0 l 73 1221 l 319 1221 l 319 170 l 562 170 l 562 0 l 73 0 z "},"ǉ":{"ha":747,"x_min":65,"x_max":683,"o":"m 456 962 l 456 1176 l 683 1176 l 683 962 l 456 962 m 345 -193 l 345 -27 q 404 -38 382 -38 q 456 37 456 -38 l 456 885 l 683 885 l 683 18 q 627 -150 683 -89 q 466 -211 571 -211 q 345 -193 415 -211 m 65 0 l 65 1221 l 294 1221 l 294 0 l 65 0 z "},"Ǌ":{"ha":1264,"x_min":73,"x_max":1192,"o":"m 795 -23 l 795 151 q 915 177 885 149 q 945 295 945 205 l 945 1221 l 1192 1221 l 1192 293 q 1185 179 1192 226 q 1161 91 1179 132 q 1113 27 1143 51 q 1034 -10 1082 3 q 917 -23 985 -23 l 795 -23 m 73 0 l 73 1221 l 250 1221 l 518 583 l 518 1221 l 723 1221 l 723 0 l 552 0 l 285 677 l 285 0 l 73 0 z "},"ǋ":{"ha":1183,"x_min":73,"x_max":1120,"o":"m 892 962 l 892 1176 l 1120 1176 l 1120 962 l 892 962 m 781 -193 l 781 -27 q 841 -38 819 -38 q 892 37 892 -38 l 892 885 l 1120 885 l 1120 18 q 1064 -150 1120 -89 q 903 -211 1008 -211 q 781 -193 852 -211 m 73 0 l 73 1221 l 250 1221 l 518 583 l 518 1221 l 723 1221 l 723 0 l 552 0 l 285 677 l 285 0 l 73 0 z "},"ǌ":{"ha":1069,"x_min":64,"x_max":1006,"o":"m 779 962 l 779 1176 l 1006 1176 l 1006 962 l 779 962 m 667 -193 l 667 -27 q 727 -38 705 -38 q 779 37 779 -38 l 779 885 l 1006 885 l 1006 18 q 950 -150 1006 -89 q 789 -211 894 -211 q 667 -193 738 -211 m 64 0 l 64 885 l 292 885 l 292 823 q 371 882 325 860 q 466 905 416 905 q 550 875 513 905 q 605 803 587 846 q 623 713 623 760 l 623 0 l 394 0 l 394 673 q 356 732 394 732 q 348 731 352 732 q 339 728 343 730 q 331 724 334 726 q 323 718 328 722 q 316 712 318 714 q 309 705 313 710 q 302 698 304 700 q 297 692 301 696 l 292 686 l 292 0 l 64 0 z "},"Ǳ":{"ha":1466,"x_min":73,"x_max":1407,"o":"m 844 0 l 844 155 l 1166 1050 l 881 1050 l 881 1220 l 1407 1220 l 1407 1065 l 1084 170 l 1407 170 l 1407 0 l 844 0 m 73 0 l 73 1221 l 328 1221 q 529 1199 450 1221 q 653 1126 608 1177 q 715 1005 698 1076 q 732 825 732 935 l 732 425 q 728 312 732 360 q 713 217 724 263 q 683 138 702 170 q 633 78 663 106 q 559 34 602 50 q 458 9 516 18 q 325 0 400 0 l 73 0 m 329 173 q 385 174 364 173 q 425 179 405 175 q 455 190 446 183 q 473 211 465 197 q 483 243 481 224 q 486 290 486 262 l 486 947 q 450 1027 486 1007 q 329 1047 414 1046 l 329 173 z "},"ǲ":{"ha":1341,"x_min":73,"x_max":1308,"o":"m 828 0 l 828 155 l 1072 720 l 866 720 l 866 885 l 1308 885 l 1308 734 l 1062 165 l 1308 165 l 1308 0 l 828 0 m 73 0 l 73 1221 l 328 1221 q 529 1199 450 1221 q 653 1126 608 1177 q 715 1005 698 1076 q 732 825 732 935 l 732 425 q 728 312 732 360 q 713 217 724 263 q 683 138 702 170 q 633 78 663 106 q 559 34 602 50 q 458 9 516 18 q 325 0 400 0 l 73 0 m 329 173 q 385 174 364 173 q 425 179 405 175 q 455 190 446 183 q 473 211 465 197 q 483 243 481 224 q 486 290 486 262 l 486 947 q 450 1027 486 1007 q 329 1047 414 1046 l 329 173 z "},"ǳ":{"ha":1229,"x_min":54,"x_max":1196,"o":"m 716 0 l 716 155 l 960 720 l 754 720 l 754 885 l 1196 885 l 1196 734 l 950 165 l 1196 165 l 1196 0 l 716 0 m 54 170 l 54 692 q 106 841 54 777 q 237 905 159 905 q 318 883 280 905 q 385 825 357 861 l 385 1221 l 613 1221 l 613 0 l 385 0 l 385 66 q 317 3 357 26 q 231 -20 276 -20 q 104 37 155 -20 q 54 170 54 94 m 385 201 l 385 682 q 320 732 346 732 q 282 674 282 732 l 282 216 q 284 186 282 198 q 295 163 286 174 q 320 153 304 153 q 385 201 349 153 z "},"Ǵ":{"ha":840,"x_min":57,"x_max":777,"o":"m 57 382 l 57 812 q 417 1244 57 1244 q 552 1224 493 1244 q 652 1169 612 1204 q 718 1082 692 1134 q 755 970 743 1031 q 766 838 766 910 l 766 766 l 530 766 l 530 851 q 529 907 530 883 q 520 961 527 931 q 502 1009 513 990 q 469 1041 490 1028 q 417 1054 447 1054 q 304 873 304 1054 l 304 347 q 417 167 304 167 q 530 353 530 167 l 530 451 l 390 451 l 390 628 l 777 628 l 777 0 l 607 0 l 576 85 q 487 6 545 37 q 368 -24 429 -24 q 249 0 302 -24 q 160 64 195 24 q 101 157 125 104 q 67 267 77 211 q 57 382 57 323 m 348 1314 l 440 1613 l 674 1613 l 486 1314 l 348 1314 z "},"ǵ":{"ha":654,"x_min":15,"x_max":671,"o":"m 243 54 l 227 54 q 196 -31 196 5 q 347 -71 196 -71 q 351 -71 348 -71 q 428 -25 428 -72 q 419 4 428 -9 q 393 26 410 18 q 359 39 376 34 q 317 47 342 45 q 278 52 293 50 q 243 54 264 53 m 313 429 q 369 586 369 429 q 317 747 369 747 q 294 741 304 747 q 278 720 284 734 q 269 691 273 706 q 263 655 265 677 q 261 617 262 633 q 261 577 261 601 q 313 429 261 429 m 222 230 q 246 203 222 214 q 307 185 269 192 q 389 170 344 178 q 479 151 434 163 q 562 122 525 139 q 623 75 600 105 q 646 3 646 44 q 630 -95 646 -53 q 586 -163 613 -138 q 517 -204 558 -189 q 435 -225 477 -220 q 341 -231 393 -231 q 15 -72 15 -231 q 41 21 15 -25 q 108 98 66 68 q 54 131 80 112 q 28 168 28 151 q 119 321 28 207 q 50 575 50 448 q 65 697 50 640 q 111 802 80 755 q 196 878 142 850 q 319 905 249 905 q 476 849 423 905 q 642 905 526 905 l 671 905 l 652 742 q 555 712 585 742 q 583 558 583 661 q 565 444 583 498 q 514 347 547 389 q 428 281 480 305 q 311 256 375 256 q 281 259 299 256 q 250 264 262 262 l 238 267 q 222 230 222 236 m 273 975 l 366 1274 l 600 1274 l 412 975 l 273 975 z "},"Ȁ":{"ha":770,"x_min":6,"x_max":751,"o":"m 315 413 l 441 413 l 380 866 l 315 413 m 6 0 l 270 1221 l 488 1221 l 751 0 l 508 0 l 458 261 l 298 261 l 251 0 l 6 0 m 423 1314 l 277 1613 l 469 1613 l 562 1314 l 423 1314 m 208 1314 l 62 1613 l 255 1613 l 348 1314 l 208 1314 z "},"ȁ":{"ha":662,"x_min":12,"x_max":629,"o":"m 374 200 l 374 418 q 262 218 262 327 q 272 172 262 191 q 308 153 283 153 q 336 162 322 153 q 356 178 350 171 q 374 200 362 184 m 420 0 l 398 92 q 334 5 378 30 q 222 -20 289 -20 q 137 -1 174 -20 q 80 51 100 18 q 49 120 59 83 q 39 197 39 157 q 49 283 39 243 q 73 352 58 322 q 114 410 87 382 q 164 457 140 438 q 228 497 189 477 q 297 532 267 518 q 374 565 328 546 l 374 640 q 362 709 374 686 q 323 732 351 732 q 292 725 304 732 q 275 701 280 717 q 269 673 271 686 q 268 640 268 661 l 268 589 l 46 589 q 123 824 46 742 q 345 905 199 905 q 524 831 447 905 q 600 656 600 758 l 600 235 q 629 0 600 126 l 420 0 m 373 975 l 227 1274 l 419 1274 l 512 975 l 373 975 m 157 975 l 12 1274 l 205 1274 l 298 975 l 157 975 z "},"Ȃ":{"ha":770,"x_min":6,"x_max":751,"o":"m 315 413 l 441 413 l 380 866 l 315 413 m 6 0 l 270 1221 l 488 1221 l 751 0 l 508 0 l 458 261 l 298 261 l 251 0 l 6 0 m 330 1314 l 214 1314 q 262 1435 214 1388 q 385 1482 310 1482 q 509 1435 460 1482 q 557 1314 557 1388 l 440 1314 q 435 1351 440 1333 q 418 1384 431 1369 q 385 1400 405 1400 q 353 1384 366 1400 q 335 1351 340 1369 q 330 1314 330 1333 z "},"ȃ":{"ha":662,"x_min":39,"x_max":629,"o":"m 374 200 l 374 418 q 262 218 262 327 q 272 172 262 191 q 308 153 283 153 q 336 162 322 153 q 356 178 350 171 q 374 200 362 184 m 420 0 l 398 92 q 334 5 378 30 q 222 -20 289 -20 q 137 -1 174 -20 q 80 51 100 18 q 49 120 59 83 q 39 197 39 157 q 49 283 39 243 q 73 352 58 322 q 114 410 87 382 q 164 457 140 438 q 228 497 189 477 q 297 532 267 518 q 374 565 328 546 l 374 640 q 362 709 374 686 q 323 732 351 732 q 292 725 304 732 q 275 701 280 717 q 269 673 271 686 q 268 640 268 661 l 268 589 l 46 589 q 123 824 46 742 q 345 905 199 905 q 524 831 447 905 q 600 656 600 758 l 600 235 q 629 0 600 126 l 420 0 m 279 975 l 163 975 q 211 1096 163 1049 q 334 1143 259 1143 q 458 1096 410 1143 q 506 975 506 1049 l 389 975 q 385 1012 389 994 q 367 1045 380 1030 q 334 1061 354 1061 q 302 1045 315 1061 q 284 1012 289 1030 q 279 975 279 994 z "},"Ȅ":{"ha":603,"x_min":4,"x_max":582,"o":"m 73 0 l 73 1221 l 582 1221 l 582 1051 l 319 1051 l 319 719 l 505 719 l 505 545 l 319 545 l 319 170 l 582 170 l 582 0 l 73 0 m 366 1314 l 220 1613 l 412 1613 l 505 1314 l 366 1314 m 150 1314 l 4 1613 l 197 1613 l 290 1314 l 150 1314 z "},"ȅ":{"ha":637,"x_min":2,"x_max":597,"o":"m 281 543 l 370 543 l 370 665 q 325 732 370 732 q 281 665 281 732 l 281 543 m 53 230 l 53 606 q 120 826 53 747 q 325 905 187 905 q 530 827 463 905 q 597 606 597 748 l 597 423 l 281 423 l 281 227 q 325 153 281 153 q 372 233 372 153 l 372 330 l 597 330 l 597 230 q 517 50 597 119 q 325 -20 437 -20 q 133 50 213 -20 q 53 230 53 120 m 363 975 l 218 1274 l 410 1274 l 503 975 l 363 975 m 148 975 l 2 1274 l 195 1274 l 288 975 l 148 975 z "},"Ȇ":{"ha":603,"x_min":73,"x_max":582,"o":"m 73 0 l 73 1221 l 582 1221 l 582 1051 l 319 1051 l 319 719 l 505 719 l 505 545 l 319 545 l 319 170 l 582 170 l 582 0 l 73 0 m 272 1314 l 155 1314 q 203 1435 155 1388 q 327 1482 252 1482 q 450 1435 402 1482 q 498 1314 498 1388 l 382 1314 q 377 1351 382 1333 q 359 1384 372 1369 q 327 1400 347 1400 q 294 1384 307 1400 q 277 1351 281 1369 q 272 1314 272 1333 z "},"ȇ":{"ha":637,"x_min":53,"x_max":597,"o":"m 281 543 l 370 543 l 370 665 q 325 732 370 732 q 281 665 281 732 l 281 543 m 53 230 l 53 606 q 120 826 53 747 q 325 905 187 905 q 530 827 463 905 q 597 606 597 748 l 597 423 l 281 423 l 281 227 q 325 153 281 153 q 372 233 372 153 l 372 330 l 597 330 l 597 230 q 517 50 597 119 q 325 -20 437 -20 q 133 50 213 -20 q 53 230 53 120 m 270 975 l 153 975 q 201 1096 153 1049 q 325 1143 250 1143 q 448 1096 400 1143 q 496 975 496 1049 l 380 975 q 375 1012 380 994 q 357 1045 370 1030 q 325 1061 345 1061 q 292 1045 305 1061 q 275 1012 279 1030 q 270 975 270 994 z "},"Ȉ":{"ha":392,"x_min":-127,"x_max":374,"o":"m 73 0 l 73 1221 l 319 1221 l 319 0 l 73 0 m 235 1314 l 89 1613 l 281 1613 l 374 1314 l 235 1314 m 19 1314 l -127 1613 l 66 1613 l 159 1314 l 19 1314 z "},"ȉ":{"ha":361,"x_min":-125,"x_max":376,"o":"m 84 0 l 84 885 l 313 885 l 313 0 l 84 0 m 237 974 l 91 1274 l 283 1274 l 376 974 l 237 974 m 21 974 l -125 1274 l 68 1274 l 161 974 l 21 974 z "},"Ȋ":{"ha":392,"x_min":24,"x_max":368,"o":"m 73 0 l 73 1221 l 319 1221 l 319 0 l 73 0 m 141 1314 l 24 1314 q 73 1435 24 1388 q 196 1482 121 1482 q 319 1435 271 1482 q 368 1314 368 1388 l 251 1314 q 246 1351 251 1333 q 229 1384 241 1369 q 196 1400 216 1400 q 163 1384 176 1400 q 146 1351 151 1369 q 141 1314 141 1333 z "},"ȋ":{"ha":359,"x_min":65,"x_max":294,"o":"m 65 962 l 65 1176 l 294 1176 l 294 962 l 65 962 m 65 0 l 65 885 l 294 885 l 294 0 l 65 0 z "},"Ȍ":{"ha":828,"x_min":57,"x_max":771,"o":"m 57 401 l 57 812 q 414 1244 57 1244 q 771 812 771 1244 l 771 408 q 760 272 771 334 q 723 155 749 210 q 657 60 697 99 q 555 -1 616 21 q 414 -24 493 -24 q 273 -2 335 -24 q 172 58 212 20 q 105 150 132 96 q 68 267 79 205 q 57 401 57 328 m 524 346 l 524 873 q 414 1054 524 1054 q 357 1037 380 1054 q 323 992 334 1021 q 308 935 313 963 q 304 873 304 907 l 304 346 q 414 166 304 166 q 524 346 524 166 m 452 1314 l 307 1613 l 498 1613 l 591 1314 l 452 1314 m 237 1314 l 91 1613 l 284 1613 l 377 1314 l 237 1314 z "},"ȍ":{"ha":660,"x_min":7,"x_max":607,"o":"m 380 227 l 380 665 q 328 732 380 732 q 281 665 281 732 l 281 227 q 282 202 281 212 q 288 179 283 193 q 302 159 292 166 q 328 153 312 153 q 380 227 380 153 m 53 230 l 53 606 q 120 826 53 748 q 328 905 186 905 q 538 826 470 905 q 607 606 607 748 l 607 230 q 525 50 607 119 q 328 -20 443 -20 q 192 11 254 -20 q 91 99 130 41 q 53 230 53 157 m 368 974 l 222 1274 l 414 1274 l 507 974 l 368 974 m 153 974 l 7 1274 l 200 1274 l 293 974 l 153 974 z "},"Ȏ":{"ha":828,"x_min":57,"x_max":771,"o":"m 57 401 l 57 812 q 414 1244 57 1244 q 771 812 771 1244 l 771 408 q 760 272 771 334 q 723 155 749 210 q 657 60 697 99 q 555 -1 616 21 q 414 -24 493 -24 q 273 -2 335 -24 q 172 58 212 20 q 105 150 132 96 q 68 267 79 205 q 57 401 57 328 m 524 346 l 524 873 q 414 1054 524 1054 q 357 1037 380 1054 q 323 992 334 1021 q 308 935 313 963 q 304 873 304 907 l 304 346 q 414 166 304 166 q 524 346 524 166 m 360 1310 l 243 1310 q 292 1432 243 1385 q 415 1478 340 1478 q 538 1432 490 1478 q 587 1310 587 1385 l 470 1310 q 465 1348 470 1329 q 448 1381 460 1366 q 415 1396 435 1396 q 382 1381 395 1396 q 365 1348 370 1366 q 360 1310 360 1329 z "},"ȏ":{"ha":660,"x_min":53,"x_max":607,"o":"m 380 227 l 380 665 q 328 732 380 732 q 281 665 281 732 l 281 227 q 282 202 281 212 q 288 179 283 193 q 302 159 292 166 q 328 153 312 153 q 380 227 380 153 m 53 230 l 53 606 q 120 826 53 748 q 328 905 186 905 q 538 826 470 905 q 607 606 607 748 l 607 230 q 525 50 607 119 q 328 -20 443 -20 q 192 11 254 -20 q 91 99 130 41 q 53 230 53 157 m 283 983 l 167 983 q 215 1105 167 1058 q 338 1152 263 1152 q 462 1105 414 1152 q 510 983 510 1058 l 393 983 q 389 1021 393 1002 q 371 1054 384 1039 q 338 1069 358 1069 q 306 1054 319 1069 q 288 1021 293 1039 q 283 983 283 1002 z "},"Ȑ":{"ha":769,"x_min":47,"x_max":755,"o":"m 319 713 l 390 713 q 439 732 418 713 q 468 780 459 751 q 481 833 477 809 q 485 880 485 858 q 482 924 485 901 q 471 976 479 947 q 445 1022 463 1004 q 401 1040 427 1040 l 319 1040 l 319 713 m 73 0 l 73 1221 l 341 1221 q 502 1203 433 1221 q 624 1149 572 1186 q 703 1049 676 1112 q 730 899 730 987 q 728 831 730 861 q 715 763 725 802 q 688 695 705 725 q 640 637 671 666 q 564 590 608 609 q 755 0 674 241 l 500 0 l 360 562 l 319 562 l 319 0 l 73 0 m 409 1289 l 263 1589 l 455 1589 l 548 1289 l 409 1289 m 193 1289 l 47 1589 l 241 1589 l 334 1289 l 193 1289 z "},"ȑ":{"ha":484,"x_min":-3,"x_max":498,"o":"m 64 0 l 64 885 l 291 885 l 291 813 q 413 898 343 898 q 475 891 433 898 l 475 699 q 386 705 412 705 q 315 676 339 705 q 291 594 291 648 l 291 0 l 64 0 m 359 954 l 213 1253 l 405 1253 l 498 954 l 359 954 m 143 954 l -3 1253 l 191 1253 l 283 954 l 143 954 z "},"Ȓ":{"ha":769,"x_min":73,"x_max":755,"o":"m 319 713 l 390 713 q 439 732 418 713 q 468 780 459 751 q 481 833 477 809 q 485 880 485 858 q 482 924 485 901 q 471 976 479 947 q 445 1022 463 1004 q 401 1040 427 1040 l 319 1040 l 319 713 m 73 0 l 73 1221 l 341 1221 q 502 1203 433 1221 q 624 1149 572 1186 q 703 1049 676 1112 q 730 899 730 987 q 728 831 730 861 q 715 763 725 802 q 688 695 705 725 q 640 637 671 666 q 564 590 608 609 q 755 0 674 241 l 500 0 l 360 562 l 319 562 l 319 0 l 73 0 m 287 1310 l 170 1310 q 218 1432 170 1385 q 342 1478 267 1478 q 465 1432 417 1478 q 513 1310 513 1385 l 397 1310 q 392 1348 397 1329 q 374 1381 387 1366 q 342 1396 361 1396 q 309 1381 322 1396 q 292 1348 296 1366 q 287 1310 287 1329 z "},"ȓ":{"ha":484,"x_min":64,"x_max":475,"o":"m 64 0 l 64 885 l 291 885 l 291 813 q 413 898 343 898 q 475 891 433 898 l 475 699 q 386 705 412 705 q 315 676 339 705 q 291 594 291 648 l 291 0 l 64 0 m 237 975 l 120 975 q 168 1096 120 1049 q 292 1143 216 1143 q 415 1096 367 1143 q 463 975 463 1049 l 347 975 q 342 1012 347 994 q 324 1045 337 1030 q 292 1061 311 1061 q 259 1045 272 1061 q 241 1012 246 1030 q 237 975 237 994 z "},"Ȕ":{"ha":846,"x_min":67,"x_max":779,"o":"m 67 454 l 67 1221 l 314 1221 l 314 461 q 315 367 314 396 q 318 295 315 337 q 328 235 321 252 q 346 199 334 218 q 377 173 358 179 q 423 167 396 167 q 469 173 450 167 q 500 198 488 179 q 519 235 512 218 q 528 293 526 252 q 532 364 531 335 q 532 457 532 393 q 532 461 532 460 l 532 1221 l 779 1221 l 779 454 q 776 348 779 395 q 763 250 772 300 q 737 160 753 199 q 694 85 721 121 q 630 26 667 50 q 541 -10 593 3 q 423 -24 488 -24 q 306 -10 358 -24 q 217 26 254 3 q 153 85 180 50 q 110 160 126 121 q 84 250 94 199 q 71 348 74 300 q 67 454 67 395 m 493 1289 l 347 1589 l 539 1589 l 632 1289 l 493 1289 m 277 1289 l 132 1589 l 325 1589 l 418 1289 l 277 1289 z "},"ȕ":{"ha":682,"x_min":41,"x_max":618,"o":"m 59 172 l 59 885 l 288 885 l 288 227 q 319 153 288 153 q 390 203 349 153 l 390 885 l 618 885 l 618 0 l 390 0 l 390 77 q 309 7 355 35 q 216 -20 263 -20 q 102 40 146 -20 q 59 172 59 99 m 403 953 l 257 1253 l 449 1253 l 542 953 l 403 953 m 187 953 l 41 1253 l 235 1253 l 328 953 l 187 953 z "},"Ȗ":{"ha":846,"x_min":67,"x_max":779,"o":"m 67 454 l 67 1221 l 314 1221 l 314 461 q 315 367 314 396 q 318 295 315 337 q 328 235 321 252 q 346 199 334 218 q 377 173 358 179 q 423 167 396 167 q 469 173 450 167 q 500 198 488 179 q 519 235 512 218 q 528 293 526 252 q 532 364 531 335 q 532 457 532 393 q 532 461 532 460 l 532 1221 l 779 1221 l 779 454 q 776 348 779 395 q 763 250 772 300 q 737 160 753 199 q 694 85 721 121 q 630 26 667 50 q 541 -10 593 3 q 423 -24 488 -24 q 306 -10 358 -24 q 217 26 254 3 q 153 85 180 50 q 110 160 126 121 q 84 250 94 199 q 71 348 74 300 q 67 454 67 395 m 371 1310 l 254 1310 q 302 1432 254 1385 q 426 1478 351 1478 q 549 1432 501 1478 q 597 1310 597 1385 l 481 1310 q 476 1348 481 1329 q 458 1381 471 1366 q 426 1396 446 1396 q 393 1381 406 1396 q 376 1348 380 1366 q 371 1310 371 1329 z "},"ȗ":{"ha":682,"x_min":59,"x_max":618,"o":"m 59 172 l 59 885 l 288 885 l 288 227 q 319 153 288 153 q 390 203 349 153 l 390 885 l 618 885 l 618 0 l 390 0 l 390 77 q 309 7 355 35 q 216 -20 263 -20 q 102 40 146 -20 q 59 172 59 99 m 281 974 l 164 974 q 212 1095 164 1048 q 336 1142 260 1142 q 459 1095 411 1142 q 507 974 507 1048 l 391 974 q 386 1011 391 993 q 368 1045 381 1029 q 336 1060 355 1060 q 303 1045 316 1060 q 286 1011 290 1029 q 281 974 281 993 z "},"Ș":{"ha":728,"x_min":31,"x_max":688,"o":"m 31 349 l 281 397 q 282 332 281 360 q 289 270 283 303 q 305 215 295 236 q 333 179 315 193 q 375 164 351 164 q 448 258 448 164 q 304 513 448 386 l 227 578 q 169 629 191 608 q 118 684 147 649 q 72 750 88 718 q 43 828 55 783 q 31 924 31 873 q 125 1159 31 1073 q 376 1246 220 1246 q 596 1154 505 1246 q 687 931 687 1061 l 686 922 q 686 902 686 913 l 431 867 q 432 890 431 874 q 433 916 433 906 q 430 963 433 941 q 419 1008 427 985 q 395 1043 411 1030 q 355 1057 378 1057 q 294 1025 315 1057 q 274 949 274 993 q 286 878 274 911 q 322 816 298 845 q 366 768 346 787 q 420 722 387 749 q 469 682 454 694 q 557 595 521 635 q 625 504 593 555 q 672 394 656 453 q 688 267 688 335 q 597 57 688 138 q 374 -25 505 -25 q 224 6 290 -25 q 118 91 158 37 q 56 210 77 144 q 31 349 34 275 m 304 -475 l 277 -362 q 288 -362 281 -362 q 312 -362 305 -362 q 324 -356 318 -361 q 331 -340 330 -350 q 332 -310 332 -331 l 258 -310 l 258 -94 l 477 -94 q 477 -172 477 -121 q 477 -273 477 -226 q 471 -357 477 -319 q 449 -422 464 -395 q 406 -463 435 -448 q 334 -477 378 -477 q 304 -475 323 -477 z "},"ș":{"ha":593,"x_min":14,"x_max":572,"o":"m 26 214 l 201 276 q 212 244 208 256 q 225 212 216 233 q 244 179 235 191 q 268 158 254 168 q 299 148 283 148 q 342 198 342 148 q 333 236 342 216 q 316 269 325 255 q 284 305 307 283 q 249 338 261 328 q 206 375 237 349 l 169 407 q 55 531 96 470 q 14 667 14 592 q 38 771 14 724 q 102 846 62 817 q 194 889 143 874 q 300 905 244 905 q 395 884 349 905 q 474 828 440 863 q 534 749 509 793 q 572 657 559 705 l 408 601 q 395 634 400 621 q 377 669 389 648 q 354 703 366 690 q 327 726 343 716 q 293 736 311 736 q 256 719 269 736 q 243 680 243 702 q 276 613 243 650 q 366 528 309 576 l 408 491 q 467 434 442 460 q 516 373 492 407 q 554 302 541 339 q 568 227 568 264 q 492 50 568 120 q 309 -20 416 -20 q 130 45 205 -20 q 26 214 55 109 m 239 -469 l 212 -357 q 222 -357 215 -357 q 246 -356 239 -357 q 258 -350 252 -356 q 266 -335 264 -345 q 267 -304 267 -326 l 192 -304 l 192 -89 l 411 -89 q 412 -166 411 -115 q 412 -267 412 -220 q 405 -352 412 -314 q 384 -416 398 -390 q 340 -457 369 -443 q 269 -472 312 -472 q 239 -469 258 -472 z "},"Ț":{"ha":625,"x_min":9,"x_max":611,"o":"m 189 0 l 189 1036 l 9 1036 l 9 1221 l 611 1221 l 611 1036 l 435 1036 l 435 0 l 189 0 m 249 -450 l 222 -337 q 232 -337 225 -337 q 256 -337 250 -337 q 269 -331 262 -336 q 276 -315 275 -325 q 277 -285 277 -306 l 202 -285 l 202 -69 l 421 -69 q 422 -146 421 -96 q 422 -248 422 -201 q 415 -332 422 -294 q 394 -397 408 -370 q 351 -438 379 -423 q 279 -452 322 -452 q 249 -450 268 -452 z "},"ț":{"ha":453,"x_min":14,"x_max":436,"o":"m 79 304 l 79 732 l 14 732 l 14 885 l 79 885 l 79 1176 l 308 1176 l 308 885 l 418 885 l 418 732 l 308 732 l 308 249 q 321 194 308 212 q 370 176 335 176 q 436 180 409 176 l 436 3 q 292 -10 391 -10 q 219 -1 252 -10 q 165 25 187 9 q 127 65 143 41 q 102 115 111 90 q 88 174 93 140 q 81 237 83 208 q 79 304 79 267 m 189 -460 l 162 -347 q 172 -347 165 -347 q 196 -347 190 -347 q 209 -341 203 -347 q 216 -326 215 -335 q 217 -295 217 -316 l 142 -295 l 142 -79 l 361 -79 q 362 -157 361 -106 q 362 -258 362 -211 q 355 -342 362 -304 q 334 -407 349 -380 q 291 -448 319 -433 q 219 -463 262 -463 q 189 -460 208 -463 z "},"ȷ":{"ha":435,"x_min":33,"x_max":371,"o":"m 33 -193 l 33 -27 q 92 -38 71 -38 q 144 37 144 -38 l 144 885 l 371 885 l 371 18 q 315 -150 371 -89 q 154 -211 259 -211 q 33 -193 103 -211 z "},"ˆ":{"ha":606,"x_min":73,"x_max":545,"o":"m 73 945 l 209 1220 l 406 1220 l 545 945 l 359 945 l 308 1082 l 258 945 l 73 945 z "},"ˇ":{"ha":583,"x_min":54,"x_max":527,"o":"m 191 939 l 54 1215 l 240 1215 l 290 1078 l 340 1215 l 527 1215 l 387 939 l 191 939 z "},"˘":{"ha":494,"x_min":64,"x_max":408,"o":"m 64 1143 l 181 1143 q 186 1106 181 1124 q 203 1073 191 1088 q 236 1057 216 1057 q 269 1073 256 1057 q 286 1106 281 1088 q 291 1143 291 1124 l 408 1143 q 359 1022 408 1069 q 236 975 311 975 q 113 1022 161 975 q 64 1143 64 1069 z "},"˙":{"ha":393,"x_min":99,"x_max":318,"o":"m 99 1017 l 99 1232 l 318 1232 l 318 1017 l 99 1017 z "},"˚":{"ha":513,"x_min":81,"x_max":424,"o":"m 129 1019 q 105 1041 129 1019 q 81 1137 81 1063 q 129 1255 81 1211 q 252 1299 178 1299 q 375 1255 327 1299 q 424 1137 424 1211 q 375 1019 424 1063 q 252 975 327 975 q 129 1019 178 975 m 252 1057 q 292 1082 279 1057 q 305 1137 305 1107 q 292 1192 305 1166 q 252 1217 279 1217 q 211 1192 225 1217 q 197 1138 197 1167 q 211 1082 197 1107 q 252 1057 224 1057 z "},"˛":{"ha":390,"x_min":33,"x_max":317,"o":"m 317 -243 l 303 -351 q 244 -351 275 -353 q 184 -346 214 -349 q 126 -332 154 -343 q 78 -306 99 -321 q 45 -263 57 -290 q 33 -200 33 -235 q 62 -89 33 -147 q 135 11 92 -30 l 235 11 q 220 -31 231 -3 q 203 -76 209 -59 q 192 -117 197 -92 q 186 -163 186 -142 q 192 -197 186 -182 q 209 -220 197 -212 q 232 -233 221 -228 q 261 -240 242 -238 q 289 -242 279 -242 q 317 -243 298 -243 z "},"˜":{"ha":610,"x_min":82,"x_max":541,"o":"m 195 970 l 82 970 q 84 1031 82 1004 q 95 1085 87 1057 q 116 1131 103 1113 q 153 1161 130 1149 q 208 1173 176 1173 q 327 1153 257 1173 q 412 1133 396 1133 q 428 1138 422 1133 q 435 1148 434 1143 q 435 1164 435 1154 l 541 1164 q 435 962 541 962 q 331 987 401 962 q 229 1012 260 1012 q 212 1009 218 1012 q 202 1003 205 1006 q 197 992 199 1000 q 195 982 195 984 q 195 970 195 980 z "},"˝":{"ha":667,"x_min":77,"x_max":577,"o":"m 291 953 l 384 1253 l 577 1253 l 431 953 l 291 953 m 77 953 l 170 1253 l 361 1253 l 216 953 l 77 953 z "},"̏":{"ha":667,"x_min":77,"x_max":577,"o":"m 438 953 l 292 1253 l 484 1253 l 577 953 l 438 953 m 222 953 l 77 1253 l 270 1253 l 363 953 l 222 953 z "},"̑":{"ha":494,"x_min":64,"x_max":408,"o":"m 181 975 l 64 975 q 113 1097 64 1050 q 236 1143 161 1143 q 359 1097 311 1143 q 408 975 408 1050 l 291 975 q 286 1013 291 994 q 269 1046 281 1031 q 236 1061 256 1061 q 203 1046 216 1061 q 186 1013 191 1031 q 181 975 181 994 z "},"̦":{"ha":343,"x_min":57,"x_max":277,"o":"m 104 -433 l 77 -321 q 87 -321 80 -321 q 111 -320 104 -321 q 123 -314 117 -320 q 131 -299 130 -309 q 132 -269 132 -290 l 57 -269 l 57 -53 l 276 -53 q 277 -130 276 -79 q 277 -231 277 -184 q 270 -316 277 -278 q 249 -380 263 -354 q 205 -421 234 -407 q 134 -436 177 -436 q 104 -433 123 -436 z "},"Δ":{"ha":715,"x_min":54,"x_max":663,"o":"m 54 0 l 271 1114 l 446 1114 l 663 0 l 54 0 m 255 130 l 460 130 l 357 854 l 255 130 z "},"μ":{"ha":734,"x_min":91,"x_max":649,"o":"m 91 -121 l 91 885 l 319 885 l 319 205 q 350 149 319 149 q 380 160 363 149 q 402 179 396 172 q 422 203 409 187 l 422 885 l 649 885 l 649 0 l 421 0 l 421 77 q 318 -4 375 20 l 318 -121 l 91 -121 z "},"Ḃ":{"ha":773,"x_min":73,"x_max":731,"o":"m 292 1327 l 292 1543 l 511 1543 l 511 1327 l 292 1327 m 319 174 l 342 174 q 420 185 391 174 q 466 224 450 197 q 487 285 481 251 q 492 377 492 319 q 458 526 492 473 q 344 578 425 578 l 319 578 l 319 174 m 318 741 l 360 741 q 417 753 394 741 q 452 791 440 766 q 469 844 464 816 q 473 911 473 873 q 469 965 473 942 q 459 1003 465 988 q 441 1029 454 1019 q 418 1045 428 1040 q 388 1052 408 1050 q 356 1055 368 1055 q 318 1055 344 1055 l 318 741 m 73 0 l 73 1221 l 324 1221 q 444 1214 392 1221 q 546 1186 496 1206 q 628 1131 595 1165 q 679 1039 660 1096 q 699 905 699 983 q 653 755 699 810 q 513 668 608 700 q 731 360 731 615 q 643 88 731 176 q 374 0 555 0 l 73 0 z "},"ḃ":{"ha":677,"x_min":64,"x_max":624,"o":"m 235 1303 l 235 1519 l 454 1519 l 454 1303 l 235 1303 m 64 0 l 64 1221 l 293 1221 l 293 825 q 359 883 321 861 q 440 905 397 905 q 571 841 518 905 q 624 692 624 777 l 624 170 q 573 37 624 94 q 447 -20 522 -20 q 361 3 401 -20 q 293 66 320 26 l 293 0 l 64 0 m 395 216 l 395 674 q 357 732 395 732 q 331 721 345 732 q 311 703 316 709 q 293 680 305 696 l 293 208 l 297 202 q 302 195 300 197 q 307 189 303 194 q 313 181 311 183 q 319 174 315 178 q 327 167 323 169 q 334 161 330 165 q 341 157 338 158 q 349 154 345 155 q 357 153 353 153 q 383 163 374 153 q 394 186 392 174 q 395 216 395 198 z "},"Ḋ":{"ha":789,"x_min":73,"x_max":732,"o":"m 293 1327 l 293 1543 l 512 1543 l 512 1327 l 293 1327 m 73 0 l 73 1221 l 328 1221 q 529 1199 450 1221 q 653 1126 608 1177 q 715 1005 698 1076 q 732 825 732 935 l 732 425 q 728 312 732 360 q 713 217 724 263 q 683 138 702 170 q 633 78 663 106 q 559 34 602 50 q 458 9 516 18 q 325 0 400 0 l 73 0 m 329 173 q 385 174 364 173 q 425 179 405 175 q 455 190 446 183 q 473 211 465 197 q 483 243 481 224 q 486 290 486 262 l 486 947 q 450 1027 486 1007 q 329 1047 414 1046 l 329 173 z "},"ḋ":{"ha":677,"x_min":54,"x_max":613,"o":"m 224 1303 l 224 1519 l 443 1519 l 443 1303 l 224 1303 m 54 170 l 54 692 q 106 841 54 777 q 237 905 159 905 q 318 883 280 905 q 385 825 357 861 l 385 1221 l 613 1221 l 613 0 l 385 0 l 385 66 q 317 3 357 26 q 231 -20 276 -20 q 104 37 155 -20 q 54 170 54 94 m 385 201 l 385 682 q 320 732 346 732 q 282 674 282 732 l 282 216 q 284 186 282 198 q 295 163 286 174 q 320 153 304 153 q 385 201 349 153 z "},"Ḟ":{"ha":581,"x_min":73,"x_max":582,"o":"m 218 1327 l 218 1543 l 437 1543 l 437 1327 l 218 1327 m 73 0 l 73 1221 l 582 1221 l 582 1051 l 319 1051 l 319 719 l 505 719 l 505 545 l 319 545 l 319 0 l 73 0 z "},"ḟ":{"ha":439,"x_min":44,"x_max":437,"o":"m 131 1259 l 131 1475 l 350 1475 l 350 1259 l 131 1259 m 96 0 l 96 732 l 44 732 l 44 885 l 96 885 l 96 886 q 99 958 96 927 q 109 1025 102 989 q 130 1085 116 1060 q 165 1133 144 1111 q 218 1165 186 1154 q 293 1177 251 1177 q 357 1174 321 1177 q 415 1169 393 1172 l 437 1167 l 437 996 q 377 1000 390 1000 q 336 984 349 1000 q 324 926 324 968 l 324 885 l 435 885 l 435 732 l 324 732 l 324 0 l 96 0 z "},"Ṁ":{"ha":997,"x_min":73,"x_max":924,"o":"m 389 1327 l 389 1543 l 608 1543 l 608 1327 l 389 1327 m 73 0 l 73 1221 l 368 1221 l 498 407 l 639 1221 l 924 1221 l 924 0 l 743 0 l 737 859 q 666 429 717 726 q 595 0 615 132 l 410 0 l 260 864 l 255 0 l 73 0 z "},"ṁ":{"ha":999,"x_min":64,"x_max":940,"o":"m 392 988 l 392 1204 l 611 1204 l 611 988 l 392 988 m 64 0 l 64 885 l 292 885 l 292 822 q 368 882 324 859 q 459 905 412 905 q 541 877 503 905 q 597 806 578 848 q 679 878 630 850 q 781 905 727 905 q 865 876 828 905 q 921 802 903 846 q 940 713 940 758 l 940 0 l 711 0 l 711 667 q 711 687 711 680 q 707 707 710 695 q 697 726 705 720 q 678 732 690 732 q 616 682 654 732 l 616 0 l 387 0 l 387 669 q 356 732 387 732 q 292 682 330 732 l 292 0 l 64 0 z "},"Ṗ":{"ha":693,"x_min":73,"x_max":672,"o":"m 263 1327 l 263 1543 l 482 1543 l 482 1327 l 263 1327 m 321 696 q 356 699 341 696 q 383 704 372 701 q 404 715 395 707 q 418 730 412 724 q 428 750 424 736 q 434 772 432 764 q 437 801 436 781 q 438 832 438 821 q 438 869 438 844 q 438 880 438 876 q 438 920 438 906 q 435 954 437 933 q 429 986 433 975 q 416 1010 425 996 q 395 1029 408 1023 q 365 1040 383 1036 q 321 1045 346 1045 l 321 696 m 73 0 l 73 1221 l 368 1221 q 600 1132 527 1221 q 672 875 672 1043 q 656 731 672 792 q 612 630 640 670 q 538 567 583 591 q 441 533 494 543 q 321 522 389 523 l 321 0 l 73 0 z "},"ṗ":{"ha":677,"x_min":64,"x_max":624,"o":"m 235 988 l 235 1204 l 454 1204 l 454 988 l 235 988 m 64 -252 l 64 885 l 293 885 l 293 825 q 359 883 321 861 q 440 905 397 905 q 571 841 518 905 q 624 692 624 777 l 624 170 q 573 37 624 94 q 447 -20 522 -20 q 361 3 401 -20 q 293 66 320 26 l 293 -252 l 64 -252 m 395 216 l 395 674 q 357 732 395 732 q 293 682 332 732 l 293 201 q 357 153 328 153 q 383 163 374 153 q 394 186 392 174 q 395 216 395 198 z "},"Ṡ":{"ha":714,"x_min":31,"x_max":688,"o":"m 250 1329 l 250 1544 l 469 1544 l 469 1329 l 250 1329 m 31 349 l 281 397 q 282 332 281 360 q 289 270 283 303 q 305 215 295 236 q 333 179 315 193 q 375 164 351 164 q 448 258 448 164 q 304 513 448 386 l 227 578 q 169 629 191 608 q 118 684 147 649 q 72 750 88 718 q 43 828 55 783 q 31 924 31 873 q 125 1159 31 1073 q 376 1246 220 1246 q 596 1154 505 1246 q 687 931 687 1061 l 686 922 q 686 902 686 913 l 431 867 q 432 890 431 874 q 433 916 433 906 q 430 963 433 941 q 419 1008 427 985 q 395 1043 411 1030 q 355 1057 378 1057 q 294 1025 315 1057 q 274 949 274 993 q 286 878 274 911 q 322 816 298 845 q 366 768 346 787 q 420 722 387 749 q 469 682 454 694 q 557 595 521 635 q 625 504 593 555 q 672 394 656 453 q 688 267 688 335 q 597 57 688 138 q 374 -25 505 -25 q 224 6 290 -25 q 118 91 158 37 q 56 210 77 144 q 31 349 34 275 z "},"ṡ":{"ha":588,"x_min":14,"x_max":572,"o":"m 183 987 l 183 1203 l 402 1203 l 402 987 l 183 987 m 26 214 l 201 276 q 212 244 208 256 q 225 212 216 233 q 244 179 235 191 q 268 158 254 168 q 299 148 283 148 q 342 198 342 148 q 333 236 342 216 q 316 269 325 255 q 284 305 307 283 q 249 338 261 328 q 206 375 237 349 l 169 407 q 55 531 96 470 q 14 667 14 592 q 38 771 14 724 q 102 846 62 817 q 194 889 143 874 q 300 905 244 905 q 395 884 349 905 q 474 828 440 863 q 534 749 509 793 q 572 657 559 705 l 408 601 q 395 634 400 621 q 377 669 389 648 q 354 703 366 690 q 327 726 343 716 q 293 736 311 736 q 256 719 269 736 q 243 680 243 702 q 276 613 243 650 q 366 528 309 576 l 408 491 q 467 434 442 460 q 516 373 492 407 q 554 302 541 339 q 568 227 568 264 q 492 50 568 120 q 309 -20 416 -20 q 130 45 205 -20 q 26 214 55 109 z "},"Ṫ":{"ha":621,"x_min":9,"x_max":611,"o":"m 201 1327 l 201 1543 l 420 1543 l 420 1327 l 201 1327 m 189 0 l 189 1036 l 9 1036 l 9 1221 l 611 1221 l 611 1036 l 435 1036 l 435 0 l 189 0 z "},"ṫ":{"ha":453,"x_min":14,"x_max":436,"o":"m 115 1259 l 115 1474 l 334 1474 l 334 1259 l 115 1259 m 79 304 l 79 732 l 14 732 l 14 885 l 79 885 l 79 1176 l 308 1176 l 308 885 l 418 885 l 418 732 l 308 732 l 308 249 q 321 194 308 212 q 370 176 335 176 q 436 180 409 176 l 436 3 q 292 -10 391 -10 q 219 -1 252 -10 q 165 25 187 9 q 127 65 143 41 q 102 115 111 90 q 88 174 93 140 q 81 237 83 208 q 79 304 79 267 z "},"Ẁ":{"ha":1008,"x_min":14,"x_max":979,"o":"m 183 0 l 14 1221 l 224 1221 l 300 412 l 405 1221 l 586 1221 l 688 417 l 768 1221 l 979 1221 l 808 0 l 597 0 l 494 799 l 394 0 l 183 0 m 435 1314 l 247 1613 l 481 1613 l 574 1314 l 435 1314 z "},"ẁ":{"ha":863,"x_min":18,"x_max":845,"o":"m 148 0 l 18 885 l 209 885 l 279 339 l 353 885 l 525 885 l 591 328 l 669 885 l 845 885 l 714 0 l 517 0 l 434 523 l 345 0 l 148 0 m 362 974 l 174 1274 l 409 1274 l 501 974 l 362 974 z "},"Ẃ":{"ha":1008,"x_min":14,"x_max":979,"o":"m 183 0 l 14 1221 l 224 1221 l 300 412 l 405 1221 l 586 1221 l 688 417 l 768 1221 l 979 1221 l 808 0 l 597 0 l 494 799 l 394 0 l 183 0 m 435 1314 l 527 1613 l 761 1613 l 573 1314 l 435 1314 z "},"ẃ":{"ha":863,"x_min":18,"x_max":845,"o":"m 148 0 l 18 885 l 209 885 l 279 339 l 353 885 l 525 885 l 591 328 l 669 885 l 845 885 l 714 0 l 517 0 l 434 523 l 345 0 l 148 0 m 363 974 l 455 1274 l 689 1274 l 501 974 l 363 974 z "},"Ẅ":{"ha":1008,"x_min":14,"x_max":979,"o":"m 183 0 l 14 1221 l 224 1221 l 300 412 l 405 1221 l 586 1221 l 688 417 l 768 1221 l 979 1221 l 808 0 l 597 0 l 494 799 l 394 0 l 183 0 m 554 1314 l 554 1522 l 760 1522 l 760 1314 l 554 1314 m 247 1314 l 247 1522 l 452 1522 l 452 1314 l 247 1314 z "},"ẅ":{"ha":863,"x_min":18,"x_max":845,"o":"m 148 0 l 18 885 l 209 885 l 279 339 l 353 885 l 525 885 l 591 328 l 669 885 l 845 885 l 714 0 l 517 0 l 434 523 l 345 0 l 148 0 m 482 974 l 482 1183 l 688 1183 l 688 974 l 482 974 m 175 974 l 175 1183 l 380 1183 l 380 974 l 175 974 z "},"Ỳ":{"ha":702,"x_min":-1,"x_max":697,"o":"m 229 0 l 229 404 l -1 1221 l 232 1221 l 346 684 q 409 952 367 772 q 471 1221 451 1133 l 697 1221 l 467 404 l 467 0 l 229 0 m 281 1314 l 94 1613 l 328 1613 l 420 1314 l 281 1314 z "},"ỳ":{"ha":591,"x_min":12,"x_max":584,"o":"m 229 987 l 41 1287 l 275 1287 l 368 987 l 229 987 m 183 79 q 147 338 183 168 q 64 687 111 508 q 12 885 16 866 l 220 885 l 302 391 l 374 885 l 584 885 l 391 -24 q 359 -104 380 -70 q 312 -158 338 -138 q 247 -191 285 -178 q 173 -207 210 -203 q 88 -211 136 -211 l 59 -211 l 59 -53 q 155 -21 127 -52 q 183 79 183 10 z "},"–":{"ha":358,"x_min":3,"x_max":353,"o":"m 3 307 l 3 458 l 353 458 l 353 307 l 3 307 z "},"—":{"ha":561,"x_min":3,"x_max":557,"o":"m 3 307 l 3 458 l 557 458 l 557 307 l 3 307 z "},"‘":{"ha":381,"x_min":83,"x_max":296,"o":"m 288 869 l 87 869 q 85 923 87 887 q 83 984 84 958 q 84 1046 83 1010 q 91 1107 86 1082 q 106 1160 96 1133 q 134 1205 117 1187 q 177 1233 151 1222 q 239 1244 204 1244 l 296 1129 q 254 1125 273 1130 q 218 1107 235 1121 q 201 1070 202 1093 l 288 1070 l 288 869 z "},"’":{"ha":381,"x_min":78,"x_max":292,"o":"m 135 869 l 78 983 q 143 996 115 983 q 174 1042 172 1009 l 87 1042 l 87 1244 l 288 1244 q 289 1190 288 1225 q 291 1128 290 1154 q 290 1067 292 1103 q 283 1005 288 1031 q 268 952 279 980 q 240 908 257 925 q 197 880 224 890 q 135 869 170 869 z "},"‚":{"ha":291,"x_min":39,"x_max":245,"o":"m 86 -218 l 39 70 l 245 70 l 197 -218 l 86 -218 z "},"“":{"ha":652,"x_min":85,"x_max":559,"o":"m 551 869 l 350 869 q 349 923 350 887 q 347 985 347 959 q 348 1046 346 1010 q 354 1107 349 1082 q 370 1160 359 1133 q 398 1205 381 1188 q 441 1233 414 1222 q 503 1244 468 1244 l 559 1129 q 494 1116 522 1130 q 465 1070 467 1103 l 551 1070 l 551 869 m 290 869 l 89 869 q 87 923 89 887 q 85 985 86 959 q 86 1046 85 1010 q 93 1107 88 1082 q 109 1160 98 1133 q 137 1205 120 1188 q 180 1233 153 1222 q 242 1244 207 1244 l 298 1129 q 256 1125 275 1130 q 221 1107 237 1121 q 203 1070 205 1093 l 290 1070 l 290 869 z "},"”":{"ha":652,"x_min":81,"x_max":555,"o":"m 398 869 l 341 983 q 407 996 378 983 q 437 1042 435 1009 l 350 1042 l 350 1244 l 551 1244 q 553 1190 551 1225 q 555 1128 554 1154 q 554 1066 555 1102 q 547 1005 552 1031 q 531 952 543 980 q 504 907 520 924 q 460 880 487 890 q 398 869 433 869 m 138 869 l 81 983 q 122 987 103 983 q 158 1005 142 991 q 176 1042 175 1019 l 89 1042 l 89 1244 l 290 1244 q 292 1190 290 1225 q 294 1128 293 1154 q 293 1067 294 1103 q 286 1005 291 1031 q 271 952 281 980 q 243 908 260 925 q 200 880 227 890 q 138 869 173 869 z "},"„":{"ha":517,"x_min":41,"x_max":467,"o":"m 308 -217 l 260 71 l 467 71 l 418 -217 l 308 -217 m 88 -217 l 41 71 l 247 71 l 199 -217 l 88 -217 z "},"†":{"ha":541,"x_min":54,"x_max":488,"o":"m 184 0 l 184 640 l 54 640 l 54 814 l 184 814 l 184 1042 l 357 1042 l 357 814 l 488 814 l 488 640 l 357 640 l 357 0 l 184 0 z "},"‡":{"ha":541,"x_min":54,"x_max":488,"o":"m 184 0 l 184 304 l 54 304 l 54 477 l 184 477 l 184 694 l 54 694 l 54 868 l 184 868 l 184 1042 l 357 1042 l 357 868 l 488 868 l 488 694 l 357 694 l 357 477 l 488 477 l 488 304 l 357 304 l 357 0 l 184 0 z "},"•":{"ha":671,"x_min":82,"x_max":589,"o":"m 429 244 q 406 235 429 244 q 335 227 384 227 q 242 244 286 227 q 161 292 197 260 q 103 374 125 323 q 82 487 82 425 q 104 601 82 550 q 161 684 125 652 q 242 732 197 715 q 335 749 287 749 q 429 732 384 749 q 510 684 473 715 q 568 601 546 652 q 589 487 589 550 q 568 374 589 425 q 510 292 546 323 q 429 244 473 260 z "},"…":{"ha":1062,"x_min":67,"x_max":996,"o":"m 775 0 l 775 215 l 996 215 l 996 0 l 775 0 m 421 0 l 421 215 l 642 215 l 642 0 l 421 0 m 67 0 l 67 215 l 288 215 l 288 0 l 67 0 z "},"‹":{"ha":419,"x_min":54,"x_max":357,"o":"m 357 43 l 54 391 l 54 477 l 357 825 l 357 608 l 184 435 l 357 260 l 357 43 z "},"›":{"ha":407,"x_min":54,"x_max":357,"o":"m 54 43 l 54 260 l 227 435 l 54 608 l 54 825 l 357 477 l 357 391 l 54 43 z "},"⁄":{"ha":419,"x_min":20,"x_max":329,"o":"m 20 0 l 194 1221 l 329 1221 l 153 0 l 20 0 z "},"⁴":{"ha":562,"x_min":48,"x_max":507,"o":"m 205 678 l 268 678 l 268 803 l 205 678 m 48 571 l 48 671 l 286 1074 l 418 1074 l 418 678 l 507 678 l 507 571 l 418 571 l 418 395 l 268 395 l 268 571 l 48 571 z "},"€":{"ha":705,"x_min":5,"x_max":648,"o":"m 5 349 l 5 481 l 52 481 l 52 568 l 5 568 l 5 701 l 54 701 l 54 706 q 66 820 57 770 q 95 920 75 871 q 148 1001 116 968 q 231 1054 180 1034 q 349 1074 281 1074 q 468 1054 416 1074 q 552 1001 519 1034 q 606 919 585 968 q 635 819 627 871 q 644 703 644 766 l 644 699 l 453 699 l 453 704 q 451 749 453 728 q 443 800 450 771 q 427 849 437 829 q 397 884 416 869 q 352 899 378 899 q 313 892 330 899 q 284 877 296 886 q 266 851 273 868 q 254 822 258 835 q 248 786 250 809 q 245 751 245 764 q 245 714 245 739 q 245 705 245 708 l 245 701 l 380 701 l 380 568 l 245 568 l 245 481 l 380 481 l 380 349 l 247 349 l 247 345 q 249 310 248 322 q 253 275 250 298 q 260 239 256 252 q 273 209 264 226 q 292 183 281 192 q 319 167 302 174 q 357 160 336 160 q 459 387 459 160 l 459 391 l 648 391 l 648 385 q 641 266 648 319 q 614 157 633 212 q 563 65 594 102 q 477 5 531 28 q 353 -18 424 -18 q 210 9 269 -18 q 118 88 151 37 q 71 201 85 140 q 52 343 56 262 l 52 349 l 5 349 z "},"™":{"ha":1515,"x_min":113,"x_max":984,"o":"m 513 465 l 513 1029 l 677 1029 l 747 722 l 820 1029 l 984 1029 l 984 465 l 876 465 l 876 842 l 783 465 l 713 465 l 620 842 l 620 465 l 513 465 m 224 465 l 224 925 l 113 925 l 113 1029 l 450 1029 l 450 925 l 339 925 l 339 465 l 224 465 z "},"∏":{"ha":845,"x_min":97,"x_max":748,"o":"m 97 0 l 97 1215 l 748 1215 l 748 0 l 574 0 l 574 1085 l 271 1085 l 271 0 l 97 0 z "},"−":{"ha":607,"x_min":93,"x_max":507,"o":"m 93 360 l 93 511 l 507 511 l 507 360 l 93 360 z "},"∕":{"ha":419,"x_min":20,"x_max":329,"o":"m 20 0 l 194 1221 l 329 1221 l 153 0 l 20 0 z "},"∙":{"ha":393,"x_min":99,"x_max":318,"o":"m 99 1017 l 99 1232 l 318 1232 l 318 1017 l 99 1017 z "},"∫":{"ha":498,"x_min":10,"x_max":444,"o":"m 10 -165 l 10 -37 q 68 -43 52 -43 q 101 -37 87 -43 q 122 -22 115 -31 q 134 2 130 -13 q 139 32 138 18 q 140 65 140 45 l 140 911 q 141 968 140 949 q 145 1019 141 987 q 156 1069 149 1052 q 177 1110 163 1087 q 212 1144 191 1133 q 264 1163 233 1155 q 337 1172 296 1172 q 444 1164 379 1172 l 444 1035 q 414 1039 435 1036 q 386 1042 393 1042 q 353 1036 367 1042 q 332 1020 340 1029 q 320 996 325 1011 q 315 967 316 981 q 314 933 314 953 l 314 87 q 314 31 314 50 q 310 -21 313 12 q 299 -71 306 -54 q 277 -112 292 -89 q 242 -145 263 -134 q 190 -165 222 -157 q 117 -174 159 -174 q 10 -165 75 -174 z "},"ﬀ":{"ha":867,"x_min":44,"x_max":857,"o":"m 96 0 l 96 732 l 44 732 l 44 885 l 96 885 q 96 895 96 888 q 96 905 96 901 q 102 986 98 951 q 119 1059 106 1022 q 153 1121 132 1097 q 209 1161 174 1145 q 293 1177 245 1177 q 357 1174 321 1177 q 415 1169 393 1172 l 437 1167 l 437 996 q 377 1000 390 1000 q 336 984 349 1000 q 324 926 324 968 l 324 885 l 515 885 q 516 895 515 888 q 516 905 516 901 q 522 986 517 951 q 539 1059 526 1022 q 573 1121 552 1097 q 629 1161 593 1145 q 713 1177 665 1177 q 777 1174 741 1177 q 835 1169 813 1172 l 857 1167 l 857 996 q 797 1000 810 1000 q 756 984 768 1000 q 744 926 744 968 l 744 885 l 854 885 l 854 732 l 744 732 l 744 0 l 515 0 l 515 732 l 324 732 l 324 0 l 96 0 z "},"ﬁ":{"ha":812,"x_min":44,"x_max":747,"o":"m 519 962 l 519 1176 l 747 1176 l 747 962 l 519 962 m 96 0 l 96 732 l 44 732 l 44 885 l 96 885 q 96 895 96 888 q 96 905 96 901 q 102 986 98 951 q 119 1059 106 1022 q 153 1121 132 1097 q 209 1161 174 1145 q 293 1177 245 1177 q 357 1174 321 1177 q 415 1169 393 1172 l 437 1167 l 437 996 q 377 1000 390 1000 q 336 984 349 1000 q 324 926 324 968 l 324 885 l 747 885 l 747 0 l 519 0 l 519 732 l 324 732 l 324 0 l 96 0 z "},"ﬂ":{"ha":806,"x_min":44,"x_max":741,"o":"m 513 0 l 513 997 q 377 1000 414 1000 q 336 984 349 1000 q 324 926 324 968 l 324 885 l 435 885 l 435 732 l 324 732 l 324 0 l 96 0 l 96 732 l 44 732 l 44 885 l 96 885 q 96 895 96 888 q 96 905 96 901 q 103 986 98 951 q 123 1059 109 1022 q 161 1121 138 1097 q 225 1161 185 1145 q 320 1177 266 1177 q 424 1174 365 1177 q 578 1167 482 1172 q 741 1159 675 1162 l 741 0 l 513 0 z "},"ﬃ":{"ha":1248,"x_min":44,"x_max":1183,"o":"m 954 962 l 954 1176 l 1183 1176 l 1183 962 l 954 962 m 96 0 l 96 732 l 44 732 l 44 885 l 96 885 q 96 895 96 888 q 96 905 96 901 q 102 986 98 951 q 119 1059 106 1022 q 153 1121 132 1097 q 209 1161 174 1145 q 293 1177 245 1177 q 357 1174 321 1177 q 415 1169 393 1172 l 437 1167 l 437 996 q 377 1000 390 1000 q 336 984 349 1000 q 324 926 324 968 l 324 885 l 515 885 q 516 895 515 888 q 516 905 516 901 q 522 986 517 951 q 539 1059 526 1022 q 573 1121 552 1097 q 629 1161 593 1145 q 713 1177 665 1177 q 777 1174 741 1177 q 835 1169 813 1172 l 857 1167 l 857 996 q 797 1000 810 1000 q 756 984 768 1000 q 744 926 744 968 l 744 885 l 1183 885 l 1183 0 l 954 0 l 954 732 l 744 732 l 744 0 l 515 0 l 515 732 l 324 732 l 324 0 l 96 0 z "},"ﬄ":{"ha":1254,"x_min":44,"x_max":1189,"o":"m 960 0 l 960 998 q 909 999 945 998 q 865 1000 874 1000 q 793 984 815 1000 q 772 926 772 968 l 772 885 l 882 885 l 882 732 l 772 732 l 772 0 l 543 0 l 543 732 l 324 732 l 324 0 l 96 0 l 96 732 l 44 732 l 44 885 l 96 885 q 96 895 96 888 q 96 905 96 901 q 102 986 98 951 q 119 1059 106 1022 q 153 1121 132 1097 q 209 1161 174 1145 q 293 1177 245 1177 q 357 1174 321 1177 q 415 1169 393 1172 l 437 1167 l 437 996 q 377 1000 390 1000 q 336 984 349 1000 q 324 926 324 968 l 324 885 l 543 885 q 544 895 543 888 q 544 905 544 901 q 551 986 545 951 q 572 1059 557 1022 q 613 1121 588 1097 q 681 1161 638 1145 q 781 1177 724 1177 q 1189 1152 884 1177 l 1189 0 l 960 0 z "}}}
